<svg width="98.731" height="72.071" viewBox="0 0 98.731 72.071" xmlns="http://www.w3.org/2000/svg"><g id="svgGroup" stroke-linecap="round" fill-rule="evenodd" font-size="9pt" stroke="#000" stroke-width="0.25mm" fill="#000" style="stroke:#000;stroke-width:0.25mm;fill:#000"><path d="M 81.348 2.246 L 84.473 3.614 Q 83.203 6.153 80.908 10.254 Q 78.613 14.356 75.977 19.287 Q 73.34 24.219 70.654 29.59 Q 67.969 34.961 65.772 40.088 Q 63.574 45.215 62.158 49.756 Q 60.742 54.297 60.742 57.422 Q 60.742 60.547 61.963 61.475 Q 63.184 62.403 65.137 62.403 Q 67.969 62.403 70.947 60.743 Q 73.926 59.082 76.807 56.446 Q 79.688 53.809 82.422 50.489 Q 85.156 47.168 87.549 43.799 Q 89.942 40.43 91.895 37.354 Q 93.848 34.278 95.215 32.129 L 98.731 34.864 Q 97.07 37.989 94.824 41.602 Q 92.578 45.215 89.893 48.877 Q 87.207 52.539 84.082 55.957 Q 80.957 59.375 77.49 62.012 Q 74.024 64.649 70.215 66.211 Q 66.406 67.774 62.403 67.774 Q 56.543 67.774 53.809 64.258 Q 51.074 60.743 51.074 55.176 Q 51.074 54.786 51.123 53.467 Q 51.172 52.149 51.367 51.368 Q 46.485 57.52 42.041 61.524 Q 37.598 65.528 33.447 67.871 Q 29.297 70.215 25.44 71.143 Q 21.582 72.071 18.067 72.071 Q 14.356 72.071 11.084 70.85 Q 7.813 69.629 5.322 67.286 Q 2.832 64.942 1.416 61.524 Q 0 58.106 0 53.614 Q 0 48.047 2.49 40.87 Q 4.981 33.692 11.328 25.391 Q 16.699 18.262 22.51 13.379 Q 28.32 8.496 33.936 5.518 Q 39.551 2.539 44.629 1.27 Q 49.707 0 53.711 0 Q 62.695 0 67.285 2.979 Q 71.875 5.957 72.852 12.11 Q 74.805 9.668 76.953 7.227 Q 79.102 4.786 81.348 2.246 Z M 54.492 40.723 Q 55.762 38.672 57.617 35.498 Q 59.473 32.325 61.524 28.955 Q 63.574 25.586 65.528 22.461 Q 67.481 19.336 68.945 17.188 Q 68.945 16.309 68.701 14.356 Q 68.457 12.403 67.383 10.401 Q 66.309 8.399 63.965 6.934 Q 61.621 5.469 57.422 5.469 Q 54.395 5.469 50.635 6.397 Q 46.875 7.325 42.627 9.522 Q 38.379 11.719 33.887 15.332 Q 29.395 18.946 24.903 24.317 Q 18.164 32.422 14.502 40.577 Q 10.84 48.731 10.84 55.274 Q 10.84 60.84 13.379 63.868 Q 15.918 66.895 20.606 66.895 Q 25.977 66.895 30.664 64.502 Q 35.352 62.11 39.453 58.301 Q 43.555 54.493 47.266 49.854 Q 50.977 45.215 54.492 40.723 Z" id="0" vector-effect="non-scaling-stroke"/></g></svg>