<svg width="85.449" height="145.02" viewBox="0 0 85.449 145.02" xmlns="http://www.w3.org/2000/svg"><g id="svgGroup" stroke-linecap="round" fill-rule="evenodd" font-size="9pt" stroke="#000" stroke-width="0.25mm" fill="#000" style="stroke:#000;stroke-width:0.25mm;fill:#000"><path d="M 57.617 98.047 Q 53.906 97.168 51.221 95.557 Q 48.535 93.945 46.875 91.895 Q 45.215 89.844 44.434 87.549 Q 43.652 85.254 43.652 83.008 Q 43.652 78.125 46.387 75.439 Q 49.121 72.754 53.223 72.754 Q 55.957 72.754 57.91 74.17 Q 59.863 75.586 61.133 77.93 Q 62.402 80.273 62.988 83.35 Q 63.574 86.426 63.574 89.746 Q 63.574 91.992 63.379 94.189 Q 63.184 96.387 62.695 98.633 Q 60.352 109.18 55.811 117.725 Q 51.27 126.27 45.557 132.373 Q 39.844 138.477 33.398 141.748 Q 26.953 145.02 20.801 145.02 Q 16.602 145.02 12.842 143.848 Q 9.082 142.676 6.201 139.941 Q 3.32 137.207 1.66 132.764 Q 0 128.32 0 121.777 Q 0 113.672 3.174 102.441 Q 6.348 91.211 13.965 76.074 Q 24.902 54.883 35.938 38.086 Q 40.625 30.957 45.801 24.121 Q 50.977 17.285 56.201 11.914 Q 61.426 6.543 66.553 3.271 Q 71.68 0 76.27 0 Q 76.855 0 78.369 0.195 Q 79.883 0.391 81.445 1.221 Q 83.008 2.051 84.229 3.76 Q 85.449 5.469 85.449 8.496 Q 85.449 12.109 83.545 17.627 Q 81.641 23.145 77.881 29.834 Q 74.121 36.523 68.604 44.092 Q 63.086 51.66 55.908 59.277 Q 48.73 66.895 39.99 74.219 Q 31.25 81.543 20.996 87.891 Q 17.578 95.313 15.283 101.318 Q 12.988 107.324 11.621 112.158 Q 10.254 116.992 9.668 120.703 Q 9.082 124.414 9.082 127.148 Q 9.082 130.957 10.107 133.447 Q 11.133 135.938 12.891 137.354 Q 14.648 138.77 16.895 139.355 Q 19.141 139.941 21.582 139.941 Q 26.172 139.941 30.518 137.598 Q 34.863 135.254 38.77 131.494 Q 42.676 127.734 45.947 123.047 Q 49.219 118.359 51.66 113.721 Q 54.102 109.082 55.664 104.932 Q 57.227 100.781 57.617 98.047 Z M 25.098 79.004 Q 34.082 72.852 41.65 66.016 Q 49.219 59.18 55.371 52.295 Q 61.523 45.41 66.211 38.818 Q 70.898 32.227 74.023 26.465 Q 77.148 20.703 78.76 16.162 Q 80.371 11.621 80.371 8.789 Q 80.371 6.25 78.516 6.25 Q 75 6.25 70.068 10.059 Q 65.137 13.867 58.643 22.461 Q 52.148 31.055 43.799 44.922 Q 35.449 58.789 25.098 79.004 Z M 58.301 92.969 Q 58.398 92.09 58.447 91.211 Q 58.496 90.332 58.496 89.551 Q 58.496 84.277 57.129 81.055 Q 55.762 77.832 53.223 77.832 Q 52.637 77.832 51.904 77.979 Q 51.172 78.125 50.439 78.662 Q 49.707 79.199 49.219 80.176 Q 48.73 81.152 48.73 82.715 Q 48.73 86.719 51.514 89.307 Q 54.297 91.895 58.301 92.969 Z" id="0" vector-effect="non-scaling-stroke"/></g></svg>