<svg width="73.243" height="76.563" viewBox="0 0 73.243 76.563" xmlns="http://www.w3.org/2000/svg"><g id="svgGroup" stroke-linecap="round" fill-rule="evenodd" font-size="9pt" stroke="#000" stroke-width="0.25mm" fill="#000" style="stroke:#000;stroke-width:0.25mm;fill:#000"><path d="M 69.629 38.086 L 73.243 40.82 Q 67.969 49.707 62.012 56.397 Q 56.055 63.086 49.805 67.578 Q 43.555 72.07 37.11 74.317 Q 30.665 76.563 24.512 76.563 Q 19.629 76.563 15.186 75.098 Q 10.743 73.633 7.374 70.654 Q 4.004 67.676 2.002 62.988 Q 0 58.301 0 51.856 Q 0 44.238 2.198 37.451 Q 4.395 30.664 8.057 24.903 Q 11.719 19.141 16.504 14.502 Q 21.29 9.863 26.514 6.641 Q 31.739 3.418 37.061 1.709 Q 42.383 0 47.071 0 Q 51.856 0 54.883 1.319 Q 57.911 2.637 59.668 4.492 Q 61.426 6.348 62.061 8.399 Q 62.696 10.449 62.696 11.914 Q 62.696 14.258 62.012 16.895 Q 61.329 19.531 60.108 21.729 Q 58.887 23.926 57.081 25.391 Q 55.274 26.856 53.125 26.856 Q 50.977 26.856 49.415 25.44 Q 47.852 24.024 47.852 21.875 Q 47.852 21.778 47.999 20.703 Q 48.145 19.629 48.926 18.408 Q 49.708 17.188 51.319 16.211 Q 52.93 15.235 55.86 15.235 L 57.032 15.235 Q 57.618 13.672 57.618 11.914 Q 57.618 8.789 55.127 6.983 Q 52.637 5.176 47.266 5.176 Q 42.872 5.176 38.428 7.08 Q 33.985 8.985 29.883 12.305 Q 25.782 15.625 22.217 20.215 Q 18.653 24.805 16.065 30.176 Q 13.477 35.547 11.963 41.553 Q 10.45 47.559 10.45 53.613 Q 10.45 58.496 11.524 61.914 Q 12.598 65.332 14.551 67.481 Q 16.504 69.629 19.239 70.557 Q 21.973 71.485 25.391 71.485 Q 32.129 71.485 38.477 68.457 Q 44.825 65.43 50.538 60.596 Q 56.25 55.762 61.084 49.805 Q 65.918 43.848 69.629 38.086 Z" id="0" vector-effect="non-scaling-stroke"/></g></svg>