<svg width="110.84" height="130.664" viewBox="0 0 110.84 130.664" xmlns="http://www.w3.org/2000/svg"><g id="svgGroup" stroke-linecap="round" fill-rule="evenodd" font-size="9pt" stroke="#000" stroke-width="0.25mm" fill="#000" style="stroke:#000;stroke-width:0.25mm;fill:#000"><path d="M 106.641 0 L 110.84 2.734 Q 109.766 4.297 107.325 7.91 Q 104.883 11.523 101.661 16.504 Q 98.438 21.484 94.678 27.539 Q 90.918 33.594 87.159 40.039 Q 83.399 46.484 79.834 53.076 Q 76.27 59.668 73.536 65.723 Q 69.239 75.098 66.456 82.471 Q 63.672 89.844 62.061 95.605 Q 60.45 101.367 59.815 105.615 Q 59.18 109.863 59.18 112.891 Q 59.18 118.457 60.889 120.605 Q 62.598 122.754 65.528 122.754 Q 68.555 122.754 71.338 121.191 Q 74.122 119.629 76.709 117.188 Q 79.297 114.746 81.592 111.621 Q 83.887 108.496 85.889 105.371 Q 87.891 102.246 89.551 99.414 Q 91.211 96.582 92.481 94.629 L 95.997 97.363 Q 94.922 99.121 93.311 102.002 Q 91.7 104.883 89.649 108.301 Q 87.598 111.719 84.961 115.186 Q 82.325 118.652 79.151 121.484 Q 75.977 124.316 72.12 126.123 Q 68.262 127.93 63.77 127.93 Q 61.622 127.93 59.229 127.344 Q 56.836 126.758 54.786 125.293 Q 52.735 123.828 51.172 121.24 Q 49.61 118.652 49.122 114.648 Q 41.797 122.559 34.864 126.611 Q 27.93 130.664 21.778 130.664 Q 18.653 130.664 14.893 129.59 Q 11.133 128.516 7.813 125.879 Q 4.493 123.242 2.247 118.896 Q 0 114.551 0 108.105 Q 0 100.879 2.247 94.336 Q 4.493 87.793 8.301 82.178 Q 12.11 76.563 17.041 72.021 Q 21.973 67.48 27.344 64.307 Q 32.715 61.133 38.135 59.375 Q 43.555 57.617 48.34 57.617 Q 54.688 57.617 58.301 59.18 Q 61.915 60.742 63.77 62.305 Q 65.137 59.57 67.481 55.322 Q 69.825 51.074 72.95 45.85 Q 76.075 40.625 79.883 34.717 Q 83.692 28.809 87.989 22.803 Q 92.286 16.797 97.022 10.938 Q 101.758 5.078 106.641 0 Z M 49.024 107.324 Q 49.512 100.098 52.393 90.283 Q 55.274 80.469 61.231 67.676 Q 59.864 65.625 57.374 64.502 Q 54.883 63.379 51.758 63.379 Q 46.973 63.379 42.041 65.332 Q 37.11 67.285 32.569 70.605 Q 28.028 73.926 24.024 78.467 Q 20.02 83.008 17.041 88.184 Q 14.063 93.359 12.354 98.975 Q 10.645 104.59 10.645 110.059 Q 10.645 117.383 13.721 121.484 Q 16.797 125.586 21.973 125.586 Q 24.415 125.586 27.344 124.609 Q 30.274 123.633 33.741 121.436 Q 37.208 119.238 41.016 115.771 Q 44.825 112.305 49.024 107.324 Z" id="0" vector-effect="non-scaling-stroke"/></g></svg>