<svg width="78.027" height="76.758" viewBox="0 0 78.027 76.758" xmlns="http://www.w3.org/2000/svg"><g id="svgGroup" stroke-linecap="round" fill-rule="evenodd" font-size="9pt" stroke="#000" stroke-width="0.25mm" fill="#000" style="stroke:#000;stroke-width:0.25mm;fill:#000"><path d="M 74.707 35.059 L 78.027 37.988 Q 71.582 48.73 64.942 56.104 Q 58.301 63.477 51.709 68.066 Q 45.117 72.656 38.77 74.707 Q 32.422 76.758 26.66 76.758 Q 22.461 76.758 17.774 75.586 Q 13.086 74.414 9.131 71.68 Q 5.176 68.945 2.588 64.355 Q 0 59.766 0 52.93 Q 0 45.605 2.49 38.818 Q 4.981 32.031 8.985 26.172 Q 12.988 20.313 18.164 15.479 Q 23.34 10.645 28.662 7.227 Q 33.985 3.809 39.063 1.904 Q 44.141 0 48.047 0 Q 50.586 0 53.223 0.781 Q 55.86 1.563 57.959 3.223 Q 60.059 4.883 61.377 7.617 Q 62.695 10.352 62.695 14.16 Q 62.695 19.336 60.303 23.877 Q 57.91 28.418 53.906 32.275 Q 49.902 36.133 44.629 39.209 Q 39.356 42.285 33.594 44.434 Q 27.832 46.582 21.973 47.852 Q 16.113 49.121 10.84 49.219 Q 10.645 50.391 10.547 51.563 Q 10.449 52.734 10.449 53.906 Q 10.449 57.422 11.475 60.596 Q 12.5 63.77 14.502 66.162 Q 16.504 68.555 19.483 69.922 Q 22.461 71.289 26.27 71.289 Q 39.063 71.289 50.977 62.598 Q 62.891 53.906 74.707 35.059 Z M 11.621 45.02 Q 18.164 44.336 23.926 42.285 Q 29.688 40.234 34.473 37.256 Q 39.258 34.277 43.018 30.762 Q 46.777 27.246 49.317 23.633 Q 51.856 20.02 53.223 16.699 Q 54.59 13.379 54.59 10.742 Q 54.59 8.105 53.174 6.543 Q 51.758 4.98 49.805 4.98 Q 45.508 4.98 40.137 8.057 Q 34.766 11.133 29.395 16.553 Q 24.024 21.973 19.287 29.297 Q 14.551 36.621 11.621 45.02 Z" id="0" vector-effect="non-scaling-stroke"/></g></svg>