<svg width="119.693" height="207.52" viewBox="0 0 119.693 207.52" xmlns="http://www.w3.org/2000/svg"><g id="svgGroup" stroke-linecap="round" fill-rule="evenodd" font-size="9pt" stroke="#000" stroke-width="0.25mm" fill="#000" style="stroke:#000;stroke-width:0.25mm;fill:#000"><path d="M 50.977 108.203 L 37.402 140.723 Q 40.527 143.164 45.703 143.164 Q 51.27 143.164 56.201 141.407 Q 61.133 139.649 65.43 136.768 Q 69.727 133.887 73.34 130.371 Q 76.953 126.856 79.834 123.291 Q 82.715 119.727 84.912 116.553 Q 87.109 113.379 88.477 111.231 L 93.945 111.231 Q 92.578 113.575 90.186 117.237 Q 87.793 120.899 84.521 125 Q 81.25 129.102 77.148 133.252 Q 73.047 137.403 68.115 140.723 Q 63.184 144.043 57.617 146.143 Q 52.051 148.242 45.801 148.242 Q 43.066 148.242 40.479 147.608 Q 37.891 146.973 35.449 145.606 Q 32.227 153.516 29.15 161.133 Q 26.074 168.75 23.291 175.586 Q 20.508 182.422 18.164 188.184 Q 15.82 193.946 14.063 198.194 Q 12.305 202.442 11.328 204.932 Q 10.352 207.422 10.254 207.52 L 0 202.442 Q 4.98 190.723 8.936 180.957 Q 12.891 171.192 16.26 162.696 Q 19.629 154.2 22.607 146.729 Q 25.586 139.258 28.613 132.227 Q 27.051 129.981 26.318 127.832 Q 25.586 125.684 25.391 124.317 Q 25.195 122.071 26.611 120.557 Q 28.027 119.043 30.273 119.043 Q 32.129 119.043 33.691 120.313 Q 36.621 113.282 38.916 107.959 Q 41.211 102.637 42.773 99.024 Q 44.531 94.825 45.898 91.7 Q 54.395 71.68 61.67 57.08 Q 68.945 42.481 75.098 32.276 Q 81.25 22.071 86.328 15.772 Q 91.406 9.473 95.557 5.957 Q 99.707 2.442 103.027 1.221 Q 106.348 0 108.984 0 Q 113.281 0 116.26 1.905 Q 119.238 3.809 119.629 8.399 Q 120.02 12.891 118.018 19.727 Q 116.016 26.563 112.549 34.229 Q 109.082 41.895 104.492 49.707 Q 99.902 57.52 95.117 64.063 Q 86.035 76.367 78.662 84.473 Q 71.289 92.578 65.723 97.559 Q 60.156 102.539 56.445 104.932 Q 52.734 107.325 50.977 108.203 Z M 113.574 9.864 Q 113.477 8.203 112.842 6.983 Q 112.207 5.762 110.254 5.762 Q 109.082 5.762 107.227 6.299 Q 105.371 6.836 102.881 8.594 Q 100.391 10.352 97.266 13.77 Q 94.141 17.188 90.283 22.95 Q 86.426 28.711 81.885 37.207 Q 77.344 45.703 72.168 57.715 Q 68.75 65.332 64.258 76.221 Q 59.766 87.11 54.395 99.805 Q 58.984 96.582 64.014 91.748 Q 69.043 86.914 74.17 81.104 Q 79.297 75.293 84.277 68.75 Q 89.258 62.207 93.75 55.469 Q 98.242 48.731 102.002 42.09 Q 105.762 35.45 108.447 29.444 Q 111.133 23.438 112.5 18.409 Q 113.867 13.379 113.574 9.864 Z" id="0" vector-effect="non-scaling-stroke"/></g></svg>