<svg width="127.246" height="158.594" viewBox="0 0 127.246 158.594" xmlns="http://www.w3.org/2000/svg"><g id="svgGroup" stroke-linecap="round" fill-rule="evenodd" font-size="9pt" stroke="#000" stroke-width="0.25mm" fill="#000" style="stroke:#000;stroke-width:0.25mm;fill:#000"><path d="M 102.734 10.156 L 108.008 3.223 L 111.23 5.371 Q 111.23 5.469 109.668 8.447 Q 108.105 11.426 105.566 16.406 Q 103.027 21.387 99.658 28.076 Q 96.289 34.766 92.627 42.285 Q 88.965 49.805 85.205 57.813 Q 81.445 65.82 78.027 73.535 Q 86.914 68.457 93.652 63.77 Q 100.391 59.082 105.713 54.297 Q 111.035 49.512 115.332 44.336 Q 119.629 39.16 123.633 33.106 L 127.246 35.84 Q 123.34 42.188 118.799 47.608 Q 114.258 53.027 108.154 58.35 Q 102.051 63.672 93.896 69.287 Q 85.742 74.902 74.512 81.641 Q 65.234 104.395 56.641 119.287 Q 48.047 134.18 40.381 142.871 Q 32.715 151.563 26.123 155.078 Q 19.531 158.594 14.258 158.594 Q 12.109 158.594 9.619 158.057 Q 7.129 157.52 4.98 155.957 Q 2.832 154.395 1.416 151.66 Q 0 148.926 0 144.629 Q 0 136.426 4.346 128.418 Q 8.691 120.41 16.943 112.5 Q 25.195 104.59 37.158 96.777 Q 49.121 88.965 64.258 81.055 Q 66.113 76.856 67.676 73.096 Q 69.238 69.336 70.605 66.211 Q 65.527 69.629 60.107 71.729 Q 54.688 73.828 49.707 73.828 Q 45.996 73.828 42.285 72.754 Q 38.574 71.68 35.547 69.19 Q 32.52 66.699 30.615 62.598 Q 28.711 58.496 28.711 52.442 Q 28.711 45.117 31.348 38.379 Q 33.984 31.641 38.379 25.83 Q 42.773 20.02 48.438 15.234 Q 54.102 10.449 60.107 7.08 Q 66.113 3.711 72.07 1.856 Q 78.027 0 82.91 0 Q 87.695 0 91.064 1.026 Q 94.434 2.051 96.777 3.565 Q 99.121 5.078 100.488 6.836 Q 101.855 8.594 102.734 10.156 Z M 75.684 55.469 Q 78.32 50.488 80.908 45.654 Q 83.496 40.82 86.279 35.986 Q 89.063 31.152 92.236 26.074 Q 95.41 20.996 99.316 15.527 Q 99.121 14.063 98.34 12.5 Q 97.559 10.938 96.191 9.619 Q 94.824 8.301 92.676 7.422 Q 90.527 6.543 87.598 6.543 Q 84.277 6.543 80.029 7.422 Q 75.781 8.301 71.094 10.449 Q 66.406 12.598 61.572 16.211 Q 56.738 19.824 52.148 25.293 Q 45.41 33.301 41.797 41.26 Q 38.184 49.219 38.184 55.762 Q 38.184 62.109 41.406 65.381 Q 44.629 68.652 50.195 68.652 Q 56.055 68.652 62.646 65.039 Q 69.238 61.426 75.684 55.469 Z M 14.258 153.613 Q 17.969 153.613 21.973 150.879 Q 25.977 148.145 30.078 143.408 Q 34.18 138.672 38.184 132.422 Q 42.188 126.172 46.094 119.092 Q 50 112.012 53.564 104.59 Q 57.129 97.168 60.352 90.039 Q 45.801 97.656 35.498 105.908 Q 25.195 114.16 18.652 121.68 Q 12.109 129.199 9.131 135.254 Q 6.152 141.309 6.152 144.531 Q 6.152 148.535 7.91 151.074 Q 9.668 153.613 14.258 153.613 Z" id="0" vector-effect="non-scaling-stroke"/></g></svg>