<svg width="102.441" height="151.172" viewBox="0 0 102.441 151.172" xmlns="http://www.w3.org/2000/svg"><g id="svgGroup" stroke-linecap="round" fill-rule="evenodd" font-size="9pt" stroke="#000" stroke-width="0.25mm" fill="#000" style="stroke:#000;stroke-width:0.25mm;fill:#000"><path d="M 40.234 83.399 L 28.32 109.473 Q 33.496 102.442 39.063 96.534 Q 44.629 90.625 50.293 86.328 Q 55.957 82.032 61.475 79.639 Q 66.992 77.246 72.168 77.246 Q 75.684 77.246 77.979 78.321 Q 80.273 79.395 81.592 81.104 Q 82.91 82.813 83.447 84.864 Q 83.984 86.914 83.984 88.965 Q 83.984 92.481 82.52 96.534 Q 81.055 100.586 78.857 104.981 Q 76.66 109.375 74.121 113.965 Q 71.582 118.555 69.385 122.95 Q 67.188 127.344 65.723 131.495 Q 64.258 135.645 64.258 139.258 Q 64.258 141.504 65.283 143.409 Q 66.309 145.313 68.945 145.313 Q 72.07 145.313 75.879 142.139 Q 79.688 138.965 83.643 134.034 Q 87.598 129.102 91.553 123.047 Q 95.508 116.993 98.926 111.231 L 102.441 113.965 Q 101.367 115.43 99.512 118.702 Q 97.656 121.973 95.166 126.026 Q 92.676 130.078 89.6 134.375 Q 86.523 138.672 83.057 142.237 Q 79.59 145.801 75.781 148.096 Q 71.973 150.391 68.066 150.391 Q 65.527 150.391 62.988 149.805 Q 60.449 149.219 58.398 147.657 Q 56.348 146.094 55.078 143.409 Q 53.809 140.723 53.809 136.621 Q 53.809 131.836 55.42 126.905 Q 57.031 121.973 59.424 117.139 Q 61.816 112.305 64.648 107.764 Q 67.48 103.223 69.873 99.219 Q 72.266 95.215 73.877 91.944 Q 75.488 88.672 75.488 86.426 Q 75.488 82.422 71.582 82.422 Q 66.016 82.422 59.814 86.084 Q 53.613 89.746 47.363 95.606 Q 41.113 101.465 35.059 108.741 Q 29.004 116.016 23.73 123.243 L 8.887 151.172 L 0 147.657 Q 12.402 120.606 23.877 94.19 Q 35.352 67.774 47.461 41.993 Q 49.316 37.989 51.807 33.301 Q 54.297 28.614 57.178 23.926 Q 60.059 19.239 63.379 14.942 Q 66.699 10.645 70.215 7.325 Q 73.73 4.004 77.49 2.002 Q 81.25 0 85.059 0 Q 89.355 0 91.748 2.393 Q 94.141 4.786 94.141 9.18 Q 94.141 13.77 91.699 19.58 Q 89.258 25.391 85.156 31.836 Q 81.055 38.282 75.635 45.118 Q 70.215 51.953 64.209 58.692 Q 58.203 65.43 52.051 71.729 Q 45.898 78.028 40.234 83.399 Z M 85.547 5.176 Q 81.152 5.176 77.49 8.545 Q 73.828 11.914 69.531 19.629 Q 65.234 27.344 59.668 39.746 Q 54.102 52.149 46.094 70.215 Q 56.836 59.766 64.893 49.952 Q 72.949 40.137 78.32 32.032 Q 83.691 23.926 86.377 17.92 Q 89.063 11.914 89.063 8.985 Q 89.063 7.227 88.086 6.202 Q 87.109 5.176 85.547 5.176 Z" id="0" vector-effect="non-scaling-stroke"/></g></svg>