<svg width="51.66" height="90.821" viewBox="0 0 51.66 90.821" xmlns="http://www.w3.org/2000/svg"><g id="svgGroup" stroke-linecap="round" fill-rule="evenodd" font-size="9pt" stroke="#000" stroke-width="0.25mm" fill="#000" style="stroke:#000;stroke-width:0.25mm;fill:#000"><path d="M 30.274 25.293 L 33.399 26.66 Q 32.129 29.2 29.834 33.35 Q 27.539 37.5 24.903 42.432 Q 22.266 47.364 19.531 52.784 Q 16.797 58.203 14.6 63.33 Q 12.403 68.457 11.035 72.95 Q 9.668 77.442 9.668 80.567 Q 9.668 83.399 10.84 84.424 Q 12.012 85.45 14.16 85.45 Q 18.164 85.45 21.973 82.813 Q 25.781 80.176 29.541 75.928 Q 33.301 71.68 36.914 66.211 Q 40.528 60.742 44.141 55.176 L 47.656 57.91 Q 44.824 62.989 41.26 68.75 Q 37.695 74.512 33.301 79.444 Q 28.906 84.375 23.633 87.598 Q 18.36 90.821 12.11 90.821 Q 6.25 90.821 3.125 87.305 Q 0 83.789 0 78.223 Q 0 71.68 3.028 64.551 Q 6.055 57.422 10.596 50.44 Q 15.137 43.457 20.459 37.012 Q 25.781 30.567 30.274 25.293 Z M 51.66 4.981 Q 51.66 6.934 50.684 9.034 Q 49.707 11.133 48.194 12.793 Q 46.68 14.453 44.824 15.528 Q 42.969 16.602 41.113 16.602 Q 39.453 16.602 38.574 15.381 Q 37.695 14.16 37.695 12.403 Q 37.695 10.84 38.281 8.692 Q 38.867 6.543 40.039 4.639 Q 41.211 2.735 42.871 1.367 Q 44.531 0 46.68 0 Q 48.731 0 50.195 1.563 Q 51.66 3.125 51.66 4.981 Z" id="0" vector-effect="non-scaling-stroke"/></g></svg>