<svg width="121.582" height="175.391" viewBox="0 0 121.582 175.391" xmlns="http://www.w3.org/2000/svg"><g id="svgGroup" stroke-linecap="round" fill-rule="evenodd" font-size="9pt" stroke="#000" stroke-width="0.25mm" fill="#000" style="stroke:#000;stroke-width:0.25mm;fill:#000"><path d="M 102.734 25.293 L 106.055 26.954 Q 102.246 33.887 98.145 42.139 Q 94.043 50.391 89.893 59.278 Q 85.742 68.164 81.592 77.344 Q 77.441 86.524 73.438 95.313 Q 82.617 90.235 89.6 85.157 Q 96.582 80.079 101.855 75.049 Q 107.129 70.02 111.035 65.039 Q 114.941 60.059 118.066 55.176 L 121.582 57.911 Q 117.188 64.551 112.158 70.459 Q 107.129 76.368 100.879 81.934 Q 94.629 87.5 86.865 92.969 Q 79.102 98.438 69.434 104.2 Q 65.918 111.914 62.695 118.702 Q 59.473 125.489 56.641 130.957 Q 51.758 140.235 45.898 148.34 Q 40.039 156.446 33.936 162.452 Q 27.832 168.457 21.875 171.924 Q 15.918 175.391 10.84 175.391 Q 8.789 175.391 6.885 174.707 Q 4.98 174.024 3.418 172.657 Q 1.855 171.289 0.928 169.092 Q 0 166.895 0 163.77 Q 0 155.567 3.955 147.559 Q 7.91 139.551 15.381 131.885 Q 22.852 124.219 33.74 116.944 Q 44.629 109.668 58.496 103.028 Q 61.719 96.387 64.453 90.625 Q 67.188 84.864 70.02 79.297 Q 72.852 73.731 75.928 68.116 Q 79.004 62.5 82.861 56.055 Q 86.719 49.61 91.553 42.09 Q 96.387 34.571 102.734 25.293 Z M 53.613 113.184 L 49.414 115.43 Q 39.258 120.899 31.104 127.588 Q 22.949 134.278 17.285 141.016 Q 11.621 147.754 8.594 153.907 Q 5.566 160.059 5.566 164.258 Q 5.566 166.797 6.885 168.506 Q 8.203 170.215 11.133 170.215 Q 16.211 170.215 21.143 166.114 Q 26.074 162.012 31.201 154.493 Q 36.328 146.973 41.846 136.475 Q 47.363 125.977 53.613 113.184 Z M 119.629 10.059 Q 117.676 12.891 115.332 14.746 Q 112.988 16.602 110.938 16.602 Q 109.277 16.602 108.398 15.381 Q 107.52 14.161 107.52 12.5 Q 107.52 10.938 108.203 8.789 Q 108.887 6.641 110.107 4.688 Q 111.328 2.735 112.988 1.368 Q 114.648 0 116.504 0 Q 118.652 0 120.068 1.563 Q 121.484 3.125 121.484 4.883 Q 121.484 7.325 119.629 10.059 Z" id="0" vector-effect="non-scaling-stroke"/></g></svg>