<svg width="102.637" height="151.075" viewBox="0 0 102.637 151.075" xmlns="http://www.w3.org/2000/svg"><g id="svgGroup" stroke-linecap="round" fill-rule="evenodd" font-size="9pt" stroke="#000" stroke-width="0.25mm" fill="#000" style="stroke:#000;stroke-width:0.25mm;fill:#000"><path d="M 39.258 84.864 L 26.465 113.379 Q 31.543 106.348 37.256 99.854 Q 42.969 93.36 48.828 88.33 Q 54.688 83.301 60.645 80.274 Q 66.602 77.246 72.266 77.246 Q 75.781 77.246 78.027 78.321 Q 80.273 79.395 81.592 81.055 Q 82.91 82.715 83.447 84.815 Q 83.984 86.914 83.984 88.965 Q 83.984 91.895 82.861 95.313 Q 81.738 98.731 79.443 102.198 Q 77.148 105.664 73.633 108.838 Q 70.117 112.012 65.234 114.551 Q 66.309 117.09 66.309 120.703 Q 66.309 122.95 65.723 125.244 Q 65.137 127.539 64.453 129.786 Q 63.77 132.032 63.184 134.327 Q 62.598 136.621 62.598 138.965 Q 62.598 140.137 62.744 141.211 Q 62.891 142.286 63.33 143.164 Q 63.77 144.043 64.697 144.58 Q 65.625 145.118 67.285 145.118 Q 69.238 145.118 71.777 143.506 Q 74.316 141.895 77.148 139.258 Q 79.98 136.621 82.959 133.155 Q 85.938 129.688 88.77 125.879 Q 91.602 122.071 94.238 118.311 Q 96.875 114.551 99.023 111.231 L 102.637 113.965 Q 97.656 121.387 92.92 128.125 Q 88.184 134.864 83.447 139.942 Q 78.711 145.02 73.828 148.047 Q 68.945 151.075 63.77 151.075 Q 61.719 151.075 59.521 150.489 Q 57.324 149.903 55.518 148.584 Q 53.711 147.266 52.539 145.118 Q 51.367 142.969 51.367 139.844 Q 51.367 136.133 53.223 131.153 Q 54.883 126.465 55.664 123.291 Q 56.445 120.118 56.543 117.969 Q 54.492 118.457 52.197 118.848 Q 49.902 119.239 47.852 119.239 Q 46.777 119.239 45.508 118.994 Q 44.238 118.75 43.164 118.164 Q 42.09 117.578 41.357 116.651 Q 40.625 115.723 40.625 114.258 Q 40.625 112.793 41.553 111.475 Q 42.48 110.157 44.092 109.131 Q 45.703 108.106 47.949 107.52 Q 50.195 106.934 52.93 106.934 Q 58.008 106.934 61.621 109.668 Q 65.137 106.934 67.432 103.711 Q 69.727 100.489 70.996 97.461 Q 72.266 94.434 72.754 92.041 Q 73.242 89.649 73.242 88.477 Q 73.242 85.254 72.07 84.034 Q 70.898 82.813 69.238 82.813 Q 66.113 82.813 62.256 84.864 Q 58.398 86.914 54.248 90.43 Q 50.098 93.946 45.752 98.536 Q 41.406 103.125 37.256 108.203 Q 33.105 113.282 29.248 118.457 Q 25.391 123.633 22.168 128.223 Q 19.238 133.106 16.943 137.305 Q 14.648 141.504 13.086 144.532 Q 11.523 147.559 10.645 149.121 Q 9.766 150.684 9.668 150.196 L 0 147.657 Q 11.523 121.387 23.34 95.118 Q 35.156 68.848 48.242 41.993 Q 50.195 38.086 52.686 33.448 Q 55.176 28.809 58.057 24.17 Q 60.938 19.532 64.209 15.137 Q 67.48 10.743 70.947 7.373 Q 74.414 4.004 78.027 2.002 Q 81.641 0 85.254 0 Q 89.063 0 91.455 2.149 Q 93.848 4.297 93.848 8.985 Q 93.848 15.43 90.381 24.659 Q 86.914 33.887 80.078 44.239 Q 73.242 54.59 63.037 65.186 Q 52.832 75.782 39.258 84.864 Z M 43.555 75.489 Q 55.371 66.309 63.916 56.592 Q 72.461 46.875 77.979 37.891 Q 83.496 28.907 86.084 21.241 Q 88.672 13.575 88.672 8.399 Q 88.672 6.934 87.891 6.055 Q 87.109 5.176 85.449 5.176 Q 81.836 5.176 78.027 8.741 Q 74.219 12.305 69.385 20.508 Q 64.551 28.711 58.301 42.188 Q 52.051 55.664 43.555 75.489 Z M 56.055 113.575 Q 55.566 112.5 54.443 111.67 Q 53.32 110.84 51.953 110.84 Q 49.121 110.84 46.973 112.012 Q 44.824 113.184 44.824 114.258 Q 44.824 115.039 45.752 115.284 Q 46.68 115.528 47.461 115.528 Q 50 115.528 52.148 114.942 Q 54.297 114.356 56.055 113.575 Z" id="0" vector-effect="non-scaling-stroke"/></g></svg>