<svg width="79.004" height="142.774" viewBox="0 0 79.004 142.774" xmlns="http://www.w3.org/2000/svg"><g id="svgGroup" stroke-linecap="round" fill-rule="evenodd" font-size="9pt" stroke="#000" stroke-width="0.25mm" fill="#000" style="stroke:#000;stroke-width:0.25mm;fill:#000"><path d="M 55.176 105.664 L 58.789 108.399 Q 58.496 108.789 56.885 111.475 Q 55.273 114.16 52.637 117.969 Q 50 121.778 46.387 126.123 Q 42.773 130.469 38.574 134.18 Q 34.375 137.891 29.736 140.332 Q 25.098 142.774 20.313 142.774 Q 16.309 142.774 12.646 141.26 Q 8.984 139.746 6.201 136.475 Q 3.418 133.203 1.709 128.125 Q 0 123.047 0 115.918 Q 0 107.032 2.1 97.315 Q 4.199 87.598 7.813 77.783 Q 11.426 67.969 16.309 58.399 Q 21.191 48.828 26.709 40.186 Q 32.227 31.543 38.232 24.17 Q 44.238 16.797 50.049 11.426 Q 55.859 6.055 61.23 3.028 Q 66.602 0 70.996 0 Q 74.414 0 76.709 1.66 Q 79.004 3.321 79.004 7.715 Q 79.004 10.742 77.783 14.942 Q 76.563 19.141 74.463 24.073 Q 72.363 29.004 69.531 34.424 Q 66.699 39.844 63.428 45.215 Q 60.156 50.586 56.592 55.664 Q 53.027 60.742 49.512 65.039 Q 42.48 73.731 37.354 79.688 Q 32.227 85.645 28.516 89.795 Q 24.805 93.946 22.266 96.533 Q 19.727 99.121 17.773 100.977 Q 15.82 102.832 14.16 104.346 Q 12.5 105.86 10.742 107.715 Q 9.961 111.426 10.01 114.795 Q 10.059 118.164 10.059 120.996 Q 10.059 129.492 12.793 133.594 Q 15.527 137.696 20.508 137.696 Q 23.828 137.696 27.197 135.987 Q 30.566 134.278 33.887 131.543 Q 37.207 128.809 40.332 125.342 Q 43.457 121.875 46.24 118.311 Q 49.023 114.746 51.27 111.426 Q 53.516 108.106 55.176 105.664 Z M 12.5 99.024 Q 20.801 90.43 28.564 81.592 Q 36.328 72.754 43.115 64.112 Q 49.902 55.469 55.566 47.315 Q 61.23 39.16 65.234 31.934 Q 69.238 24.707 71.484 18.75 Q 73.73 12.793 73.73 8.496 Q 73.73 7.715 72.949 6.397 Q 72.168 5.078 71.094 5.078 Q 68.066 5.078 63.086 9.082 Q 58.105 13.086 52.295 19.971 Q 46.484 26.856 40.283 36.035 Q 34.082 45.215 28.613 55.664 Q 23.145 66.114 18.848 77.246 Q 14.551 88.379 12.5 99.024 Z" id="0" vector-effect="non-scaling-stroke"/></g></svg>