<svg width="104.883" height="78.125" viewBox="0 0 104.883 78.125" xmlns="http://www.w3.org/2000/svg"><g id="svgGroup" stroke-linecap="round" fill-rule="evenodd" font-size="9pt" stroke="#000" stroke-width="0.25mm" fill="#000" style="stroke:#000;stroke-width:0.25mm;fill:#000"><path d="M 101.367 35.352 L 104.883 38.086 Q 104.102 39.258 102.051 42.725 Q 100 46.191 96.973 50.635 Q 93.945 55.078 90.186 59.912 Q 86.426 64.746 82.129 68.799 Q 77.832 72.852 73.291 75.488 Q 68.75 78.125 64.16 78.125 Q 61.523 78.125 59.375 77.246 Q 57.227 76.367 55.713 74.805 Q 54.199 73.242 53.32 71.143 Q 52.441 69.043 52.441 66.699 Q 52.441 62.891 54.15 58.447 Q 55.859 54.004 58.398 49.316 Q 60.938 44.629 63.965 39.893 Q 66.992 35.156 69.531 30.859 Q 72.07 26.563 73.779 22.9 Q 75.488 19.238 75.488 16.602 Q 75.488 13.574 73.877 11.523 Q 72.266 9.473 69.336 9.473 Q 66.211 9.473 62.109 12.061 Q 58.008 14.648 52.93 19.629 Q 47.852 24.609 41.846 31.885 Q 35.84 39.16 28.809 48.438 Q 24.805 53.809 20.996 58.789 Q 19.336 60.938 17.676 63.184 Q 16.016 65.43 14.355 67.627 Q 12.695 69.824 11.23 71.826 Q 9.766 73.828 8.594 75.293 L 0 71.777 L 11.426 56.055 Q 13.867 52.734 16.406 48.926 Q 18.945 45.117 21.436 41.064 Q 23.926 37.012 26.172 32.91 Q 28.418 28.809 30.371 24.902 Q 33.203 19.043 34.277 15.186 Q 35.352 11.328 35.352 8.984 Q 35.352 6.348 34.375 5.518 Q 33.398 4.688 31.641 4.688 Q 29.785 4.688 27.393 6.592 Q 25 8.496 22.461 11.475 Q 19.922 14.453 17.334 18.213 Q 14.746 21.973 12.402 25.684 Q 10.059 29.395 8.008 32.715 Q 5.957 36.035 4.59 38.086 L 1.074 35.352 Q 6.055 27.539 10.107 21.045 Q 14.16 14.551 17.92 9.863 Q 21.68 5.176 25.244 2.588 Q 28.809 0 32.813 0 Q 34.961 0 36.963 0.879 Q 38.965 1.758 40.479 3.467 Q 41.992 5.176 42.871 7.617 Q 43.75 10.059 43.75 13.281 Q 43.75 15.82 43.164 18.555 Q 47.461 14.355 51.172 11.621 Q 54.883 8.887 58.008 7.275 Q 61.133 5.664 63.77 4.98 Q 66.406 4.297 68.555 4.297 Q 70.41 4.297 72.852 4.98 Q 75.293 5.664 77.441 7.52 Q 79.59 9.375 81.104 12.646 Q 82.617 15.918 82.617 21.094 Q 82.617 25.293 81.152 29.639 Q 79.688 33.984 77.441 38.33 Q 75.195 42.676 72.656 46.875 Q 70.117 51.074 67.871 54.98 Q 65.625 58.887 64.16 62.451 Q 62.695 66.016 62.695 68.945 Q 62.695 71.191 63.672 71.973 Q 64.648 72.754 65.82 72.754 Q 69.531 72.754 74.121 69.092 Q 78.711 65.43 83.447 59.863 Q 88.184 54.297 92.871 47.754 Q 97.559 41.211 101.367 35.352 Z" id="0" vector-effect="non-scaling-stroke"/></g></svg>