<svg width="81.348" height="75.684" viewBox="0 0 81.348 75.684" xmlns="http://www.w3.org/2000/svg"><g id="svgGroup" stroke-linecap="round" fill-rule="evenodd" font-size="9pt" stroke="#000" stroke-width="0.25mm" fill="#000" style="stroke:#000;stroke-width:0.25mm;fill:#000"><path d="M 77.832 35.45 L 81.348 38.184 Q 76.66 44.825 71.68 47.461 Q 66.699 50.098 61.133 50.098 Q 59.082 50.098 57.52 49.707 Q 53.32 56.739 48.535 61.67 Q 43.75 66.602 38.77 69.727 Q 33.789 72.852 28.906 74.268 Q 24.024 75.684 19.824 75.684 Q 15.527 75.684 11.865 74.17 Q 8.203 72.657 5.566 69.825 Q 2.93 66.993 1.465 63.086 Q 0 59.18 0 54.297 Q 0 49.414 1.563 44.336 Q 3.125 39.258 5.811 34.278 Q 8.496 29.297 12.109 24.659 Q 15.723 20.02 19.922 16.016 Q 24.121 12.012 28.613 8.789 Q 33.106 5.567 37.598 3.516 L 40.723 7.618 Q 35.547 11.328 30.225 16.993 Q 24.902 22.657 20.557 29.395 Q 16.211 36.133 13.428 43.409 Q 10.645 50.684 10.645 57.52 Q 10.645 63.672 13.379 67.041 Q 16.113 70.411 21.68 70.411 Q 25.977 70.411 30.176 68.653 Q 34.375 66.895 38.379 63.868 Q 42.383 60.84 46.094 56.69 Q 49.805 52.539 53.125 47.852 Q 50.293 46.192 48.145 43.409 Q 45.996 40.625 44.531 37.061 Q 43.066 33.496 42.334 29.395 Q 41.602 25.293 41.602 20.996 Q 41.602 16.7 42.676 12.891 Q 43.75 9.082 45.654 6.202 Q 47.559 3.321 50.098 1.661 Q 52.637 0 55.664 0 Q 58.399 0 60.547 1.416 Q 62.695 2.832 64.16 5.323 Q 65.625 7.813 66.406 11.231 Q 67.188 14.649 67.188 18.555 Q 67.188 21.485 66.699 25 Q 66.211 28.516 65.283 32.08 Q 64.356 35.645 63.037 39.112 Q 61.719 42.578 59.961 45.313 Q 60.352 45.411 60.742 45.411 L 61.621 45.411 Q 64.356 45.411 66.602 44.873 Q 68.848 44.336 70.752 43.164 Q 72.656 41.993 74.414 40.088 Q 76.172 38.184 77.832 35.45 Z M 46.68 20.996 Q 46.68 23.828 47.168 27.149 Q 47.656 30.469 48.731 33.594 Q 49.805 36.719 51.465 39.405 Q 53.125 42.09 55.566 43.653 Q 57.324 40.235 58.545 36.67 Q 59.766 33.106 60.596 29.786 Q 61.426 26.465 61.768 23.584 Q 62.109 20.703 62.109 18.555 Q 62.109 15.625 61.621 13.184 Q 61.133 10.743 60.303 8.936 Q 59.473 7.129 58.252 6.104 Q 57.031 5.078 55.566 5.078 Q 53.613 5.078 51.953 6.397 Q 50.293 7.715 49.121 9.912 Q 47.949 12.11 47.315 14.991 Q 46.68 17.871 46.68 20.996 Z" id="0" vector-effect="non-scaling-stroke"/></g></svg>