<svg width="133.496" height="151.172" viewBox="0 0 133.496 151.172" xmlns="http://www.w3.org/2000/svg"><g id="svgGroup" stroke-linecap="round" fill-rule="evenodd" font-size="9pt" stroke="#000" stroke-width="0.25mm" fill="#000" style="stroke:#000;stroke-width:0.25mm;fill:#000"><path d="M 81.152 0 L 84.57 1.367 L 62.402 45.898 Q 68.262 38.379 74.707 31.885 Q 81.152 25.391 87.891 21.289 Q 92.871 18.359 96.68 17.236 Q 100.488 16.113 103.906 16.113 Q 107.227 16.113 109.375 17.188 Q 111.523 18.262 112.793 20.02 Q 114.063 21.777 114.551 23.877 Q 115.039 25.977 115.039 28.027 Q 115.039 32.617 113.477 37.109 Q 111.914 41.602 109.619 45.996 Q 107.324 50.391 104.59 54.639 Q 101.855 58.887 99.561 62.939 Q 97.266 66.992 95.703 70.898 Q 94.141 74.805 94.141 78.418 Q 94.141 80.176 94.58 81.299 Q 95.02 82.422 95.752 83.057 Q 96.484 83.691 97.363 83.887 Q 98.242 84.082 99.121 84.082 Q 100.977 84.082 103.467 82.373 Q 105.957 80.664 108.789 77.881 Q 111.621 75.098 114.6 71.533 Q 117.578 67.969 120.361 64.209 Q 123.145 60.449 125.586 56.787 Q 128.027 53.125 129.883 50.098 L 133.496 52.832 Q 132.422 54.98 130.322 58.496 Q 128.223 62.012 125.391 66.064 Q 122.559 70.117 119.189 74.17 Q 115.82 78.223 112.109 81.543 Q 108.398 84.863 104.541 86.963 Q 100.684 89.063 96.973 89.063 Q 94.434 89.063 92.09 88.281 Q 89.746 87.5 87.988 85.889 Q 86.23 84.277 85.156 81.738 Q 84.082 79.199 84.082 75.684 Q 84.082 71.484 85.791 66.016 Q 87.5 60.547 92.383 53.516 Q 96.387 47.754 99.316 43.896 Q 102.246 40.039 104.15 37.158 Q 106.055 34.277 106.934 31.885 Q 107.813 29.492 107.813 26.563 Q 107.813 24.023 106.348 22.656 Q 104.883 21.289 103.027 21.289 Q 98.047 21.289 92.773 24.121 Q 87.5 26.953 82.324 31.592 Q 77.148 36.23 72.168 42.188 Q 67.188 48.145 62.744 54.346 Q 58.301 60.547 54.541 66.504 Q 50.781 72.461 48.047 77.197 Q 45.313 81.934 43.799 84.814 Q 42.285 87.695 42.188 87.793 Q 38.086 96.191 34.18 104.053 Q 30.273 111.914 26.807 118.945 Q 23.34 125.977 20.41 131.787 Q 17.48 137.598 15.332 141.895 L 11.963 148.633 Q 10.742 151.074 10.645 151.172 L 0 145.117 Q 8.008 129.98 14.453 117.773 Q 20.898 105.566 26.758 94.775 Q 32.617 83.984 38.281 73.828 Q 43.945 63.672 50.293 52.588 Q 56.641 41.504 64.111 28.76 Q 71.582 16.016 81.152 0 Z" id="0" vector-effect="non-scaling-stroke"/></g></svg>