<svg width="99.609" height="154.981" viewBox="0 0 99.609 154.981" xmlns="http://www.w3.org/2000/svg"><g id="svgGroup" stroke-linecap="round" fill-rule="evenodd" font-size="9pt" stroke="#000" stroke-width="0.25mm" fill="#000" style="stroke:#000;stroke-width:0.25mm;fill:#000"><path d="M 79.98 4.492 L 83.398 5.957 Q 83.301 6.055 82.129 8.643 Q 80.957 11.231 78.906 15.576 Q 76.855 19.922 74.072 25.83 Q 71.289 31.738 68.164 38.477 Q 65.039 45.215 61.621 52.539 Q 58.203 59.863 54.883 67.09 Q 55.078 66.992 57.275 65.918 Q 59.473 64.844 62.842 62.793 Q 66.211 60.742 70.508 57.764 Q 74.805 54.785 79.346 51.026 Q 83.887 47.266 88.232 42.676 Q 92.578 38.086 96.094 32.813 L 99.609 35.547 Q 94.238 43.75 88.135 49.854 Q 82.031 55.957 76.367 60.254 Q 70.703 64.551 66.113 67.139 Q 61.523 69.727 59.18 70.801 Q 59.375 73.633 59.521 76.563 Q 59.668 79.492 59.668 82.422 Q 59.668 91.309 58.643 100.147 Q 57.617 108.985 55.713 117.041 Q 53.809 125.098 51.172 132.031 Q 48.535 138.965 45.313 144.043 Q 42.09 149.121 38.379 152.051 Q 34.668 154.981 30.664 154.981 Q 26.27 154.981 23.242 153.467 Q 20.215 151.953 18.311 149.463 Q 16.406 146.973 15.527 143.701 Q 14.648 140.43 14.648 136.914 Q 14.648 131.25 16.699 124.268 Q 18.75 117.285 22.559 108.545 Q 26.367 99.805 31.689 88.965 Q 37.012 78.125 43.555 64.746 Q 38.281 68.848 32.764 71.192 Q 27.246 73.535 21.094 73.535 Q 17.969 73.535 14.307 72.461 Q 10.645 71.387 7.471 68.994 Q 4.297 66.602 2.148 62.793 Q 0 58.985 0 53.418 Q 0 47.461 2.148 41.211 Q 4.297 34.961 8.057 29.004 Q 11.816 23.047 16.992 17.774 Q 22.168 12.5 28.271 8.545 Q 34.375 4.59 41.113 2.295 Q 47.852 0 54.785 0 Q 60.254 0 63.916 1.026 Q 67.578 2.051 69.971 3.662 Q 72.363 5.274 73.682 7.227 Q 75 9.18 75.879 11.035 Q 76.855 9.473 77.979 7.666 Q 79.102 5.86 79.98 4.492 Z M 71.973 16.113 Q 71.68 14.356 71.045 12.598 Q 70.41 10.84 69.092 9.424 Q 67.773 8.008 65.576 7.129 Q 63.379 6.25 59.863 6.25 Q 54.102 6.25 48.193 8.35 Q 42.285 10.449 36.816 14.111 Q 31.348 17.774 26.563 22.608 Q 21.777 27.442 18.262 32.91 Q 14.746 38.379 12.695 44.19 Q 10.645 50 10.645 55.567 Q 10.645 61.719 13.672 65.039 Q 16.699 68.36 22.363 68.36 Q 28.516 68.36 35.449 64.893 Q 42.383 61.426 49.121 54.785 Q 54.785 45.117 60.498 35.303 Q 66.211 25.488 71.973 16.113 Z M 53.906 69.238 Q 48.828 79.785 43.896 89.893 Q 38.965 100 34.668 108.594 Q 29.688 118.36 27.148 126.66 Q 24.609 134.961 24.609 140.625 Q 24.609 142.383 24.902 143.994 Q 25.195 145.606 25.83 146.924 Q 26.465 148.242 27.49 149.024 Q 28.516 149.805 29.98 149.805 Q 33.105 149.805 36.133 146.533 Q 39.16 143.262 41.846 137.793 Q 44.531 132.324 46.875 125.147 Q 49.219 117.969 50.879 110.156 Q 52.539 102.344 53.516 94.434 Q 54.492 86.524 54.492 79.492 Q 54.492 76.953 54.297 74.463 Q 54.102 71.973 53.906 69.238 Z" id="0" vector-effect="non-scaling-stroke"/></g></svg>