<svg width="68.945" height="84.473" viewBox="0 0 68.945 84.473" xmlns="http://www.w3.org/2000/svg"><g id="svgGroup" stroke-linecap="round" fill-rule="evenodd" font-size="9pt" stroke="#000" stroke-width="0.25mm" fill="#000" style="stroke:#000;stroke-width:0.25mm;fill:#000"><path d="M 65.625 43.457 L 68.945 46.387 Q 64.746 53.32 59.424 60.107 Q 54.102 66.895 47.754 72.314 Q 41.406 77.734 34.082 81.104 Q 26.758 84.473 18.555 84.473 Q 11.23 84.473 6.201 81.006 Q 1.172 77.539 0 70.605 L 3.516 69.922 Q 3.516 70.508 4.053 71.826 Q 4.59 73.145 5.762 74.414 Q 6.934 75.684 8.936 76.66 Q 10.938 77.637 13.867 77.637 Q 17.773 77.637 20.801 75.83 Q 23.828 74.023 26.074 71.094 Q 28.32 68.164 29.883 64.404 Q 31.445 60.645 32.373 56.641 Q 33.301 52.637 33.691 48.828 Q 34.082 45.02 34.082 41.895 Q 34.082 38.77 33.838 34.961 Q 33.594 31.152 33.301 27.686 Q 33.008 24.219 32.764 21.631 Q 32.52 19.043 32.52 18.262 L 32.52 18.066 Q 31.25 19.434 29.492 22.07 Q 27.734 24.707 25.732 27.832 Q 23.73 30.957 21.729 34.18 Q 19.727 37.402 18.115 40.039 Q 16.504 42.676 15.479 44.385 Q 14.453 46.094 14.453 46.191 L 10.938 43.457 Q 11.035 43.359 13.379 39.258 Q 15.723 35.156 19.58 28.857 Q 23.438 22.559 28.32 14.893 Q 33.203 7.227 38.379 0 L 42.285 3.223 Q 41.797 4.102 41.016 5.127 Q 40.234 6.152 39.502 7.471 Q 38.77 8.789 38.232 10.547 Q 37.695 12.305 37.695 14.746 Q 37.695 16.797 38.721 20.313 Q 39.746 23.828 40.918 28.369 Q 42.09 32.91 43.115 38.232 Q 44.141 43.555 44.141 49.219 Q 44.141 57.52 41.895 63.867 Q 39.648 70.215 35.938 74.707 Q 43.555 70.605 50.879 62.939 Q 58.203 55.273 65.625 43.457 Z" id="0" vector-effect="non-scaling-stroke"/></g></svg>