<svg width="65.82" height="116.602" viewBox="0 0 65.82 116.602" xmlns="http://www.w3.org/2000/svg"><g id="svgGroup" stroke-linecap="round" fill-rule="evenodd" font-size="9pt" stroke="#000" stroke-width="0.25mm" fill="#000" style="stroke:#000;stroke-width:0.25mm;fill:#000"><path d="M 5.371 33.398 L 22.461 33.398 Q 23.438 31.738 25.928 27.637 Q 28.418 23.535 31.787 18.555 Q 35.156 13.574 39.111 8.545 Q 43.066 3.516 46.875 0 L 51.27 2.637 Q 47.07 9.57 42.676 17.334 Q 38.281 25.098 33.984 33.398 L 65.82 33.398 L 63.867 38.477 L 31.348 38.477 Q 26.953 47.266 23.096 55.957 Q 19.238 64.648 16.309 72.559 Q 13.379 80.469 11.719 87.354 Q 10.059 94.238 10.059 99.316 Q 10.059 105.664 12.988 108.447 Q 15.918 111.23 20.215 111.23 Q 24.023 111.23 28.027 108.936 Q 32.031 106.641 35.889 103.125 Q 39.746 99.609 43.213 95.41 Q 46.68 91.211 49.365 87.5 Q 52.051 83.789 53.809 81.006 Q 55.566 78.223 55.957 77.539 L 59.57 80.273 Q 56.152 85.938 51.855 92.285 Q 47.559 98.633 42.334 104.053 Q 37.109 109.473 30.957 113.037 Q 24.805 116.602 17.676 116.602 Q 13.281 116.602 10.01 115.039 Q 6.738 113.477 4.492 110.693 Q 2.246 107.91 1.123 104.102 Q 0 100.293 0 95.801 Q 0 92.871 0.928 87.5 Q 1.855 82.129 4.102 74.756 Q 6.348 67.383 10.107 58.203 Q 13.867 49.023 19.629 38.477 L 3.418 38.477 L 5.371 33.398 Z" id="0" vector-effect="non-scaling-stroke"/></g></svg>