<svg width="96.094" height="73.438" viewBox="0 0 96.094 73.438" xmlns="http://www.w3.org/2000/svg"><g id="svgGroup" stroke-linecap="round" fill-rule="evenodd" font-size="9pt" stroke="#000" stroke-width="0.25mm" fill="#000" style="stroke:#000;stroke-width:0.25mm;fill:#000"><path d="M 31.055 3.516 L 35.254 6.445 Q 31.738 11.621 27.393 18.164 Q 23.047 24.707 19.19 31.689 Q 15.332 38.672 12.695 45.654 Q 10.059 52.637 10.059 58.594 Q 10.059 62.598 11.572 65.43 Q 13.086 68.262 17.383 68.262 Q 22.07 68.262 27.686 64.551 Q 33.301 60.84 39.209 54.883 Q 45.117 48.926 51.025 41.455 Q 56.934 33.984 62.207 26.367 Q 67.481 18.75 71.826 11.816 Q 76.172 4.883 78.906 0 L 86.035 3.516 Q 80.371 14.648 75.147 24.268 Q 69.922 33.887 65.869 41.553 Q 61.816 49.219 59.424 54.883 Q 57.031 60.547 57.031 63.867 Q 57.031 65.234 57.617 66.113 Q 58.203 66.992 59.473 66.992 Q 63.086 67.09 67.432 63.867 Q 71.777 60.645 76.221 55.762 Q 80.664 50.879 84.912 45.068 Q 89.16 39.258 92.578 34.18 L 96.094 36.914 Q 95.508 37.891 93.652 40.918 Q 91.797 43.945 89.063 47.852 Q 86.328 51.758 82.813 56.055 Q 79.297 60.352 75.391 63.916 Q 71.484 67.48 67.285 69.775 Q 63.086 72.07 58.984 72.07 Q 56.445 72.07 54.443 71.191 Q 52.441 70.313 51.074 68.848 Q 49.707 67.383 48.926 65.43 Q 48.145 63.477 48.145 61.328 Q 48.145 58.789 48.975 55.762 Q 49.805 52.734 51.367 49.316 Q 46.875 54.59 42.481 59.033 Q 38.086 63.477 33.74 66.65 Q 29.395 69.824 25.098 71.631 Q 20.801 73.438 16.406 73.438 Q 12.695 73.438 9.717 72.119 Q 6.738 70.801 4.541 68.408 Q 2.344 66.016 1.172 62.549 Q 0 59.082 0 54.785 Q 0 48.047 2.979 40.918 Q 5.957 33.789 10.498 27.051 Q 15.039 20.313 20.557 14.258 Q 26.074 8.203 31.055 3.516 Z" id="0" vector-effect="non-scaling-stroke"/></g></svg>