<svg width="67.969" height="72.169" viewBox="0 0 67.969 72.169" xmlns="http://www.w3.org/2000/svg"><g id="svgGroup" stroke-linecap="round" fill-rule="evenodd" font-size="9pt" stroke="#000" stroke-width="0.25mm" fill="#000" style="stroke:#000;stroke-width:0.25mm;fill:#000"><path d="M 27.93 0 L 32.227 2.832 Q 26.563 11.426 22.461 19.482 Q 18.359 27.539 15.674 34.668 Q 12.988 41.797 11.67 47.705 Q 10.352 53.613 10.352 57.91 Q 10.352 62.891 11.67 64.99 Q 12.988 67.09 15.43 67.09 Q 17.773 67.09 21.924 65.381 Q 26.074 63.672 31.543 59.863 Q 38.477 54.98 44.775 48.291 Q 51.074 41.602 55.566 33.984 Q 54.004 30.566 53.174 26.855 Q 52.344 23.145 52.344 19.141 Q 52.344 13.965 53.272 10.4 Q 54.199 6.836 55.566 4.639 Q 56.934 2.441 58.545 1.465 Q 60.156 0.488 61.621 0.488 Q 62.891 0.488 64.014 1.025 Q 65.137 1.563 66.016 2.832 Q 66.895 4.102 67.432 6.152 Q 67.969 8.203 67.969 11.23 Q 67.969 18.262 65.186 25.684 Q 62.402 33.105 57.764 40.039 Q 53.125 46.973 47.07 53.125 Q 41.016 59.277 34.57 63.965 Q 32.813 65.234 30.518 66.65 Q 28.223 68.066 25.635 69.287 Q 23.047 70.508 20.264 71.338 Q 17.48 72.168 14.844 72.168 Q 8.301 72.168 4.15 67.236 Q 0 62.305 0 53.418 Q 0 49.316 1.172 44.629 Q 2.344 39.941 4.395 35.01 Q 6.445 30.078 9.18 25.098 Q 11.914 20.117 14.99 15.576 Q 18.066 11.035 21.387 7.031 Q 24.707 3.027 27.93 0 Z M 58.691 29.102 Q 60.645 24.707 61.768 19.971 Q 62.891 15.234 62.891 11.035 Q 62.891 8.105 62.402 6.836 Q 61.914 5.566 61.621 5.371 Q 61.523 5.371 60.84 5.957 Q 60.156 6.543 59.326 8.057 Q 58.496 9.57 57.861 12.256 Q 57.227 14.941 57.227 19.141 Q 57.227 21.582 57.568 24.316 Q 57.91 27.051 58.691 29.102 Z" id="0" vector-effect="non-scaling-stroke"/></g></svg>