<svg width="100.195" height="71.68" viewBox="0 0 100.195 71.68" xmlns="http://www.w3.org/2000/svg"><g id="svgGroup" stroke-linecap="round" fill-rule="evenodd" font-size="9pt" stroke="#000" stroke-width="0.25mm" fill="#000" style="stroke:#000;stroke-width:0.25mm;fill:#000"><path d="M 26.758 3.223 L 30.957 5.957 Q 25.391 14.453 21.484 22.119 Q 17.578 29.785 15.039 36.328 Q 12.5 42.871 11.328 48.242 Q 10.156 53.613 10.156 57.52 Q 10.156 66.504 15.332 66.504 Q 18.457 66.504 22.51 63.379 Q 26.563 60.254 30.762 55.078 Q 34.961 49.902 38.965 43.164 Q 42.969 36.426 45.996 29.199 L 46.094 29.297 Q 48.926 22.266 52.295 15.527 Q 55.664 8.789 59.18 3.223 L 63.574 5.957 Q 61.914 10.547 59.57 17.09 Q 57.227 23.633 55.127 30.811 Q 53.027 37.988 51.514 45.117 Q 50 52.246 50 58.008 Q 50 59.668 50.147 61.182 Q 50.293 62.695 50.684 63.867 Q 51.074 65.039 51.855 65.723 Q 52.637 66.406 53.809 66.406 Q 57.129 66.406 61.377 63.477 Q 65.625 60.547 69.873 55.908 Q 74.121 51.27 77.979 45.654 Q 81.836 40.039 84.473 34.766 Q 80.566 27.539 80.566 18.359 Q 80.566 13.281 81.494 9.766 Q 82.422 6.25 83.789 4.053 Q 85.156 1.855 86.816 0.928 Q 88.477 0 89.844 0 Q 92.383 0 94.287 2.539 Q 96.191 5.078 96.191 11.621 Q 96.191 16.309 94.531 22.314 Q 92.871 28.32 89.941 34.766 Q 91.699 37.305 94.238 38.867 Q 96.777 40.43 100.195 40.527 L 99.316 45.215 Q 95.801 45.02 92.871 43.506 Q 89.941 41.992 87.695 39.453 Q 84.473 45.605 80.225 51.416 Q 75.977 57.227 71.143 61.719 Q 66.309 66.211 61.035 68.945 Q 55.762 71.68 50.391 71.68 Q 48.145 71.68 46.143 70.801 Q 44.141 69.922 42.578 68.164 Q 41.016 66.406 40.137 63.672 Q 39.258 60.938 39.258 57.227 Q 39.258 55.859 39.355 54.297 Q 39.453 52.734 39.746 51.074 Q 36.914 55.469 33.936 59.277 Q 30.957 63.086 27.832 65.82 Q 24.707 68.555 21.338 70.117 Q 17.969 71.68 14.453 71.68 Q 10.645 71.68 7.91 70.361 Q 5.176 69.043 3.418 66.65 Q 1.66 64.258 0.83 61.035 Q 0 57.813 0 54.004 Q 0 47.266 2.197 40.234 Q 4.395 33.203 8.105 26.465 Q 11.816 19.727 16.65 13.77 Q 21.484 7.813 26.758 3.223 Z M 87.207 28.809 Q 89.063 24.414 90.039 19.922 Q 91.016 15.43 91.016 11.133 Q 91.016 7.91 90.527 6.543 Q 90.039 5.176 89.746 4.98 Q 89.648 4.98 89.014 5.518 Q 88.379 6.055 87.598 7.52 Q 86.816 8.984 86.182 11.572 Q 85.547 14.16 85.547 18.262 Q 85.547 21.094 85.986 23.828 Q 86.426 26.563 87.207 28.809 Z" id="0" vector-effect="non-scaling-stroke"/></g></svg>