<svg width="126.465" height="166.993" viewBox="0 0 126.465 166.993" xmlns="http://www.w3.org/2000/svg"><g id="svgGroup" stroke-linecap="round" fill-rule="evenodd" font-size="9pt" stroke="#000" stroke-width="0.25mm" fill="#000" style="stroke:#000;stroke-width:0.25mm;fill:#000"><path d="M 59.375 10.742 L 63.574 13.672 Q 62.402 15.332 60.352 18.262 Q 58.301 21.191 55.957 25.049 Q 53.613 28.906 51.221 33.398 Q 48.828 37.891 46.875 42.578 Q 44.922 47.266 43.701 51.953 Q 42.48 56.641 42.48 60.742 Q 42.48 62.695 42.822 64.502 Q 43.164 66.309 43.994 67.676 Q 44.824 69.043 46.191 69.824 Q 47.559 70.605 49.707 70.605 Q 53.125 70.605 57.178 68.506 Q 61.23 66.406 65.576 62.744 Q 69.922 59.082 74.463 54.199 Q 79.004 49.316 83.398 43.75 Q 87.793 38.184 91.895 32.275 Q 95.996 26.367 99.512 20.605 Q 102.637 15.43 105.762 10.205 Q 108.887 4.98 112.012 0 L 116.602 2.344 Q 116.504 2.539 114.795 6.006 Q 113.086 9.473 110.254 15.381 Q 107.422 21.289 103.662 29.053 Q 99.902 36.816 95.703 45.557 Q 91.504 54.297 87.158 63.477 Q 82.813 72.656 78.711 81.348 Q 92.48 73.73 103.662 63.281 Q 114.844 52.832 122.852 41.406 L 126.465 44.141 Q 117.969 57.129 105.371 68.115 Q 92.773 79.102 75 89.16 Q 66.895 106.543 59.131 120.898 Q 51.367 135.254 43.604 145.508 Q 35.84 155.762 28.076 161.377 Q 20.313 166.992 12.305 166.992 Q 7.031 166.992 3.516 163.477 Q 0 159.961 0 153.418 Q 0 147.949 2.441 142.188 Q 4.883 136.426 9.18 130.615 Q 13.477 124.805 19.385 119.092 Q 25.293 113.379 32.275 108.105 Q 39.258 102.832 46.924 98.047 Q 54.59 93.262 62.5 89.258 Q 64.551 84.961 66.895 80.225 Q 69.238 75.488 71.484 71.045 Q 73.73 66.602 75.83 62.646 Q 77.93 58.691 79.492 56.055 Q 75.684 60.254 71.777 63.818 Q 67.871 67.383 64.063 70.02 Q 60.254 72.656 56.592 74.17 Q 52.93 75.684 49.512 75.684 Q 45.703 75.684 42.627 74.268 Q 39.551 72.852 37.354 70.215 Q 35.156 67.578 33.984 63.965 Q 32.813 60.352 32.813 55.957 Q 32.813 50.098 35.254 43.75 Q 37.695 37.402 41.553 31.396 Q 45.41 25.391 50.146 20.02 Q 54.883 14.648 59.375 10.742 Z M 58.008 98.73 Q 46.777 105.664 37.158 113.525 Q 27.539 121.387 20.459 129.053 Q 13.379 136.719 9.375 143.457 Q 5.371 150.195 5.371 154.883 Q 5.371 158.008 7.178 159.863 Q 8.984 161.719 11.816 161.719 Q 15.625 161.719 19.678 159.131 Q 23.73 156.543 27.783 152.051 Q 31.836 147.559 35.84 141.455 Q 39.844 135.352 43.701 128.369 Q 47.559 121.387 51.172 113.818 Q 54.785 106.25 58.008 98.73 Z" id="0" vector-effect="non-scaling-stroke"/></g></svg>