<svg width="126.855" height="159.864" viewBox="0 0 126.855 159.864" xmlns="http://www.w3.org/2000/svg"><g id="svgGroup" stroke-linecap="round" fill-rule="evenodd" font-size="9pt" stroke="#000" stroke-width="0.25mm" fill="#000" style="stroke:#000;stroke-width:0.25mm;fill:#000"><path d="M 123.34 34.082 L 126.855 36.817 Q 121.875 45.02 116.504 51.612 Q 111.133 58.203 105.322 63.672 Q 99.512 69.141 93.213 73.78 Q 86.914 78.418 80.078 82.617 Q 79.688 91.699 76.074 100.928 Q 72.461 110.157 66.846 118.75 Q 61.23 127.344 54.15 134.815 Q 47.07 142.285 39.795 147.852 Q 32.52 153.418 25.635 156.641 Q 18.75 159.864 13.477 159.864 Q 9.668 159.864 7.08 158.545 Q 4.492 157.227 2.93 155.176 Q 1.367 153.125 0.684 150.684 Q 0 148.242 0 145.996 Q 0 140.332 3.516 133.838 Q 7.031 127.344 13.916 120.362 Q 20.801 113.379 30.957 106.153 Q 41.113 98.926 54.297 91.797 Q 58.887 89.258 63.379 86.817 Q 67.871 84.375 72.363 81.739 Q 72.363 81.25 72.412 80.713 Q 72.461 80.176 72.461 79.688 Q 72.461 76.758 72.021 74.658 Q 71.582 72.559 70.801 71.094 Q 65.43 73.242 61.719 73.242 Q 58.105 73.242 55.664 71.533 Q 53.223 69.824 53.223 66.895 Q 53.223 63.77 55.957 62.061 Q 58.691 60.352 62.5 60.352 Q 67.578 60.352 71.973 63.672 Q 76.465 60.157 80.664 54.639 Q 84.863 49.121 88.086 42.725 Q 91.309 36.328 93.262 29.639 Q 95.215 22.949 95.215 17.09 Q 95.215 13.867 94.385 11.621 Q 93.555 9.375 92.188 7.959 Q 90.82 6.543 89.063 5.86 Q 87.305 5.176 85.352 5.176 Q 81.348 5.176 77.686 7.129 Q 74.023 9.082 70.801 12.158 Q 67.578 15.235 64.795 18.946 Q 62.012 22.657 59.717 26.172 Q 57.422 29.688 55.664 32.569 Q 53.906 35.449 52.734 36.817 L 49.121 34.082 Q 50.293 32.52 52.1 29.444 Q 53.906 26.367 56.348 22.559 Q 58.789 18.75 61.816 14.746 Q 64.844 10.742 68.457 7.471 Q 72.07 4.199 76.318 2.1 Q 80.566 0 85.352 0 Q 89.941 0 93.604 1.514 Q 97.266 3.028 99.854 5.713 Q 102.441 8.399 103.857 12.207 Q 105.273 16.016 105.273 20.703 Q 105.273 27.539 102.93 34.473 Q 100.586 41.407 96.631 47.705 Q 92.676 54.004 87.402 59.326 Q 82.129 64.649 76.27 68.36 Q 76.855 69.434 78.027 71.729 Q 79.199 74.024 79.785 77.149 Q 85.84 73.34 91.65 68.994 Q 97.461 64.649 102.93 59.424 Q 108.398 54.199 113.525 47.949 Q 118.652 41.699 123.34 34.082 Z M 71.191 87.989 L 56.836 96.094 Q 44.336 103.028 35.596 109.131 Q 26.855 115.235 21.143 120.459 Q 15.43 125.684 12.207 129.883 Q 8.984 134.082 7.373 137.305 Q 5.762 140.528 5.42 142.627 Q 5.078 144.727 5.078 145.703 Q 5.078 147.071 5.371 148.487 Q 5.664 149.903 6.494 150.977 Q 7.324 152.051 8.691 152.735 Q 10.059 153.418 12.305 153.418 Q 14.746 153.418 18.311 152.051 Q 21.875 150.684 26.66 147.119 Q 31.445 143.555 37.598 137.403 Q 43.75 131.25 51.465 121.68 Q 54.492 117.871 57.52 113.672 Q 60.547 109.473 63.184 105.127 Q 65.82 100.782 67.92 96.436 Q 70.02 92.09 71.191 87.989 Z M 67.969 66.602 Q 66.602 65.723 65.039 65.283 Q 63.477 64.844 62.402 64.844 Q 58.203 64.844 58.203 66.699 Q 58.203 68.555 61.816 68.555 Q 62.793 68.555 64.648 68.115 Q 66.504 67.676 67.969 66.602 Z" id="0" vector-effect="non-scaling-stroke"/></g></svg>