<svg width="83.008" height="111.621" viewBox="0 0 83.008 111.621" xmlns="http://www.w3.org/2000/svg"><g id="svgGroup" stroke-linecap="round" fill-rule="evenodd" font-size="9pt" stroke="#000" stroke-width="0.25mm" fill="#000" style="stroke:#000;stroke-width:0.25mm;fill:#000"><path d="M 7.617 111.621 L 1.367 111.621 L 14.844 76.563 L 0 76.563 L 2.148 71.191 L 16.895 71.191 L 29.883 37.5 L 15.039 37.5 L 17.09 32.129 L 31.934 32.129 L 44.336 0 L 50.586 0 L 38.184 32.129 L 61.23 32.129 L 73.633 0 L 79.883 0 L 67.48 32.129 L 83.008 32.129 L 80.859 37.5 L 65.43 37.5 L 52.441 71.191 L 67.969 71.191 L 65.82 76.563 L 50.391 76.563 L 36.914 111.621 L 30.664 111.621 L 44.141 76.563 L 21.094 76.563 L 7.617 111.621 Z M 36.133 37.5 L 23.145 71.191 L 46.191 71.191 L 59.18 37.5 L 36.133 37.5 Z" id="0" vector-effect="non-scaling-stroke"/></g></svg>