<svg width="104.98" height="184.57" viewBox="0 0 104.98 184.57" xmlns="http://www.w3.org/2000/svg"><g id="svgGroup" stroke-linecap="round" fill-rule="evenodd" font-size="9pt" stroke="#000" stroke-width="0.25mm" fill="#000" style="stroke:#000;stroke-width:0.25mm;fill:#000"><path d="M 4.785 184.57 L 0.586 182.715 L 16.016 150.586 Q 10.645 148.047 6.641 143.604 Q 2.637 139.16 0 133.105 L 4.883 130.859 Q 7.617 136.328 10.742 140.137 Q 13.867 143.945 18.164 146.094 L 47.461 85.059 Q 46.387 80.176 45.752 75.586 Q 45.117 70.996 45.117 66.797 Q 45.117 56.348 47.656 48.877 Q 50.195 41.406 54.395 36.572 Q 58.594 31.738 64.111 29.346 Q 69.629 26.953 75.488 26.465 L 88.184 0 L 92.285 1.758 L 80.469 26.465 Q 84.18 26.758 87.402 27.93 L 100.879 0 L 104.98 1.758 L 91.504 29.785 Q 98.145 33.398 101.855 38.867 L 97.559 42.188 Q 96.387 40.039 94.238 38.037 Q 92.09 36.035 89.355 34.375 L 60.938 93.848 Q 62.305 99.805 63.281 105.127 Q 64.258 110.449 64.258 114.16 Q 64.258 123.438 61.816 130.566 Q 59.375 137.695 55.127 142.627 Q 50.879 147.559 45.02 150.293 Q 39.16 153.027 32.324 153.418 L 17.48 184.57 L 13.281 182.715 L 27.344 153.418 Q 23.34 153.125 20.313 152.148 L 4.785 184.57 Z M 29.59 148.633 L 51.563 102.832 Q 50.879 100.293 50.293 97.607 Q 49.707 94.922 49.023 92.09 L 22.363 147.754 Q 25.586 148.633 29.59 148.633 Z M 78.125 31.25 L 56.836 75.781 Q 57.324 78.418 57.959 81.152 Q 58.594 83.887 59.277 86.719 L 85.254 32.52 Q 83.594 31.934 81.885 31.592 Q 80.176 31.25 78.418 31.25 L 78.125 31.25 Z M 53.125 110.059 L 34.863 148.242 Q 39.648 147.363 43.311 144.824 Q 46.973 142.285 49.463 138.574 Q 51.953 134.863 53.223 130.273 Q 54.492 125.684 54.492 120.703 Q 54.492 118.457 54.102 115.771 Q 53.711 113.086 53.125 110.059 Z M 55.469 68.164 L 72.852 31.836 Q 69.434 32.617 66.211 34.521 Q 62.988 36.426 60.498 39.844 Q 58.008 43.262 56.445 48.389 Q 54.883 53.516 54.883 60.742 Q 54.883 64.063 55.469 68.164 Z" id="0" vector-effect="non-scaling-stroke"/></g></svg>