<svg width="116.992" height="142.969" viewBox="0 0 116.992 142.969" xmlns="http://www.w3.org/2000/svg"><g id="svgGroup" stroke-linecap="round" fill-rule="evenodd" font-size="9pt" stroke="#000" stroke-width="0.25mm" fill="#000" style="stroke:#000;stroke-width:0.25mm;fill:#000"><path d="M 8.203 142.969 L 0 142.969 L 108.789 0 L 116.992 0 L 8.203 142.969 Z M 45.313 0 Q 50.098 0 53.809 1.709 Q 57.52 3.418 60.107 6.299 Q 62.695 9.18 64.063 13.037 Q 65.43 16.895 65.43 21.192 Q 65.43 26.367 63.867 31.787 Q 62.305 37.207 59.521 42.334 Q 56.738 47.461 52.93 51.953 Q 49.121 56.446 44.678 59.864 Q 40.234 63.282 35.303 65.235 Q 30.371 67.188 25.391 67.188 Q 20.41 67.188 16.309 65.576 Q 12.207 63.965 9.277 61.035 Q 6.348 58.106 4.736 53.907 Q 3.125 49.707 3.125 44.434 Q 3.125 35.742 6.494 27.686 Q 9.863 19.629 15.625 13.477 Q 21.387 7.325 29.053 3.662 Q 36.719 0 45.313 0 Z M 95.703 75.782 Q 100.488 75.782 104.199 77.491 Q 107.91 79.2 110.498 82.08 Q 113.086 84.961 114.453 88.819 Q 115.82 92.676 115.82 96.973 Q 115.82 102.149 114.258 107.569 Q 112.695 112.989 109.912 118.116 Q 107.129 123.242 103.32 127.735 Q 99.512 132.227 95.068 135.645 Q 90.625 139.063 85.693 141.016 Q 80.762 142.969 75.781 142.969 Q 70.801 142.969 66.699 141.358 Q 62.598 139.746 59.668 136.817 Q 56.738 133.887 55.127 129.688 Q 53.516 125.489 53.516 120.215 Q 53.516 111.524 56.885 103.467 Q 60.254 95.41 66.016 89.258 Q 71.777 83.106 79.443 79.444 Q 87.109 75.782 95.703 75.782 Z M 46.68 5.762 Q 40.137 5.762 33.789 9.473 Q 27.441 13.184 22.461 19.043 Q 17.48 24.903 14.404 32.178 Q 11.328 39.453 11.328 46.582 Q 11.328 54.688 15.381 58.789 Q 19.434 62.891 25.879 62.891 Q 30.273 62.891 34.57 60.987 Q 38.867 59.082 42.773 55.86 Q 46.68 52.637 50 48.487 Q 53.32 44.336 55.713 39.746 Q 58.105 35.157 59.473 30.567 Q 60.84 25.977 60.84 21.875 Q 60.84 17.188 59.57 14.112 Q 58.301 11.035 56.299 9.18 Q 54.297 7.325 51.758 6.543 Q 49.219 5.762 46.68 5.762 Z M 97.07 81.543 Q 90.527 81.543 84.18 85.254 Q 77.832 88.965 72.852 94.825 Q 67.871 100.684 64.795 107.959 Q 61.719 115.235 61.719 122.364 Q 61.719 130.469 65.771 134.571 Q 69.824 138.672 76.27 138.672 Q 80.664 138.672 84.961 136.768 Q 89.258 134.864 93.164 131.641 Q 97.07 128.418 100.391 124.268 Q 103.711 120.117 106.104 115.528 Q 108.496 110.938 109.863 106.348 Q 111.23 101.758 111.23 97.657 Q 111.23 92.969 109.961 89.893 Q 108.691 86.817 106.689 84.961 Q 104.688 83.106 102.148 82.325 Q 99.609 81.543 97.07 81.543 Z" id="0" vector-effect="non-scaling-stroke"/></g></svg>