<svg width="153.907" height="134.473" viewBox="0 0 153.907 134.473" xmlns="http://www.w3.org/2000/svg"><g id="svgGroup" stroke-linecap="round" fill-rule="evenodd" font-size="9pt" stroke="#000" stroke-width="0.25mm" fill="#000" style="stroke:#000;stroke-width:0.25mm;fill:#000"><path d="M 113.282 89.258 L 112.305 85.742 Q 116.993 84.864 121.778 84.864 Q 127.833 84.864 133.594 86.621 Q 139.356 88.379 143.897 91.651 Q 148.438 94.922 151.173 99.707 Q 153.907 104.492 153.907 110.547 Q 153.907 115.918 151.514 120.313 Q 149.122 124.707 144.923 127.881 Q 140.723 131.055 134.962 132.764 Q 129.2 134.473 122.462 134.473 Q 114.649 134.473 107.471 132.764 Q 100.294 131.055 93.8 128.028 Q 87.305 125 81.397 120.752 Q 75.489 116.504 70.411 111.328 Q 63.282 114.649 55.421 116.553 Q 47.559 118.457 39.063 118.457 Q 28.614 118.457 21.192 116.26 Q 13.77 114.063 9.083 110.303 Q 4.395 106.543 2.198 101.563 Q 0.001 96.582 0.001 90.918 Q 0.001 83.594 3.37 77.881 Q 6.739 72.168 12.403 67.725 Q 18.067 63.281 25.489 59.766 Q 32.911 56.25 41.016 53.223 Q 40.43 48.731 40.43 44.336 Q 40.43 34.278 44.141 26.074 Q 47.852 17.871 53.858 12.11 Q 59.864 6.348 67.335 3.174 Q 74.805 0 82.325 0 Q 87.11 0 91.016 1.367 Q 94.923 2.735 97.657 5.127 Q 100.391 7.52 101.905 10.742 Q 103.419 13.965 103.419 17.578 Q 103.419 22.656 101.319 26.709 Q 99.219 30.762 95.557 34.082 Q 91.895 37.403 86.964 40.137 Q 82.032 42.871 76.319 45.215 Q 70.606 47.559 64.454 49.756 Q 58.301 51.953 52.149 54.199 Q 53.321 59.668 55.421 65.821 Q 57.52 71.973 60.45 78.272 Q 63.38 84.571 67.139 90.821 Q 70.899 97.071 75.294 102.735 Q 80.86 99.414 85.499 95.215 Q 90.137 91.016 93.507 86.28 Q 96.876 81.543 98.78 76.465 Q 100.684 71.387 100.684 66.211 Q 100.684 62.305 100.001 59.961 Q 99.317 57.617 99.219 56.934 L 104.2 55.567 Q 104.591 56.641 105.225 59.473 Q 105.86 62.305 105.86 66.309 Q 105.86 71.68 103.907 77.246 Q 101.954 82.813 98.389 88.086 Q 94.825 93.36 89.796 98.145 Q 84.766 102.93 78.614 106.836 Q 82.911 111.914 87.745 116.211 Q 92.579 120.508 97.852 123.633 Q 103.126 126.758 108.741 128.516 Q 114.356 130.274 120.313 130.274 Q 125.196 130.274 129.688 129.004 Q 134.18 127.735 137.598 125.147 Q 141.016 122.559 143.067 118.506 Q 145.118 114.453 145.118 108.887 Q 145.118 103.906 143.067 100.147 Q 141.016 96.387 137.598 93.799 Q 134.18 91.211 129.835 89.893 Q 125.489 88.574 120.801 88.574 Q 118.751 88.574 116.846 88.77 Q 114.942 88.965 113.282 89.258 Z M 41.798 58.203 Q 35.645 60.84 30.225 63.867 Q 24.805 66.895 20.801 70.655 Q 16.798 74.414 14.454 79.102 Q 12.11 83.789 12.11 89.649 Q 12.11 94.629 13.721 98.877 Q 15.333 103.125 18.8 106.299 Q 22.266 109.473 27.637 111.231 Q 33.008 112.989 40.528 112.989 Q 47.169 112.989 53.809 111.524 Q 60.45 110.059 66.602 107.324 Q 61.719 101.953 57.716 95.899 Q 53.712 89.844 50.587 83.545 Q 47.462 77.246 45.216 70.85 Q 42.969 64.453 41.798 58.203 Z M 97.95 17.676 Q 97.95 15.43 97.022 13.184 Q 96.094 10.938 94.19 9.18 Q 92.286 7.422 89.307 6.348 Q 86.329 5.274 82.325 5.274 Q 76.856 5.274 71.241 7.373 Q 65.626 9.473 61.085 14.014 Q 56.544 18.555 53.663 25.733 Q 50.782 32.91 50.782 42.969 Q 50.782 44.531 50.88 46.192 Q 50.977 47.852 51.27 49.61 Q 60.157 46.485 68.555 43.408 Q 76.954 40.332 83.497 36.67 Q 90.04 33.008 93.995 28.418 Q 97.95 23.828 97.95 17.676 Z" id="0" vector-effect="non-scaling-stroke"/></g></svg>