<svg width="89.063" height="186.914" viewBox="0 0 89.063 186.914" xmlns="http://www.w3.org/2000/svg"><g id="svgGroup" stroke-linecap="round" fill-rule="evenodd" font-size="9pt" stroke="#000" stroke-width="0.25mm" fill="#000" style="stroke:#000;stroke-width:0.25mm;fill:#000"><path d="M 25.099 184.668 L 20.704 186.914 Q 17.872 181.641 14.308 174.17 Q 10.743 166.699 7.569 157.617 Q 4.395 148.535 2.198 138.184 Q 0.001 127.832 0.001 116.797 Q 0.001 97.363 6.349 79.639 Q 12.696 61.914 24.22 46.875 Q 35.743 31.836 51.856 19.873 Q 67.97 7.91 87.501 0 L 89.063 4.102 Q 80.665 7.52 71.632 13.428 Q 62.599 19.336 53.907 27.441 Q 45.216 35.547 37.403 45.654 Q 29.591 55.762 23.683 67.676 Q 17.774 79.59 14.308 93.164 Q 10.841 106.738 10.841 121.68 Q 10.841 132.91 12.257 142.139 Q 13.673 151.367 15.821 159.033 Q 17.97 166.699 20.46 172.998 Q 22.95 179.297 25.099 184.668 Z" id="0" vector-effect="non-scaling-stroke"/></g></svg>