<svg width="89.064" height="186.914" viewBox="0 0 89.064 186.914" xmlns="http://www.w3.org/2000/svg"><g id="svgGroup" stroke-linecap="round" fill-rule="evenodd" font-size="9pt" stroke="#000" stroke-width="0.25mm" fill="#000" style="stroke:#000;stroke-width:0.25mm;fill:#000"><path d="M 63.965 2.246 L 68.359 0 Q 71.191 5.273 74.756 12.793 Q 78.32 20.313 81.494 29.395 Q 84.668 38.477 86.865 48.828 Q 89.063 59.18 89.063 70.117 Q 89.063 89.648 82.715 107.324 Q 76.367 125 64.844 140.039 Q 53.32 155.078 37.207 167.041 Q 21.094 179.004 1.563 186.914 L 0 182.813 Q 8.398 179.395 17.432 173.486 Q 26.465 167.578 35.156 159.473 Q 43.848 151.367 51.66 141.26 Q 59.473 131.152 65.381 119.238 Q 71.289 107.324 74.756 93.75 Q 78.223 80.176 78.223 65.234 Q 78.223 54.004 76.807 44.775 Q 75.391 35.547 73.242 27.881 Q 71.094 20.215 68.604 13.916 Q 66.113 7.617 63.965 2.246 Z" id="0" vector-effect="non-scaling-stroke"/></g></svg>