<svg width="45.313" height="78.321" viewBox="0 0 45.313 78.321" xmlns="http://www.w3.org/2000/svg"><g id="svgGroup" stroke-linecap="round" fill-rule="evenodd" font-size="9pt" stroke="#000" stroke-width="0.25mm" fill="#000" style="stroke:#000;stroke-width:0.25mm;fill:#000"><path d="M 1.855 78.321 L 0 75.196 Q 3.906 73.243 7.324 70.508 Q 10.742 67.774 12.109 65.235 Q 8.984 64.551 7.617 62.549 Q 6.25 60.547 6.25 58.301 Q 6.25 55.274 8.398 53.272 Q 10.547 51.27 13.379 51.27 Q 16.406 51.27 18.408 53.419 Q 20.41 55.567 20.41 58.399 Q 20.41 61.524 18.799 64.503 Q 17.188 67.481 14.551 70.118 Q 11.914 72.754 8.594 74.854 Q 5.273 76.954 1.855 78.321 Z M 45.313 7.032 Q 45.313 9.962 43.213 12.061 Q 41.113 14.161 38.086 14.161 Q 35.254 14.161 33.154 12.061 Q 31.055 9.962 31.055 7.032 Q 31.055 4.2 33.154 2.1 Q 35.254 0.001 38.086 0.001 Q 41.113 0.001 43.213 2.1 Q 45.313 4.2 45.313 7.032 Z" id="0" vector-effect="non-scaling-stroke"/></g></svg>