<svg width="90.821" height="141.895" viewBox="0 0 90.821 141.895" xmlns="http://www.w3.org/2000/svg"><g id="svgGroup" stroke-linecap="round" fill-rule="evenodd" font-size="9pt" stroke="#000" stroke-width="0.25mm" fill="#000" style="stroke:#000;stroke-width:0.25mm;fill:#000"><path d="M 16.504 114.161 L 12.598 116.407 Q 11.426 113.575 10.84 110.743 Q 10.254 107.911 10.254 105.469 Q 10.254 98.536 13.281 93.164 Q 16.309 87.793 21.24 83.399 Q 26.172 79.004 32.471 75.245 Q 38.77 71.485 45.313 67.774 Q 51.856 64.063 58.154 60.108 Q 64.453 56.153 69.385 51.368 Q 74.317 46.582 77.344 40.674 Q 80.371 34.766 80.371 27.149 Q 80.371 20.703 77.979 16.407 Q 75.586 12.11 71.777 9.522 Q 67.969 6.934 63.233 5.811 Q 58.496 4.688 53.809 4.688 Q 45.215 4.688 37.647 7.325 Q 30.078 9.961 24.414 14.258 Q 18.75 18.555 15.479 24.121 Q 12.207 29.688 12.207 35.645 Q 12.207 39.063 13.33 41.602 Q 14.453 44.141 16.358 45.801 Q 18.262 47.461 20.752 48.243 Q 23.242 49.024 25.879 49.024 Q 30.371 49.024 34.082 48.243 Q 37.793 47.461 40.332 46.387 L 41.211 50.391 Q 37.988 51.758 33.35 52.93 Q 28.711 54.102 23.145 54.102 Q 18.75 54.102 14.795 53.125 Q 10.84 52.149 7.91 50 Q 4.981 47.852 3.223 44.483 Q 1.465 41.114 1.465 36.427 Q 1.465 29.102 5.957 22.51 Q 10.449 15.918 17.871 10.889 Q 25.293 5.86 34.815 2.93 Q 44.336 0 54.492 0 Q 62.012 0 68.652 1.905 Q 75.293 3.809 80.225 7.569 Q 85.156 11.328 87.988 16.846 Q 90.82 22.364 90.82 29.59 Q 90.82 37.696 87.549 44.092 Q 84.277 50.489 78.955 55.664 Q 73.633 60.84 66.846 65.088 Q 60.059 69.336 52.979 73.145 Q 45.899 76.953 39.111 80.567 Q 32.324 84.18 27.002 88.135 Q 21.68 92.09 18.408 96.68 Q 15.137 101.27 15.137 106.934 Q 15.137 108.594 15.43 110.401 Q 15.723 112.207 16.504 114.161 Z M 14.258 134.766 Q 14.258 137.696 12.158 139.795 Q 10.059 141.895 7.031 141.895 Q 4.199 141.895 2.1 139.795 Q 0 137.696 0 134.766 Q 0 131.934 2.1 129.834 Q 4.199 127.735 7.031 127.735 Q 10.059 127.735 12.158 129.834 Q 14.258 131.934 14.258 134.766 Z" id="0" vector-effect="non-scaling-stroke"/></g></svg>