<svg width="149.708" height="149.513" viewBox="0 0 149.708 149.513" xmlns="http://www.w3.org/2000/svg"><g id="svgGroup" stroke-linecap="round" fill-rule="evenodd" font-size="9pt" stroke="#000" stroke-width="0.25mm" fill="#000" style="stroke:#000;stroke-width:0.25mm;fill:#000"><path d="M 117.481 45.996 L 120.606 47.363 Q 119.337 49.903 116.944 54.053 Q 114.552 58.203 111.768 63.184 Q 108.985 68.164 106.104 73.633 Q 103.224 79.102 100.88 84.131 Q 98.536 89.16 97.022 93.457 Q 95.509 97.754 95.509 100.488 Q 95.509 103.125 96.143 104.785 Q 96.778 106.446 97.804 107.373 Q 98.829 108.301 100.147 108.692 Q 101.466 109.082 102.833 109.082 Q 108.106 109.082 112.891 106.104 Q 117.677 103.125 121.778 98.291 Q 125.88 93.457 129.2 87.158 Q 132.52 80.86 134.864 74.268 Q 137.208 67.676 138.477 61.279 Q 139.747 54.883 139.747 49.707 Q 139.747 39.649 136.768 31.543 Q 133.79 23.438 128.468 17.774 Q 123.145 12.11 115.821 9.082 Q 108.497 6.055 99.806 6.055 Q 89.161 6.055 78.321 9.717 Q 67.481 13.379 57.52 19.971 Q 47.559 26.563 38.917 35.694 Q 30.274 44.824 23.878 55.664 Q 17.481 66.504 13.819 78.662 Q 10.157 90.821 10.157 103.516 Q 10.157 112.403 12.94 119.922 Q 15.724 127.442 20.948 132.862 Q 26.173 138.281 33.692 141.358 Q 41.212 144.434 50.782 144.434 Q 53.419 144.434 56.886 143.897 Q 60.352 143.36 63.966 142.529 Q 67.579 141.699 70.997 140.674 Q 74.415 139.649 76.954 138.574 L 79.591 142.969 Q 72.559 146.094 65.333 147.803 Q 58.106 149.512 50.782 149.512 Q 40.333 149.512 31.056 146.045 Q 21.778 142.578 14.893 135.84 Q 8.009 129.102 4.005 119.287 Q 0.001 109.473 0.001 96.778 Q 0.001 82.617 3.907 69.922 Q 7.813 57.227 14.698 46.485 Q 21.583 35.742 30.86 27.149 Q 40.138 18.555 50.831 12.5 Q 61.524 6.446 73.145 3.223 Q 84.766 0 96.29 0 Q 106.641 0 116.309 3.125 Q 125.977 6.25 133.399 12.451 Q 140.821 18.653 145.265 27.881 Q 149.708 37.11 149.708 49.219 Q 149.708 55.567 147.999 62.793 Q 146.29 70.02 143.214 77.149 Q 140.138 84.278 135.792 90.821 Q 131.446 97.363 126.124 102.393 Q 120.802 107.422 114.649 110.449 Q 108.497 113.477 101.759 113.477 Q 97.95 113.477 95.167 112.403 Q 92.384 111.328 90.528 109.473 Q 88.673 107.617 87.745 105.176 Q 86.817 102.735 86.817 99.903 Q 86.817 99.707 86.915 99.072 Q 87.013 98.438 87.11 97.705 L 87.306 96.24 Q 87.403 95.508 87.501 95.117 Q 83.204 100.098 79.2 103.369 Q 75.196 106.641 71.388 108.496 Q 67.579 110.352 63.868 111.084 Q 60.157 111.817 56.641 111.817 Q 52.931 111.817 49.659 110.596 Q 46.388 109.375 43.897 107.031 Q 41.407 104.688 39.991 101.27 Q 38.575 97.852 38.575 93.36 Q 38.575 86.621 41.114 80.371 Q 43.653 74.121 47.852 68.604 Q 52.052 63.086 57.423 58.496 Q 62.794 53.906 68.507 50.635 Q 74.22 47.363 79.737 45.557 Q 85.255 43.75 89.845 43.75 Q 98.829 43.75 103.419 46.729 Q 108.009 49.707 108.985 55.86 Q 110.938 53.418 113.087 50.977 Q 115.235 48.535 117.481 45.996 Z M 90.626 84.473 Q 91.895 82.422 93.751 79.248 Q 95.606 76.074 97.657 72.705 Q 99.708 69.336 101.661 66.211 Q 103.614 63.086 105.079 60.938 Q 105.079 60.059 104.835 58.106 Q 104.591 56.153 103.516 54.151 Q 102.442 52.149 100.099 50.684 Q 97.755 49.219 93.556 49.219 Q 88.966 49.219 83.936 51.123 Q 78.907 53.028 74.024 56.348 Q 69.141 59.668 64.698 64.112 Q 60.255 68.555 56.837 73.633 Q 53.419 78.711 51.417 84.18 Q 49.415 89.649 49.415 95.02 Q 49.415 100.586 51.954 103.613 Q 54.493 106.641 59.181 106.641 Q 64.552 106.641 68.946 104.639 Q 73.341 102.637 77.1 99.463 Q 80.86 96.289 84.132 92.334 Q 87.403 88.379 90.626 84.473 Z" id="0" vector-effect="non-scaling-stroke"/></g></svg>