<svg width="39.063" height="65.528" viewBox="0 0 39.063 65.528" xmlns="http://www.w3.org/2000/svg"><g id="svgGroup" stroke-linecap="round" fill-rule="evenodd" font-size="9pt" stroke="#000" stroke-width="0.25mm" fill="#000" style="stroke:#000;stroke-width:0.25mm;fill:#000"><path d="M 14.258 58.399 Q 14.258 61.329 12.158 63.428 Q 10.059 65.528 7.031 65.528 Q 4.199 65.528 2.1 63.428 Q 0 61.329 0 58.399 Q 0 55.567 2.1 53.467 Q 4.199 51.368 7.031 51.368 Q 10.059 51.368 12.158 53.467 Q 14.258 55.567 14.258 58.399 Z M 39.063 7.032 Q 39.063 9.962 36.963 12.061 Q 34.863 14.161 31.836 14.161 Q 29.004 14.161 26.904 12.061 Q 24.805 9.962 24.805 7.032 Q 24.805 4.2 26.904 2.1 Q 29.004 0.001 31.836 0.001 Q 34.863 0.001 36.963 2.1 Q 39.063 4.2 39.063 7.032 Z" id="0" vector-effect="non-scaling-stroke"/></g></svg>