<svg width="97.07" height="186.914" viewBox="0 0 97.07 186.914" xmlns="http://www.w3.org/2000/svg"><g id="svgGroup" stroke-linecap="round" fill-rule="evenodd" font-size="9pt" stroke="#000" stroke-width="0.25mm" fill="#000" style="stroke:#000;stroke-width:0.25mm;fill:#000"><path d="M 31.348 181.543 L 28.809 186.914 Q 20.605 186.914 15.039 184.863 Q 9.473 182.813 6.152 179.59 Q 2.832 176.367 1.416 172.51 Q 0 168.652 0 165.039 Q 0 160.254 1.904 154.395 Q 3.809 148.535 6.689 142.236 Q 9.57 135.938 12.891 129.541 Q 16.211 123.145 19.092 117.285 Q 21.973 111.426 23.877 106.348 Q 25.781 101.27 25.781 97.559 Q 25.781 89.355 18.555 89.355 L 13.184 89.355 L 15.82 83.984 L 23.438 83.984 Q 29.102 83.984 33.643 78.906 Q 38.184 73.828 41.895 65.527 Q 45.605 57.227 48.682 46.582 Q 51.758 35.938 54.492 24.902 Q 56.836 15.527 61.035 10.449 Q 65.234 5.371 70.85 3.076 Q 76.465 0.781 83.154 0.391 Q 89.844 0 97.07 0 L 94.727 5.371 Q 89.844 5.371 85.205 6.055 Q 80.566 6.738 76.611 8.936 Q 72.656 11.133 69.58 15.332 Q 66.504 19.531 64.746 26.66 Q 61.816 38.184 59.033 48.438 Q 56.25 58.691 52.441 66.797 Q 48.633 74.902 43.164 80.469 Q 37.695 86.035 29.395 88.184 Q 32.226 89.062 33.935 92.333 Q 35.645 95.605 35.645 99.219 Q 35.645 103.223 33.789 108.398 Q 31.934 113.574 29.15 119.385 Q 26.367 125.195 23.096 131.299 Q 19.824 137.402 17.041 143.408 Q 14.258 149.414 12.402 155.078 Q 10.547 160.742 10.547 165.43 Q 10.547 168.359 11.523 171.24 Q 12.5 174.121 14.893 176.416 Q 17.285 178.711 21.289 180.127 Q 25.293 181.543 31.348 181.543 Z" id="0" vector-effect="non-scaling-stroke"/></g></svg>