<svg width="97.07" height="186.914" viewBox="0 0 97.07 186.914" xmlns="http://www.w3.org/2000/svg"><g id="svgGroup" stroke-linecap="round" fill-rule="evenodd" font-size="9pt" stroke="#000" stroke-width="0.25mm" fill="#000" style="stroke:#000;stroke-width:0.25mm;fill:#000"><path d="M 65.723 5.371 L 68.262 0 Q 76.465 0 82.031 2.051 Q 87.598 4.102 90.918 7.324 Q 94.238 10.547 95.654 14.405 Q 97.07 18.262 97.07 21.875 Q 97.07 26.66 95.166 32.52 Q 93.262 38.379 90.381 44.678 Q 87.5 50.977 84.18 57.373 Q 80.859 63.77 77.979 69.629 Q 75.098 75.489 73.193 80.616 Q 71.289 85.742 71.289 89.356 Q 71.289 97.559 78.516 97.559 L 83.887 97.559 L 81.25 102.93 L 73.633 102.93 Q 67.969 102.93 63.428 108.008 Q 58.887 113.086 55.176 121.387 Q 51.465 129.688 48.389 140.332 Q 45.313 150.977 42.578 162.012 Q 40.234 171.387 36.035 176.465 Q 31.836 181.543 26.221 183.838 Q 20.605 186.133 13.916 186.524 Q 7.227 186.914 0 186.914 L 2.344 181.543 Q 7.227 181.543 11.816 180.86 Q 16.406 180.176 20.361 177.979 Q 24.316 175.782 27.441 171.582 Q 30.566 167.383 32.324 160.254 Q 35.254 148.731 38.037 138.477 Q 40.82 128.223 44.629 120.117 Q 48.438 112.012 53.906 106.446 Q 59.375 100.879 67.676 98.731 Q 64.844 97.852 63.135 94.581 Q 61.426 91.309 61.426 87.696 Q 61.426 83.692 63.281 78.516 Q 65.137 73.34 67.92 67.53 Q 70.703 61.719 73.975 55.616 Q 77.246 49.512 80.029 43.506 Q 82.813 37.5 84.668 31.885 Q 86.523 26.27 86.523 21.485 Q 86.523 18.555 85.547 15.674 Q 84.57 12.793 82.178 10.498 Q 79.785 8.203 75.781 6.787 Q 71.777 5.371 65.723 5.371 Z" id="0" vector-effect="non-scaling-stroke"/></g></svg>