<svg width="120.313" height="172.169" viewBox="0 0 120.313 172.169" xmlns="http://www.w3.org/2000/svg"><g id="svgGroup" stroke-linecap="round" fill-rule="evenodd" font-size="9pt" stroke="#000" stroke-width="0.25mm" fill="#000" style="stroke:#000;stroke-width:0.25mm;fill:#000"><path d="M 0 151.758 L 4.883 149.512 Q 7.031 153.809 9.473 157.129 Q 11.914 160.449 14.941 162.695 Q 17.969 164.942 21.68 166.113 Q 25.391 167.285 30.176 167.285 Q 36.133 167.285 40.674 164.99 Q 45.215 162.695 48.291 158.887 Q 51.367 155.078 52.93 150 Q 54.492 144.922 54.492 139.356 Q 54.492 136.231 53.662 132.178 Q 52.832 128.125 51.563 123.535 Q 50.293 118.945 48.828 114.014 Q 47.363 109.082 46.094 104.151 Q 44.824 99.219 43.994 94.434 Q 43.164 89.649 43.164 85.449 Q 43.164 77.149 44.775 70.801 Q 46.387 64.453 49.219 59.766 Q 52.051 55.078 55.811 52.002 Q 59.57 48.926 63.965 47.266 Q 63.77 45.508 63.672 43.799 Q 63.574 42.09 63.574 40.43 Q 63.574 29.395 66.406 21.68 Q 69.238 13.965 73.877 9.131 Q 78.516 4.297 84.424 2.149 Q 90.332 0 96.582 0 Q 100.391 0 103.906 0.977 Q 107.422 1.953 110.498 3.662 Q 113.574 5.371 116.064 7.617 Q 118.555 9.863 120.313 12.5 L 116.016 15.82 Q 114.941 13.77 112.939 11.817 Q 110.938 9.863 108.398 8.35 Q 105.859 6.836 102.881 5.86 Q 99.902 4.883 96.875 4.883 Q 92.969 4.883 88.818 6.201 Q 84.668 7.52 81.201 10.84 Q 77.734 14.16 75.537 19.873 Q 73.34 25.586 73.34 34.375 Q 73.34 37.793 74.121 42.236 Q 74.902 46.68 76.025 51.563 Q 77.148 56.445 78.516 61.572 Q 79.883 66.699 81.006 71.485 Q 82.129 76.27 82.91 80.469 Q 83.691 84.668 83.691 87.793 Q 83.691 95.02 82.227 100.928 Q 80.762 106.836 78.076 111.426 Q 75.391 116.016 71.582 119.336 Q 67.773 122.656 63.184 124.512 Q 64.258 129.59 64.258 132.813 Q 64.258 142.481 61.621 149.805 Q 58.984 157.129 54.395 162.11 Q 49.805 167.09 43.555 169.629 Q 37.305 172.168 29.98 172.168 Q 19.238 172.168 11.67 166.699 Q 4.102 161.231 0 151.758 Z M 73.926 94.336 Q 73.926 90.723 72.9 85.84 Q 71.875 80.957 70.459 75.488 Q 69.043 70.02 67.48 64.209 Q 65.918 58.399 64.844 52.832 Q 62.402 54.199 60.205 56.445 Q 58.008 58.692 56.396 61.914 Q 54.785 65.137 53.857 69.483 Q 52.93 73.828 52.93 79.395 Q 52.93 83.106 53.857 87.891 Q 54.785 92.676 56.152 97.949 Q 57.52 103.223 59.082 108.643 Q 60.645 114.063 61.914 119.043 Q 67.871 115.332 70.898 108.789 Q 73.926 102.246 73.926 94.336 Z" id="0" vector-effect="non-scaling-stroke"/></g></svg>