<svg width="246.094" height="146.094" viewBox="0 0 246.094 146.094" xmlns="http://www.w3.org/2000/svg"><g id="svgGroup" stroke-linecap="round" fill-rule="evenodd" font-size="9pt" stroke="#000" stroke-width="0.25mm" fill="#000" style="stroke:#000;stroke-width:0.25mm;fill:#000"><path d="M 206.348 124.805 L 206.543 129.883 Q 205.86 129.883 201.417 129.834 Q 196.973 129.785 189.356 128.711 Q 186.329 135.742 184.717 139.648 Q 183.106 143.555 183.106 143.75 L 171.485 140.137 L 177.344 126.758 Q 170.801 125.293 163.575 123.34 Q 156.348 121.387 148.877 118.896 Q 141.407 116.406 133.985 113.281 Q 126.563 110.156 119.727 106.445 Q 113.379 113.77 105.958 120.85 Q 98.536 127.93 90.04 133.545 Q 81.543 139.16 72.022 142.627 Q 62.5 146.094 51.954 146.094 Q 42.579 146.094 33.252 143.311 Q 23.926 140.527 16.553 135.205 Q 9.18 129.883 4.59 122.217 Q 0 114.551 0 104.785 Q 0 97.07 2.881 91.211 Q 5.762 85.352 10.792 81.445 Q 15.821 77.539 22.608 75.537 Q 29.395 73.535 37.208 73.535 Q 43.165 73.535 49.561 74.707 Q 55.958 75.879 62.012 78.613 Q 68.067 81.348 73.438 85.84 Q 78.809 90.332 82.618 96.973 L 78.321 99.707 Q 78.223 99.512 77.198 98.193 Q 76.172 96.875 74.17 94.971 Q 72.168 93.066 69.043 90.918 Q 65.918 88.77 61.573 86.963 Q 57.227 85.156 51.514 83.936 Q 45.801 82.715 38.575 82.715 Q 31.25 82.715 25.782 85.205 Q 20.313 87.695 16.651 91.553 Q 12.989 95.41 11.182 100.195 Q 9.375 104.98 9.375 109.473 Q 9.375 114.746 11.231 119.092 Q 13.086 123.438 16.26 126.953 Q 19.434 130.469 23.682 133.057 Q 27.93 135.645 32.667 137.402 Q 37.403 139.16 42.334 140.039 Q 47.266 140.918 51.954 140.918 Q 61.622 140.918 70.508 137.744 Q 79.395 134.57 87.305 129.346 Q 95.215 124.121 102.198 117.48 Q 109.18 110.84 115.137 103.906 Q 108.497 99.902 102.881 95.264 Q 97.266 90.625 93.165 85.303 Q 89.063 79.98 86.768 73.877 Q 84.473 67.773 84.473 60.938 Q 84.473 55.273 86.573 50.293 Q 88.672 45.313 92.334 41.553 Q 95.997 37.793 101.026 35.596 Q 106.055 33.398 111.817 33.398 Q 118.262 33.398 124.024 35.4 Q 129.786 37.402 134.961 40.869 Q 140.137 44.336 144.678 49.121 Q 149.219 53.906 153.223 59.473 Q 164.161 47.266 175.049 36.475 Q 185.938 25.684 195.997 17.578 Q 206.055 9.473 214.991 4.736 Q 223.926 0 231.153 0 Q 233.985 0 236.67 0.928 Q 239.356 1.855 241.456 3.564 Q 243.555 5.273 244.825 7.764 Q 246.094 10.254 246.094 13.379 Q 246.094 19.434 242.188 27.148 Q 238.282 34.863 232.032 45.215 Q 225.293 56.25 219.336 67.236 Q 213.379 78.223 208.252 88.428 Q 203.125 98.633 198.877 107.666 Q 194.629 116.699 191.504 123.828 Q 195.411 124.316 199.317 124.609 Q 203.223 124.902 206.348 124.805 Z M 156.25 63.965 Q 160.84 70.996 164.649 78.516 Q 168.458 86.035 171.534 93.262 Q 174.61 100.488 177.002 106.982 Q 179.395 113.477 181.153 118.457 Q 192.579 93.555 205.567 69.629 Q 218.555 45.703 234.766 22.363 Q 237.403 18.457 238.526 15.869 Q 239.649 13.281 239.649 11.426 Q 239.649 8.301 237.012 6.689 Q 234.375 5.078 230.958 5.078 Q 220.118 5.078 201.417 19.873 Q 182.715 34.668 156.25 63.965 Z M 93.36 65.625 Q 93.36 70.801 95.313 75.439 Q 97.266 80.078 100.684 84.326 Q 104.102 88.574 108.79 92.334 Q 113.477 96.094 118.946 99.414 Q 126.27 90.527 133.887 81.543 Q 141.504 72.559 149.317 63.77 Q 145.899 59.277 142.237 55.42 Q 138.575 51.563 134.571 48.73 Q 130.567 45.898 126.27 44.336 Q 121.973 42.773 117.383 42.773 Q 112.208 42.773 107.813 44.531 Q 103.418 46.289 100.196 49.365 Q 96.973 52.441 95.167 56.592 Q 93.36 60.742 93.36 65.625 Z M 176.856 121.289 Q 175.489 116.895 173.194 110.645 Q 170.899 104.395 167.823 97.217 Q 164.747 90.039 160.889 82.52 Q 157.032 75 152.442 68.164 Q 145.704 75.781 138.477 84.18 Q 131.25 92.578 123.438 102.051 Q 130.274 105.859 137.745 108.936 Q 145.215 112.012 152.295 114.404 Q 159.375 116.797 165.772 118.555 Q 172.168 120.313 176.856 121.289 Z" id="0" vector-effect="non-scaling-stroke"/></g></svg>