<svg width="184.375" height="161.915" viewBox="0 0 184.375 161.915" xmlns="http://www.w3.org/2000/svg"><g id="svgGroup" stroke-linecap="round" fill-rule="evenodd" font-size="9pt" stroke="#000" stroke-width="0.25mm" fill="#000" style="stroke:#000;stroke-width:0.25mm;fill:#000"><path d="M 156.445 0 L 159.277 3.418 Q 157.715 5.371 156.299 7.178 Q 154.883 8.984 153.516 10.938 Q 163.379 14.551 169.434 19.873 Q 175.488 25.195 178.809 31.006 Q 182.129 36.816 183.252 42.432 Q 184.375 48.047 184.375 52.148 Q 184.375 57.91 182.471 63.135 Q 180.566 68.359 177.393 72.656 Q 174.219 76.953 170.02 80.127 Q 165.82 83.301 161.23 84.961 Q 170.703 92.773 175.342 102.344 Q 179.98 111.914 179.98 121.68 Q 179.98 129.883 176.611 137.207 Q 173.242 144.531 167.48 150 Q 161.719 155.469 153.857 158.691 Q 145.996 161.914 137.109 161.914 Q 129.395 161.914 122.9 159.424 Q 116.406 156.934 111.279 152.637 Q 106.152 148.34 102.393 142.48 Q 98.633 136.621 96.484 129.98 L 101.367 128.516 Q 104.98 140.234 113.281 146.631 Q 121.582 153.027 133.301 153.027 Q 140.527 153.027 147.119 150.342 Q 153.711 147.656 158.691 143.018 Q 163.672 138.379 166.602 132.08 Q 169.531 125.781 169.531 118.457 Q 169.531 113.477 168.164 108.984 Q 166.797 104.492 164.551 100.488 Q 162.305 96.484 159.521 93.115 Q 156.738 89.746 153.809 87.109 Q 151.172 87.598 148.535 87.891 Q 145.898 88.184 143.359 88.184 Q 139.844 88.184 136.182 87.646 Q 132.52 87.109 129.541 86.035 Q 126.563 84.961 124.658 83.203 Q 122.754 81.445 122.754 78.906 Q 122.754 78.32 123.047 77.197 Q 123.34 76.074 124.268 75 Q 125.195 73.926 127.051 73.096 Q 128.906 72.266 132.129 72.266 Q 135.156 72.266 138.232 72.949 Q 141.309 73.633 144.141 74.756 Q 146.973 75.879 149.609 77.295 Q 152.246 78.711 154.395 80.176 Q 157.91 78.613 161.475 75.928 Q 165.039 73.242 167.969 69.336 Q 170.898 65.43 172.754 60.352 Q 174.609 55.273 174.609 48.926 Q 174.609 37.793 168.457 28.906 Q 162.305 20.02 150.195 15.332 Q 144.336 23.535 139.258 31.641 Q 134.18 39.746 129.785 47.852 Q 125.391 55.957 121.533 64.063 Q 117.676 72.168 114.16 80.469 Q 106.055 99.414 98.34 112.842 Q 90.625 126.27 81.885 134.766 Q 73.145 143.262 62.842 147.217 Q 52.539 151.172 39.258 151.172 Q 29.004 151.172 21.582 147.803 Q 14.16 144.434 9.375 138.574 Q 4.59 132.715 2.295 124.951 Q 0 117.188 0 108.398 Q 0 98.633 3.125 88.232 Q 6.25 77.832 12.402 67.48 Q 16.309 60.938 22.07 53.857 Q 27.832 46.777 35.254 39.893 Q 42.676 33.008 51.807 26.807 Q 60.938 20.605 71.533 15.967 Q 82.129 11.328 94.189 8.545 Q 106.25 5.762 119.629 5.762 Q 127.832 5.762 134.619 6.592 Q 141.406 7.422 147.168 8.984 Q 149.414 6.738 151.709 4.492 Q 154.004 2.246 156.445 0 Z M 120.41 43.945 Q 125.586 35.352 131.201 27.783 Q 136.816 20.215 143.262 13.184 Q 139.551 12.305 135.4 11.816 Q 131.25 11.328 126.66 11.328 Q 111.914 11.328 97.607 15.381 Q 83.301 19.434 70.361 26.66 Q 57.422 33.887 46.387 43.848 Q 35.352 53.809 27.295 65.479 Q 19.238 77.148 14.697 90.137 Q 10.156 103.125 10.156 116.504 Q 10.156 123.145 11.963 128.564 Q 13.77 133.984 17.383 137.842 Q 20.996 141.699 26.318 143.799 Q 31.641 145.898 38.574 145.898 Q 50.195 145.898 58.887 141.553 Q 67.578 137.207 74.365 129.688 Q 81.152 122.168 86.621 112.158 Q 92.09 102.148 97.314 90.82 Q 102.539 79.492 108.008 67.48 Q 113.477 55.469 120.41 43.945 Z M 147.754 82.129 Q 146.289 81.055 144.287 80.127 Q 142.285 79.199 140.137 78.564 Q 137.988 77.93 135.84 77.539 Q 133.691 77.148 132.129 77.148 Q 129.395 77.148 128.662 77.783 Q 127.93 78.418 127.93 78.906 Q 127.93 79.785 129.248 80.469 Q 130.566 81.152 132.568 81.689 Q 134.57 82.227 137.012 82.52 Q 139.453 82.813 141.797 82.813 Q 142.871 82.813 144.238 82.715 Q 145.605 82.617 147.754 82.129 Z" id="0" vector-effect="non-scaling-stroke"/></g></svg>