<svg width="137.598" height="166.31" viewBox="0 0 137.598 166.31" xmlns="http://www.w3.org/2000/svg"><g id="svgGroup" stroke-linecap="round" fill-rule="evenodd" font-size="9pt" stroke="#000" stroke-width="0.25mm" fill="#000" style="stroke:#000;stroke-width:0.25mm;fill:#000"><path d="M 124.609 110.547 L 128.125 113.282 Q 118.945 128.223 108.984 138.379 Q 99.023 148.535 89.063 154.737 Q 79.102 160.938 69.434 163.623 Q 59.766 166.309 51.074 166.309 Q 38.574 166.309 29.004 161.866 Q 19.434 157.422 12.988 150.196 Q 6.543 142.969 3.271 133.741 Q 0 124.512 0 114.942 Q 0 106.739 2.295 97.461 Q 4.59 88.184 8.789 78.614 Q 12.988 69.043 18.896 59.473 Q 24.805 49.903 32.08 41.162 Q 39.355 32.422 47.852 24.903 Q 56.348 17.383 65.674 11.866 Q 75 6.348 84.912 3.174 Q 94.824 0 105.078 0 Q 111.523 0 117.432 1.807 Q 123.34 3.614 127.832 7.52 Q 132.324 11.426 134.961 17.53 Q 137.598 23.633 137.598 32.227 Q 137.598 37.989 135.84 44.727 Q 134.082 51.465 130.713 58.252 Q 127.344 65.039 122.51 71.387 Q 117.676 77.735 111.572 82.569 Q 105.469 87.403 98.096 90.332 Q 90.723 93.262 82.422 93.262 Q 73.535 93.262 66.943 90.284 Q 60.352 87.305 55.664 82.91 L 58.594 79.688 Q 58.691 79.883 60.059 81.006 Q 61.426 82.129 63.916 83.496 Q 66.406 84.864 70.02 85.938 Q 73.633 87.012 78.223 87.012 Q 85.938 87.012 92.773 84.082 Q 99.609 81.153 105.42 76.368 Q 111.23 71.582 115.869 65.43 Q 120.508 59.278 123.73 52.832 Q 126.953 46.387 128.711 40.137 Q 130.469 33.887 130.469 28.907 Q 130.469 22.95 128.711 18.555 Q 126.953 14.16 123.975 11.328 Q 120.996 8.496 116.943 7.129 Q 112.891 5.762 108.203 5.762 Q 98.926 5.762 89.795 9.034 Q 80.664 12.305 72.07 17.969 Q 63.477 23.633 55.566 31.299 Q 47.656 38.965 40.82 47.754 Q 33.984 56.543 28.418 66.065 Q 22.852 75.586 18.896 84.961 Q 14.941 94.336 12.793 103.174 Q 10.645 112.012 10.645 119.434 Q 10.645 128.028 13.135 135.645 Q 15.625 143.262 20.605 148.926 Q 25.586 154.59 33.057 157.862 Q 40.527 161.133 50.488 161.133 Q 59.375 161.133 68.945 158.399 Q 78.516 155.664 88.037 149.61 Q 97.559 143.555 106.836 133.936 Q 116.113 124.317 124.609 110.547 Z" id="0" vector-effect="non-scaling-stroke"/></g></svg>