<svg width="179.688" height="158.203" viewBox="0 0 179.688 158.203" xmlns="http://www.w3.org/2000/svg"><g id="svgGroup" stroke-linecap="round" fill-rule="evenodd" font-size="9pt" stroke="#000" stroke-width="0.25mm" fill="#000" style="stroke:#000;stroke-width:0.25mm;fill:#000"><path d="M 147.168 0 L 150.195 3.223 Q 145.313 8.398 141.113 14.063 Q 150.293 19.141 157.471 26.221 Q 164.648 33.301 169.58 41.797 Q 174.512 50.293 177.1 60.01 Q 179.688 69.727 179.688 80.078 Q 179.688 89.258 177.881 98.34 Q 176.074 107.422 172.217 115.674 Q 168.359 123.926 162.402 131.006 Q 156.445 138.086 148.145 143.311 Q 139.844 148.535 129.199 151.514 Q 118.555 154.492 105.273 154.492 Q 93.457 154.492 82.813 152.295 Q 72.168 150.098 62.402 147.461 Q 54.883 152.539 45.947 155.371 Q 37.012 158.203 25.781 158.203 Q 21.191 158.203 17.871 157.373 Q 14.551 156.543 12.451 155.078 Q 10.352 153.613 9.326 151.709 Q 8.301 149.805 8.301 147.754 Q 8.301 145.313 9.521 143.115 Q 10.742 140.918 13.232 139.258 Q 15.723 137.598 19.58 136.621 Q 23.438 135.645 28.613 135.645 Q 35.742 135.645 42.822 137.158 Q 49.902 138.672 57.227 140.625 Q 64.355 134.18 70.264 125.146 Q 76.172 116.113 81.592 105.42 Q 87.012 94.727 92.236 83.008 Q 97.461 71.289 103.369 59.473 Q 109.277 47.656 116.162 36.328 Q 123.047 25 131.641 15.039 Q 124.316 11.914 115.771 10.205 Q 107.227 8.496 97.461 8.496 Q 85.547 8.496 74.512 10.938 Q 63.477 13.379 53.906 17.676 Q 44.336 21.973 36.426 27.734 Q 28.516 33.496 22.9 40.186 Q 17.285 46.875 14.209 54.15 Q 11.133 61.426 11.133 68.652 Q 11.133 73.34 12.988 77.539 Q 14.844 81.738 18.066 84.912 Q 21.289 88.086 25.684 89.941 Q 30.078 91.797 35.254 91.797 Q 39.258 91.797 43.213 90.869 Q 47.168 89.941 50.781 88.574 Q 54.395 87.207 57.52 85.596 Q 60.645 83.984 62.988 82.568 Q 65.332 81.152 66.65 80.225 Q 67.969 79.297 68.066 79.199 L 71.191 83.301 Q 66.602 86.328 61.67 89.111 Q 56.738 91.895 51.465 94.092 Q 46.191 96.289 40.527 97.607 Q 34.863 98.926 29.004 98.926 Q 23.145 98.926 17.871 96.924 Q 12.598 94.922 8.643 91.26 Q 4.688 87.598 2.344 82.52 Q 0 77.441 0 71.289 Q 0 64.258 3.174 56.543 Q 6.348 48.828 12.256 41.26 Q 18.164 33.691 26.758 26.855 Q 35.352 20.02 46.143 14.795 Q 56.934 9.57 69.873 6.494 Q 82.813 3.418 97.461 3.418 Q 108.105 3.418 117.529 5.42 Q 126.953 7.422 135.156 11.133 Q 140.723 5.176 147.168 0 Z M 169.043 73.438 Q 169.043 64.355 166.992 56.152 Q 164.941 47.949 160.986 40.918 Q 157.031 33.887 151.27 28.125 Q 145.508 22.363 138.086 18.262 Q 130.957 28.516 125.098 39.941 Q 119.238 51.367 114.063 63.086 Q 108.887 74.805 103.906 86.328 Q 98.926 97.852 93.506 108.35 Q 88.086 118.848 81.738 127.881 Q 75.391 136.914 67.48 143.555 Q 75.293 145.703 83.105 147.314 Q 90.918 148.926 99.219 148.926 Q 116.406 148.926 129.492 143.018 Q 142.578 137.109 151.367 126.904 Q 160.156 116.699 164.6 102.93 Q 169.043 89.16 169.043 73.438 Z M 25.391 153.125 Q 33.301 153.125 39.893 150.928 Q 46.484 148.73 52.148 144.629 Q 45.703 142.969 39.844 141.846 Q 33.984 140.723 28.613 140.723 Q 20.996 140.723 17.236 142.725 Q 13.477 144.727 13.477 147.559 Q 13.477 149.805 16.162 151.465 Q 18.848 153.125 25.391 153.125 Z" id="0" vector-effect="non-scaling-stroke"/></g></svg>