<svg width="148.439" height="158.79" viewBox="0 0 148.439 158.79" xmlns="http://www.w3.org/2000/svg"><g id="svgGroup" stroke-linecap="round" fill-rule="evenodd" font-size="9pt" stroke="#000" stroke-width="0.25mm" fill="#000" style="stroke:#000;stroke-width:0.25mm;fill:#000"><path d="M 96.29 53.711 L 96.875 48.633 Q 97.168 48.731 97.657 48.731 L 100 48.731 Q 107.618 48.731 115.332 46.68 Q 123.047 44.629 129.297 40.967 Q 135.547 37.305 139.454 32.178 Q 143.36 27.051 143.36 20.899 Q 143.36 17.578 141.895 14.99 Q 140.43 12.403 137.842 10.645 Q 135.254 8.887 131.592 7.959 Q 127.93 7.031 123.536 7.031 Q 115.821 7.031 108.497 8.985 Q 101.172 10.938 94.727 14.307 Q 88.282 17.676 82.911 22.217 Q 77.54 26.758 73.633 32.08 Q 69.727 37.403 67.579 43.164 Q 65.43 48.926 65.43 54.688 Q 65.43 60.449 67.579 65.625 Q 74.317 65.821 80.176 66.602 Q 86.036 67.383 90.332 68.994 Q 94.629 70.606 97.071 73.145 Q 99.512 75.684 99.512 79.297 Q 99.512 83.203 96.582 85.254 Q 93.653 87.305 89.258 87.305 Q 85.743 87.305 82.032 86.133 Q 78.321 84.961 74.854 82.862 Q 71.387 80.762 68.213 77.783 Q 65.04 74.805 62.5 71.192 Q 51.661 72.071 42.432 76.221 Q 33.204 80.371 26.514 86.963 Q 19.825 93.555 16.016 102.1 Q 12.207 110.645 12.207 120.117 Q 12.207 127.832 14.795 134.033 Q 17.383 140.235 22.51 144.629 Q 27.637 149.024 35.303 151.367 Q 42.969 153.711 53.028 153.711 Q 64.161 153.711 74.17 150.342 Q 84.18 146.973 92.676 141.797 Q 101.172 136.621 108.106 130.42 Q 115.04 124.219 120.166 118.653 Q 125.293 113.086 128.418 108.838 Q 131.543 104.59 132.52 103.321 L 136.036 106.055 Q 133.79 109.278 129.981 114.502 Q 126.172 119.727 120.752 125.586 Q 115.332 131.446 108.252 137.354 Q 101.172 143.262 92.432 148.047 Q 83.692 152.832 73.34 155.811 Q 62.989 158.789 50.977 158.789 Q 37.793 158.789 28.223 155.469 Q 18.653 152.149 12.354 146.533 Q 6.055 140.918 3.028 133.545 Q 0 126.172 0 117.969 Q 0 112.207 1.465 106.25 Q 2.93 100.293 5.957 94.629 Q 8.985 88.965 13.77 83.887 Q 18.555 78.809 25.098 74.903 Q 31.641 70.996 40.137 68.555 Q 48.633 66.113 59.18 65.625 Q 57.422 62.11 56.446 58.252 Q 55.469 54.395 55.469 50.293 Q 55.469 42.774 58.008 36.084 Q 60.547 29.395 64.991 23.78 Q 69.434 18.164 75.44 13.77 Q 81.446 9.375 88.282 6.299 Q 95.118 3.223 102.491 1.612 Q 109.864 0 117.09 0 Q 124.512 0 130.323 1.514 Q 136.133 3.028 140.137 5.762 Q 144.141 8.496 146.29 12.354 Q 148.438 16.211 148.438 20.801 Q 148.438 25.879 146.338 30.371 Q 144.239 34.863 140.674 38.526 Q 137.11 42.188 132.373 45.069 Q 127.637 47.949 122.315 49.903 Q 116.993 51.856 111.329 52.881 Q 105.665 53.906 100.391 53.906 Q 98.633 53.906 97.559 53.809 Q 96.485 53.711 96.29 53.711 Z M 94.336 79.102 Q 94.336 76.758 92.237 75.244 Q 90.137 73.731 86.768 72.852 Q 83.399 71.973 79.151 71.533 Q 74.903 71.094 70.508 70.996 Q 72.364 73.731 74.659 75.83 Q 76.954 77.93 79.395 79.395 Q 81.836 80.86 84.327 81.641 Q 86.817 82.422 89.063 82.422 Q 91.7 82.422 93.018 81.446 Q 94.336 80.469 94.336 79.102 Z" id="0" vector-effect="non-scaling-stroke"/></g></svg>