<svg width="221.485" height="149.903" viewBox="0 0 221.485 149.903" xmlns="http://www.w3.org/2000/svg"><g id="svgGroup" stroke-linecap="round" fill-rule="evenodd" font-size="9pt" stroke="#000" stroke-width="0.25mm" fill="#000" style="stroke:#000;stroke-width:0.25mm;fill:#000"><path d="M 163.672 20.313 L 166.504 23.34 Q 166.407 23.34 162.891 26.807 Q 159.375 30.273 153.516 37.354 Q 147.657 44.434 139.991 55.225 Q 132.325 66.016 123.926 80.664 L 120.118 87.305 Q 123.34 86.523 126.661 85.84 Q 129.981 85.156 133.399 84.57 L 137.793 83.691 Q 140.918 78.027 143.506 74.414 Q 146.094 70.801 148.291 68.701 Q 150.489 66.602 152.344 65.82 Q 154.2 65.039 155.664 65.039 Q 157.52 65.039 159.278 66.309 Q 161.036 67.578 161.036 70.898 Q 161.036 73.535 159.766 75.977 Q 158.497 78.418 156.153 80.566 Q 153.809 82.715 150.586 84.375 Q 147.364 86.035 143.457 87.012 Q 141.602 90.82 139.649 94.971 Q 137.696 99.121 135.547 103.32 Q 133.399 107.52 131.153 111.572 Q 128.907 115.625 126.465 119.238 L 119.532 112.695 Q 120.411 111.621 122.217 109.277 Q 124.024 106.934 126.123 104.004 Q 128.223 101.074 130.274 97.803 Q 132.325 94.531 133.789 91.602 L 135.157 88.672 Q 130.664 89.648 126.123 90.674 Q 121.582 91.699 116.797 92.969 Q 109.278 105.859 102.1 116.357 Q 94.922 126.855 86.817 134.326 Q 78.711 141.797 69.043 145.85 Q 59.375 149.902 46.778 149.902 Q 38.575 149.902 30.225 147.607 Q 21.875 145.313 15.186 140.918 Q 8.497 136.523 4.248 130.176 Q 0 123.828 0 115.723 Q 0 109.375 2.491 104.443 Q 4.981 99.512 9.278 96.143 Q 13.575 92.773 19.288 91.064 Q 25 89.355 31.348 89.355 Q 36.622 89.355 41.944 90.625 Q 47.266 91.895 52.247 94.238 Q 57.227 96.582 61.67 99.951 Q 66.114 103.32 69.629 107.52 L 65.918 110.352 Q 62.989 107.422 59.375 105.127 Q 55.762 102.832 51.661 101.221 Q 47.559 99.609 43.262 98.779 Q 38.965 97.949 34.766 97.949 Q 30.176 97.949 25.782 99.121 Q 21.387 100.293 17.969 102.881 Q 14.551 105.469 12.403 109.521 Q 10.254 113.574 10.254 119.434 Q 10.254 124.707 12.891 129.297 Q 15.528 133.887 20.069 137.256 Q 24.61 140.625 30.713 142.578 Q 36.817 144.531 43.75 144.531 Q 53.614 144.531 61.524 140.869 Q 69.434 137.207 76.123 130.859 Q 82.813 124.512 88.721 115.967 Q 94.629 107.422 100.489 97.754 Q 97.754 98.633 94.922 99.609 Q 92.09 100.586 89.258 101.66 L 87.403 96.875 Q 91.895 95.41 95.997 94.141 L 104.2 91.602 Q 109.766 82.324 115.772 72.607 Q 121.778 62.891 128.907 53.564 Q 136.036 44.238 144.581 35.742 Q 153.125 27.246 163.672 20.313 Z M 98.536 71.973 L 100.586 76.465 Q 91.602 80.566 82.715 82.422 Q 73.829 84.277 66.016 84.277 Q 56.934 84.277 49.414 81.836 Q 41.895 79.395 36.426 75 Q 30.957 70.605 27.93 64.453 Q 24.903 58.301 24.903 50.879 Q 24.903 41.602 28.077 34.375 Q 31.25 27.148 36.719 21.631 Q 42.188 16.113 49.61 12.305 Q 57.032 8.496 65.528 6.055 Q 74.024 3.613 83.204 2.539 Q 92.383 1.465 101.368 1.465 Q 111.719 1.465 121.485 2.734 Q 131.25 4.004 140.479 5.518 Q 149.707 7.031 158.399 8.301 Q 167.09 9.57 175.391 9.57 Q 184.864 9.57 192.872 8.105 Q 200.879 6.641 206.641 4.834 Q 212.403 3.027 215.674 1.514 Q 218.946 0 219.043 0 L 221.485 4.492 Q 221.192 4.688 217.676 6.299 Q 214.161 7.91 208.155 9.814 Q 202.149 11.719 193.848 13.232 Q 185.547 14.746 175.586 14.746 Q 166.309 14.746 157.715 13.525 Q 149.122 12.305 140.381 10.84 Q 131.641 9.375 122.266 8.154 Q 112.891 6.934 102.051 6.934 Q 86.036 6.934 73.78 10.01 Q 61.524 13.086 53.272 18.799 Q 45.02 24.512 40.821 32.666 Q 36.622 40.82 36.622 50.879 Q 36.622 57.813 39.307 62.988 Q 41.993 68.164 46.534 71.582 Q 51.075 75 56.983 76.709 Q 62.891 78.418 69.336 78.418 Q 75 78.418 80.274 77.441 Q 85.547 76.465 89.551 75.244 Q 93.555 74.023 95.997 72.998 Q 98.438 71.973 98.536 71.973 Z M 154.688 70.117 Q 153.028 70.117 150.928 73.193 Q 148.829 76.27 146.289 81.25 Q 149.317 80.078 151.172 78.809 Q 153.028 77.539 154.102 76.27 Q 155.176 75 155.567 73.73 Q 155.957 72.461 155.957 71.289 Q 155.957 70.605 155.567 70.361 Q 155.176 70.117 154.688 70.117 Z" id="0" vector-effect="non-scaling-stroke"/></g></svg>