<svg width="232.52" height="160.157" viewBox="0 0 232.52 160.157" xmlns="http://www.w3.org/2000/svg"><g id="svgGroup" stroke-linecap="round" fill-rule="evenodd" font-size="9pt" stroke="#000" stroke-width="0.25mm" fill="#000" style="stroke:#000;stroke-width:0.25mm;fill:#000"><path d="M 178.027 97.071 L 178.223 91.993 Q 179.59 92.188 182.031 92.627 Q 184.473 93.067 187.354 94.141 Q 190.234 95.215 193.213 97.12 Q 196.191 99.024 198.633 102.247 Q 201.074 105.469 202.588 110.157 Q 204.102 114.844 204.102 121.387 Q 204.102 128.516 201.465 135.352 Q 198.828 142.188 194.141 147.51 Q 189.453 152.833 183.008 156.104 Q 176.563 159.375 169.043 159.375 Q 161.23 159.375 155.518 156.983 Q 149.805 154.59 146.143 150.245 Q 142.48 145.899 140.723 139.795 Q 138.965 133.692 138.965 126.27 Q 138.965 118.36 141.602 105.86 Q 144.238 93.36 151.367 77.149 Q 140.137 81.739 129.15 85.401 Q 118.164 89.063 107.227 92.286 Q 101.465 101.172 94.434 109.717 Q 87.402 118.262 79.736 125.782 Q 72.07 133.301 63.965 139.6 Q 55.859 145.899 47.949 150.489 Q 40.039 155.079 32.568 157.618 Q 25.098 160.157 18.652 160.157 Q 12.891 160.157 9.277 158.497 Q 5.664 156.836 3.613 154.444 Q 1.563 152.051 0.781 149.219 Q 0 146.387 0 144.043 Q 0 141.114 1.416 137.549 Q 2.832 133.985 5.762 130.274 Q 8.691 126.563 13.184 122.999 Q 17.676 119.434 23.73 116.309 Q 33.105 111.524 42.383 107.715 Q 51.66 103.907 60.791 100.733 Q 69.922 97.559 78.906 94.825 Q 87.891 92.09 96.875 89.454 Q 101.66 81.055 105.713 72.413 Q 109.766 63.77 112.744 55.567 Q 115.723 47.364 117.432 39.893 Q 119.141 32.422 119.141 26.27 Q 119.141 21.583 117.627 17.676 Q 116.113 13.77 113.33 10.987 Q 110.547 8.204 106.543 6.641 Q 102.539 5.079 97.559 5.079 Q 88.379 5.079 80.029 7.276 Q 71.68 9.473 64.453 13.184 Q 57.227 16.895 51.416 21.875 Q 45.605 26.856 41.455 32.422 Q 37.305 37.989 35.059 43.799 Q 32.813 49.61 32.813 55.079 Q 32.813 60.547 35.107 64.112 Q 37.402 67.676 40.918 69.776 Q 44.434 71.875 48.486 72.706 Q 52.539 73.536 56.055 73.536 Q 60.059 73.536 63.721 72.852 Q 67.383 72.168 70.166 71.387 Q 72.949 70.606 74.658 69.874 L 76.367 69.141 L 78.516 73.829 Q 78.027 74.122 75.732 74.952 Q 73.438 75.782 69.727 76.758 Q 66.016 77.735 61.084 78.467 Q 56.152 79.2 50.391 79.2 Q 44.434 79.2 39.111 77.833 Q 33.789 76.465 29.834 73.536 Q 25.879 70.606 23.584 65.967 Q 21.289 61.329 21.289 54.688 Q 21.289 47.168 24.756 40.235 Q 28.223 33.301 34.082 27.198 Q 39.941 21.094 47.607 16.114 Q 55.273 11.133 63.721 7.52 Q 72.168 3.907 80.811 1.954 Q 89.453 0 97.266 0 Q 104.395 0 110.303 1.954 Q 116.211 3.907 120.508 7.764 Q 124.805 11.622 127.197 17.383 Q 129.59 23.145 129.59 30.762 Q 129.59 37.208 128.027 44.532 Q 126.465 51.856 123.926 59.083 Q 121.387 66.309 118.164 73.047 Q 114.941 79.786 111.523 85.157 Q 122.461 81.934 133.105 78.37 Q 143.75 74.805 154.59 70.118 Q 165.43 49.024 175.195 35.401 Q 184.961 21.778 193.311 13.916 Q 201.66 6.055 208.496 3.028 Q 215.332 0 220.313 0 Q 226.074 0 229.297 3.125 Q 232.52 6.25 232.52 11.817 Q 232.52 18.165 227.783 25.342 Q 223.047 32.52 214.941 39.258 Q 202.832 49.317 190.918 56.836 Q 179.004 64.356 166.895 70.215 Q 161.328 82.032 157.715 91.504 Q 154.102 100.977 152.002 108.497 Q 149.902 116.016 149.023 121.875 Q 148.145 127.735 148.145 132.227 Q 148.145 137.891 149.707 142.041 Q 151.27 146.192 154.053 148.926 Q 156.836 151.661 160.645 152.979 Q 164.453 154.297 169.043 154.297 Q 175.098 154.297 180.518 151.709 Q 185.938 149.122 190.039 144.629 Q 194.141 140.137 196.533 134.131 Q 198.926 128.125 198.926 121.29 Q 198.926 115.43 197.51 111.329 Q 196.094 107.227 193.896 104.541 Q 191.699 101.856 189.063 100.342 Q 186.426 98.829 184.131 98.096 Q 181.836 97.364 180.127 97.217 Q 178.418 97.071 178.027 97.071 Z M 92.578 96.68 L 86.523 98.438 Q 80.273 100.293 72.363 102.979 Q 64.453 105.665 56.25 109.083 Q 48.047 112.5 40.186 116.553 Q 32.324 120.606 26.221 125.196 Q 20.117 129.786 16.406 134.913 Q 12.695 140.04 12.695 145.606 Q 12.695 149.317 15.576 151.27 Q 18.457 153.223 23.047 153.223 Q 31.055 153.223 40.039 148.926 Q 49.023 144.629 58.154 137.061 Q 67.285 129.493 76.123 119.141 Q 84.961 108.79 92.578 96.68 Z M 170.508 62.598 Q 180.762 57.325 191.016 50.635 Q 201.27 43.946 211.816 35.254 Q 216.113 31.739 219.092 28.321 Q 222.07 24.903 223.926 21.875 Q 225.781 18.848 226.611 16.26 Q 227.441 13.672 227.441 11.719 Q 227.441 8.887 225.732 6.934 Q 224.023 4.981 220.313 4.981 Q 216.309 4.981 212.061 7.276 Q 207.813 9.571 203.418 13.624 Q 199.023 17.676 194.678 23.194 Q 190.332 28.711 186.133 35.108 Q 181.934 41.504 177.979 48.536 Q 174.023 55.567 170.508 62.598 Z" id="0" vector-effect="non-scaling-stroke"/></g></svg>