<svg width="155.86" height="159.083" viewBox="0 0 155.86 159.083" xmlns="http://www.w3.org/2000/svg"><g id="svgGroup" stroke-linecap="round" fill-rule="evenodd" font-size="9pt" stroke="#000" stroke-width="0.25mm" fill="#000" style="stroke:#000;stroke-width:0.25mm;fill:#000"><path d="M 113.379 119.922 L 110.743 123.34 Q 100.391 116.211 94.434 108.252 Q 88.477 100.293 85.45 92.286 Q 82.422 84.278 81.592 76.758 Q 80.762 69.239 80.762 62.891 Q 80.762 52.149 82.862 43.311 Q 84.961 34.473 88.428 27.491 Q 91.895 20.508 96.436 15.333 Q 100.977 10.157 105.957 6.739 Q 110.938 3.321 115.967 1.661 Q 120.996 0 125.391 0 Q 132.032 0 137.598 3.565 Q 143.164 7.129 147.217 13.624 Q 151.27 20.118 153.565 29.151 Q 155.86 38.184 155.86 49.024 Q 155.86 63.379 152.832 77.1 Q 149.805 90.821 143.994 103.077 Q 138.184 115.333 129.785 125.586 Q 121.387 135.84 110.694 143.311 Q 100 150.782 87.159 154.932 Q 74.317 159.083 59.571 159.083 Q 46.68 159.083 35.743 155.665 Q 24.805 152.247 16.895 146.583 Q 8.985 140.918 4.493 133.545 Q 0 126.172 0 118.262 Q 0 110.84 2.442 105.86 Q 4.883 100.879 8.936 97.852 Q 12.989 94.825 18.164 93.506 Q 23.34 92.188 28.809 92.188 Q 39.063 92.188 48.584 95.02 Q 58.106 97.852 66.748 103.028 Q 75.391 108.204 82.91 115.528 Q 90.43 122.852 96.778 131.836 L 92.578 134.766 Q 85.547 124.708 77.832 117.774 Q 70.118 110.84 62.5 106.543 Q 54.883 102.247 47.657 100.391 Q 40.43 98.536 34.375 98.536 Q 28.223 98.536 23.828 100 Q 19.434 101.465 16.553 104.004 Q 13.672 106.543 12.305 110.157 Q 10.938 113.77 10.938 117.969 Q 10.938 125.684 14.942 132.276 Q 18.946 138.868 25.684 143.702 Q 32.422 148.536 41.211 151.27 Q 50 154.004 59.571 154.004 Q 71.289 154.004 81.201 150.879 Q 91.114 147.754 99.317 142.286 Q 107.52 136.817 114.063 129.444 Q 120.606 122.071 125.733 113.526 Q 130.86 104.981 134.473 95.752 Q 138.086 86.524 140.43 77.393 Q 142.774 68.262 143.897 59.62 Q 145.02 50.977 145.02 43.653 Q 145.02 34.18 143.311 27.002 Q 141.602 19.825 138.868 14.991 Q 136.133 10.157 132.569 7.666 Q 129.004 5.176 125.391 5.176 Q 119.629 5.176 113.672 9.375 Q 107.715 13.575 102.881 21.583 Q 98.047 29.59 95.02 41.211 Q 91.993 52.833 91.993 67.579 Q 91.993 78.516 93.994 87.159 Q 95.996 95.801 99.17 102.247 Q 102.344 108.692 106.104 113.086 Q 109.864 117.481 113.379 119.922 Z" id="0" vector-effect="non-scaling-stroke"/></g></svg>