<svg width="160.547" height="229.102" viewBox="0 0 160.547 229.102" xmlns="http://www.w3.org/2000/svg"><g id="svgGroup" stroke-linecap="round" fill-rule="evenodd" font-size="9pt" stroke="#000" stroke-width="0.25mm" fill="#000" style="stroke:#000;stroke-width:0.25mm;fill:#000"><path d="M 153.125 134.18 L 151.661 138.77 Q 147.559 137.695 143.506 136.67 Q 139.453 135.645 135.254 134.766 Q 130.274 144.922 124.707 154.688 Q 119.141 164.453 112.891 173.926 Q 108.106 181.152 102.198 188.086 Q 96.289 195.02 89.698 201.123 Q 83.106 207.227 76.026 212.354 Q 68.946 217.48 61.768 221.24 Q 54.59 225 47.51 227.051 Q 40.43 229.102 33.789 229.102 Q 27.832 229.102 21.778 227.002 Q 15.723 224.902 10.889 220.703 Q 6.055 216.504 3.028 210.205 Q 0 203.906 0 195.41 Q 0 191.016 1.026 186.133 Q 2.051 181.25 4.395 176.074 Q 6.739 170.898 10.45 165.479 Q 14.161 160.059 19.532 154.395 Q 26.661 146.875 35.498 141.406 Q 44.336 135.938 54.297 132.373 Q 64.258 128.809 75.098 127.1 Q 85.938 125.391 97.071 125.391 Q 104.395 125.391 111.67 126.074 Q 118.946 126.758 126.27 128.027 Q 131.446 117.285 135.645 106.641 Q 139.844 95.996 142.969 85.645 Q 147.657 69.824 149.707 58.203 Q 151.758 46.582 151.758 38.086 Q 151.758 30.859 150.586 25.635 Q 149.414 20.41 147.559 16.748 Q 145.703 13.086 143.262 10.791 Q 140.821 8.496 138.33 7.275 Q 135.84 6.055 133.448 5.615 Q 131.055 5.176 129.2 5.176 Q 121.387 5.176 115.235 8.887 Q 109.082 12.598 104.834 19.336 Q 100.586 26.074 98.34 35.596 Q 96.094 45.117 96.094 56.738 Q 96.094 65.82 97.657 73.535 Q 99.219 81.25 101.563 87.598 Q 103.907 93.945 106.69 98.828 Q 109.473 103.711 111.866 107.031 Q 114.258 110.352 115.821 112.109 Q 117.383 113.867 117.481 113.867 L 114.453 116.992 Q 108.203 111.621 102.735 105.078 Q 97.266 98.535 93.262 91.016 Q 89.258 83.496 86.914 75.049 Q 84.571 66.602 84.571 57.324 Q 84.571 46.777 87.598 36.523 Q 90.625 26.27 96.387 18.115 Q 102.149 9.961 110.547 4.98 Q 118.946 0 129.688 0 Q 132.129 0 135.352 0.488 Q 138.575 0.977 141.993 2.49 Q 145.411 4.004 148.78 6.738 Q 152.149 9.473 154.737 14.014 Q 157.325 18.555 158.936 25.146 Q 160.547 31.738 160.547 40.918 Q 160.547 45.117 160.157 49.854 Q 159.766 54.59 158.985 60.059 Q 156.25 78.223 150.782 95.752 Q 145.313 113.281 137.403 130.273 Q 141.504 131.152 145.411 132.129 Q 149.317 133.105 153.125 134.18 Z M 33.692 224.023 Q 41.016 224.414 48.926 221.191 Q 56.836 217.969 64.844 211.865 Q 72.852 205.762 80.811 197.168 Q 88.77 188.574 96.338 178.32 Q 103.907 168.066 110.889 156.543 Q 117.871 145.02 123.926 132.91 Q 118.946 132.227 114.014 131.836 Q 109.082 131.445 103.907 131.445 Q 88.672 131.445 75.733 134.863 Q 62.793 138.281 52.198 143.945 Q 41.602 149.609 33.496 156.934 Q 25.391 164.258 19.922 172.021 Q 14.453 179.785 11.621 187.451 Q 8.789 195.117 8.789 201.465 Q 8.789 206.445 10.498 210.596 Q 12.207 214.746 15.381 217.725 Q 18.555 220.703 23.194 222.363 Q 27.832 224.023 33.692 224.023 Z" id="0" vector-effect="non-scaling-stroke"/></g></svg>