<svg width="281.251" height="169.825" viewBox="0 0 281.251 169.825" xmlns="http://www.w3.org/2000/svg"><g id="svgGroup" stroke-linecap="round" fill-rule="evenodd" font-size="9pt" stroke="#000" stroke-width="0.25mm" fill="#000" style="stroke:#000;stroke-width:0.25mm;fill:#000"><path d="M 115.626 70.508 L 119.727 73.535 Q 119.434 73.926 116.993 76.27 Q 114.551 78.613 110.108 81.25 Q 105.665 83.887 99.171 86.035 Q 92.676 88.184 84.278 88.184 Q 78.809 88.184 73.096 86.719 Q 67.384 85.254 62.696 81.738 Q 58.009 78.223 54.981 72.461 Q 51.954 66.699 51.954 58.203 Q 51.954 51.27 54.102 45.41 Q 56.251 39.551 60.01 34.766 Q 63.77 29.98 68.995 26.318 Q 74.219 22.656 80.323 20.215 Q 86.426 17.773 93.262 16.504 Q 100.098 15.234 107.13 15.234 Q 110.157 15.234 114.21 15.576 Q 118.262 15.918 122.51 16.26 Q 126.759 16.602 130.86 16.943 Q 134.962 17.285 138.184 17.285 Q 141.798 17.285 145.948 16.846 Q 150.098 16.406 155.128 15.234 Q 160.157 14.063 166.212 11.963 Q 172.266 9.863 179.786 6.543 L 182.227 10.938 L 180.176 12.988 Q 178.126 15.039 174.512 20.215 Q 170.899 25.391 166.016 34.375 Q 161.134 43.359 155.274 57.324 Q 149.415 71.387 143.409 85.205 Q 137.403 99.023 130.469 111.426 Q 123.536 123.828 115.284 134.424 Q 107.032 145.02 96.632 152.734 Q 86.231 160.449 73.389 164.795 Q 60.548 169.141 44.337 169.141 Q 34.669 169.141 26.514 166.895 Q 18.36 164.648 12.501 160.4 Q 6.641 156.152 3.321 150.098 Q 0.001 144.043 0.001 136.426 Q 0.001 126.953 4.005 119.873 Q 8.009 112.793 14.649 108.008 Q 21.29 103.223 30.03 100.83 Q 38.77 98.438 48.145 98.438 Q 57.13 98.438 66.212 100.195 Q 75.294 101.953 83.692 105.176 L 81.837 109.961 Q 75.587 107.617 68.067 106.396 Q 60.548 105.176 54.005 105.176 Q 43.946 105.176 36.036 107.324 Q 28.126 109.473 22.608 113.525 Q 17.091 117.578 14.21 123.34 Q 11.329 129.102 11.329 136.23 Q 11.329 143.359 14.698 148.486 Q 18.067 153.613 23.438 156.885 Q 28.809 160.156 35.401 161.719 Q 41.993 163.281 48.341 163.281 Q 60.157 163.281 69.678 160.107 Q 79.2 156.934 86.915 151.465 Q 94.63 145.996 100.733 138.672 Q 106.837 131.348 111.964 122.998 Q 117.091 114.648 121.387 105.762 Q 125.684 96.875 129.688 88.281 Q 136.622 72.266 143.848 58.105 Q 146.876 52.051 150.343 45.801 Q 153.809 39.551 157.423 33.838 Q 161.036 28.125 164.698 23.291 Q 168.36 18.457 171.778 15.332 Q 166.016 17.48 161.182 18.848 Q 156.348 20.215 152.1 20.996 Q 147.852 21.777 143.897 22.07 Q 139.942 22.363 135.841 22.363 Q 129.2 22.363 122.071 21.436 Q 114.942 20.508 108.301 20.508 Q 99.415 20.508 91.26 22.803 Q 83.106 25.098 76.856 29.639 Q 70.606 34.18 66.895 41.016 Q 63.184 47.852 63.184 57.031 Q 63.184 62.598 64.942 67.139 Q 66.7 71.68 70.02 74.902 Q 73.341 78.125 78.126 79.883 Q 82.911 81.641 88.868 81.641 Q 95.606 81.641 100.587 79.98 Q 105.567 78.32 108.839 76.27 Q 112.11 74.219 113.77 72.461 Q 115.43 70.703 115.626 70.508 Z M 275.587 41.504 L 271.094 39.063 Q 271.094 38.965 271.876 37.402 Q 272.657 35.84 273.585 33.35 Q 274.512 30.859 275.245 27.734 Q 275.977 24.609 275.977 21.387 Q 275.977 18.066 274.757 15.283 Q 273.536 12.5 271.436 10.498 Q 269.337 8.496 266.407 7.373 Q 263.477 6.25 260.157 6.25 Q 255.762 6.25 251.612 8.594 Q 247.462 10.938 242.921 16.26 Q 238.38 21.582 233.106 30.127 Q 227.833 38.672 221.094 51.074 Q 217.384 58.008 213.624 63.33 Q 209.864 68.652 206.153 72.656 Q 202.442 76.66 198.829 79.541 Q 195.216 82.422 191.798 84.375 Q 195.02 88.184 197.218 93.799 Q 199.415 99.414 199.415 107.617 Q 199.415 112.012 198.292 117.285 Q 197.169 122.559 195.85 127.93 Q 194.532 133.301 193.458 138.379 Q 192.384 143.457 192.384 147.363 Q 192.384 152.637 193.946 155.859 Q 195.509 159.082 197.95 160.889 Q 200.391 162.695 203.272 163.281 Q 206.153 163.867 208.692 163.867 Q 212.891 163.867 216.749 162.549 Q 220.606 161.23 223.634 159.57 Q 227.149 157.715 230.176 155.176 L 233.399 159.18 Q 233.106 159.375 230.811 161.084 Q 228.516 162.793 224.757 164.746 Q 220.997 166.699 216.212 168.262 Q 211.426 169.824 206.251 169.824 Q 200.88 169.824 196.241 167.969 Q 191.602 166.113 188.233 162.695 Q 184.864 159.277 182.911 154.59 Q 180.958 149.902 180.958 144.141 Q 180.958 138.672 182.325 133.301 Q 183.692 127.93 185.352 122.754 Q 187.012 117.578 188.38 112.695 Q 189.747 107.813 189.747 103.32 Q 189.747 99.414 188.819 95.313 Q 187.891 91.211 185.255 87.5 Q 180.762 88.867 176.661 89.746 Q 172.559 90.625 167.286 90.625 Q 162.891 90.625 160.352 89.6 Q 157.813 88.574 156.593 87.256 Q 155.372 85.938 155.03 84.619 Q 154.688 83.301 154.688 82.617 Q 154.688 78.516 158.35 75.635 Q 162.012 72.754 168.36 72.754 Q 171.778 72.754 176.466 74.268 Q 181.153 75.781 186.231 79.297 Q 191.602 75.488 196.143 69.727 Q 200.684 63.965 204.786 57.08 Q 208.887 50.195 212.794 42.627 Q 216.7 35.059 220.801 27.539 Q 228.126 14.16 237.403 7.08 Q 246.68 0 257.032 0 Q 261.524 0 265.87 1.416 Q 270.216 2.832 273.634 5.566 Q 277.051 8.301 279.151 12.256 Q 281.251 16.211 281.251 21.289 Q 281.251 25 280.421 28.516 Q 279.591 32.031 278.565 34.814 Q 277.54 37.598 276.612 39.404 Q 275.684 41.211 275.587 41.504 Z M 180.762 82.52 Q 178.223 80.566 174.854 79.199 Q 171.485 77.832 168.165 77.832 Q 164.356 77.832 162.257 79.15 Q 160.157 80.469 160.157 82.227 Q 160.157 83.301 161.573 84.375 Q 162.989 85.449 167.188 85.449 Q 170.216 85.449 173.878 84.717 Q 177.54 83.984 180.762 82.52 Z" id="0" vector-effect="non-scaling-stroke"/></g></svg>