<svg width="186.329" height="155.079" viewBox="0 0 186.329 155.079" xmlns="http://www.w3.org/2000/svg"><g id="svgGroup" stroke-linecap="round" fill-rule="evenodd" font-size="9pt" stroke="#000" stroke-width="0.25mm" fill="#000" style="stroke:#000;stroke-width:0.25mm;fill:#000"><path d="M 93.458 18.848 L 90.919 23.243 Q 90.821 23.243 88.477 22.119 Q 86.134 20.996 82.032 19.727 Q 77.931 18.457 72.267 17.383 Q 66.602 16.309 60.059 16.309 Q 48.536 16.309 39.405 19.678 Q 30.274 23.047 23.976 28.907 Q 17.677 34.766 14.308 42.627 Q 10.938 50.489 10.938 59.375 Q 10.938 69.336 15.528 77.198 Q 20.118 85.059 27.833 90.479 Q 35.548 95.899 45.753 98.731 Q 55.958 101.563 67.188 101.563 Q 71.778 101.563 76.222 101.27 Q 80.665 100.977 85.059 100.293 Q 91.993 89.453 98.487 77.832 Q 104.981 66.211 111.427 55.078 Q 117.872 43.946 124.415 33.936 Q 130.958 23.926 138.038 16.407 Q 145.118 8.887 152.931 4.444 Q 160.743 0 169.727 0 Q 173.243 0 176.27 1.123 Q 179.298 2.246 181.544 4.541 Q 183.79 6.836 185.059 10.352 Q 186.329 13.868 186.329 18.555 Q 186.329 26.172 183.399 34.619 Q 180.47 43.067 174.903 51.514 Q 169.337 59.961 161.329 68.116 Q 153.321 76.27 143.165 83.203 Q 133.009 90.137 120.899 95.557 Q 108.79 100.977 95.118 104.004 Q 88.673 112.891 81.837 120.752 Q 75.001 128.614 67.384 134.961 Q 74.806 136.914 81.934 139.112 Q 89.063 141.309 95.46 143.116 Q 101.856 144.922 107.325 146.143 Q 112.794 147.364 116.993 147.364 Q 123.243 147.364 129.054 145.215 Q 134.864 143.067 140.626 137.598 L 144.63 140.723 Q 144.532 140.821 143.556 141.944 Q 142.579 143.067 140.626 144.678 Q 138.673 146.289 135.743 148.096 Q 132.813 149.903 128.858 151.465 Q 124.903 153.028 119.874 154.053 Q 114.845 155.078 108.692 155.078 Q 102.345 155.078 95.851 153.955 Q 89.356 152.832 82.716 151.026 Q 76.075 149.219 69.434 147.071 Q 62.794 144.922 56.349 142.871 Q 48.634 147.559 40.235 150.244 Q 31.837 152.93 22.559 152.93 Q 14.649 152.93 10.45 150.098 Q 6.251 147.266 6.251 142.578 Q 6.251 136.426 13.087 133.106 Q 19.923 129.785 33.79 129.785 Q 39.845 129.785 45.997 130.664 Q 52.149 131.543 58.497 132.91 Q 64.649 127.539 70.216 120.801 Q 75.782 114.063 81.056 106.348 Q 77.052 106.836 72.95 107.08 Q 68.849 107.325 64.649 107.325 Q 49.317 107.325 37.306 103.662 Q 25.294 100 16.993 93.604 Q 8.692 87.207 4.347 78.565 Q 0.001 69.922 0.001 59.961 Q 0.001 48.243 4.493 39.16 Q 8.985 30.078 16.847 23.877 Q 24.708 17.676 35.352 14.405 Q 45.997 11.133 58.204 11.133 Q 65.919 11.133 72.267 12.305 Q 78.614 13.477 83.253 14.844 Q 87.892 16.211 90.528 17.481 Q 93.165 18.75 93.458 18.848 Z M 170.118 5.371 Q 164.649 5.371 159.278 9.278 Q 153.907 13.184 148.438 19.873 Q 142.97 26.563 137.354 35.596 Q 131.739 44.629 125.782 54.834 Q 119.825 65.039 113.38 75.879 Q 106.934 86.719 99.903 97.168 Q 111.622 93.946 122.218 88.77 Q 132.813 83.594 141.847 77.149 Q 150.88 70.703 158.155 63.33 Q 165.431 55.957 170.558 48.243 Q 175.684 40.528 178.419 32.959 Q 181.153 25.391 181.153 18.457 Q 181.153 14.844 180.274 12.354 Q 179.395 9.864 177.882 8.301 Q 176.368 6.739 174.366 6.055 Q 172.364 5.371 170.118 5.371 Z M 21.974 147.852 Q 29.2 147.852 35.645 145.85 Q 42.091 143.848 48.145 140.332 Q 41.7 138.477 35.694 137.305 Q 29.688 136.133 24.122 136.133 Q 17.481 136.133 14.405 138.086 Q 11.329 140.039 11.329 142.578 Q 11.329 143.36 11.768 144.287 Q 12.208 145.215 13.38 145.996 Q 14.552 146.778 16.602 147.315 Q 18.653 147.852 21.974 147.852 Z" id="0" vector-effect="non-scaling-stroke"/></g></svg>