<svg width="266.114" height="182.911" viewBox="0 0 266.114 182.911" xmlns="http://www.w3.org/2000/svg"><g id="svgGroup" stroke-linecap="round" fill-rule="evenodd" font-size="9pt" stroke="#000" stroke-width="0.25mm" fill="#000" style="stroke:#000;stroke-width:0.25mm;fill:#000"><path d="M 263.575 170.996 L 266.114 175.391 Q 265.821 175.586 263.477 176.758 Q 261.133 177.93 257.325 179.297 Q 253.516 180.664 248.633 181.787 Q 243.75 182.91 238.477 182.91 Q 229.883 182.91 223.047 179.883 Q 216.211 176.855 211.475 171.338 Q 206.739 165.82 204.2 158.057 Q 201.661 150.293 201.661 140.82 Q 201.661 131.738 203.907 120.85 Q 206.153 109.961 209.766 98.438 Q 213.379 86.914 217.92 75.391 Q 222.461 63.867 227.1 53.467 Q 231.739 43.066 235.938 34.424 Q 240.137 25.781 243.164 20.02 Q 237.696 26.27 230.664 34.424 Q 223.633 42.578 215.674 52.295 Q 207.715 62.012 199.122 72.998 Q 190.528 83.984 181.788 95.85 Q 173.047 107.715 164.454 120.166 Q 155.86 132.617 148.047 145.215 L 143.36 143.652 Q 144.825 127.734 148.194 112.061 Q 151.563 96.387 155.811 81.885 Q 160.059 67.383 164.795 54.639 Q 169.532 41.895 173.829 31.836 Q 167.286 40.82 160.791 51.318 Q 154.297 61.816 147.657 72.9 Q 141.016 83.984 133.985 95.166 Q 126.954 106.348 119.336 116.65 Q 111.719 126.953 103.272 135.889 Q 94.825 144.824 85.303 151.416 Q 75.782 158.008 64.991 161.816 Q 54.2 165.625 41.895 165.625 Q 32.422 165.625 24.707 162.793 Q 16.993 159.961 11.475 155.029 Q 5.957 150.098 2.979 143.457 Q 0 136.816 0 129.102 Q 0 121.582 2.393 115.479 Q 4.786 109.375 8.789 104.639 Q 12.793 99.902 18.116 96.436 Q 23.438 92.969 29.297 90.723 Q 35.157 88.477 41.163 87.402 Q 47.168 86.328 52.637 86.328 Q 63.965 86.328 74.317 89.014 Q 84.668 91.699 94.239 98.535 L 90.821 102.344 Q 90.723 102.246 88.282 100.537 Q 85.84 98.828 81.25 96.777 Q 76.661 94.727 69.873 93.066 Q 63.086 91.406 54.395 91.406 Q 45.997 91.406 38.135 93.652 Q 30.274 95.898 24.268 100.439 Q 18.262 104.98 14.649 111.865 Q 11.036 118.75 11.036 128.027 Q 11.036 134.668 13.623 140.332 Q 16.211 145.996 20.801 150.146 Q 25.391 154.297 31.836 156.641 Q 38.282 158.984 46.094 158.984 Q 57.813 158.984 68.555 154.004 Q 79.297 149.023 89.258 140.527 Q 99.219 132.031 108.448 120.703 Q 117.676 109.375 126.221 96.777 Q 134.766 84.18 142.774 70.898 Q 150.782 57.617 158.301 45.264 Q 165.821 32.91 172.95 22.119 Q 180.079 11.328 186.914 3.516 L 191.309 6.152 Q 187.012 19.238 183.887 29.15 Q 180.762 39.063 178.467 46.582 Q 176.172 54.102 174.561 59.57 Q 172.95 65.039 171.778 69.336 Q 170.606 73.633 169.678 77.1 Q 168.75 80.566 167.823 83.984 Q 166.895 87.402 165.723 91.211 Q 164.551 95.02 162.891 100.049 Q 161.231 105.078 158.985 111.67 Q 156.739 118.262 153.516 127.246 Q 161.719 114.844 170.362 102.832 Q 179.004 90.82 187.598 79.59 Q 196.192 68.359 204.444 58.105 Q 212.696 47.852 220.069 39.063 Q 227.442 30.273 233.643 23.096 Q 239.844 15.918 244.434 10.84 Q 249.024 5.762 251.612 2.93 Q 254.2 0.098 254.297 0 L 258.399 3.027 Q 252.637 17.285 246.973 31.592 Q 241.309 45.898 236.084 59.473 Q 230.86 73.047 226.368 85.645 Q 221.875 98.242 218.555 109.229 Q 215.235 120.215 213.331 129.248 Q 211.426 138.281 211.426 144.727 Q 211.426 152.344 213.233 158.496 Q 215.039 164.648 218.457 168.945 Q 221.875 173.242 226.905 175.537 Q 231.934 177.832 238.282 177.832 Q 243.067 177.832 247.608 176.758 Q 252.149 175.684 255.664 174.414 Q 259.18 173.145 261.329 172.07 Q 263.477 170.996 263.575 170.996 Z" id="0" vector-effect="non-scaling-stroke"/></g></svg>