<svg width="291.993" height="172.95" viewBox="0 0 291.993 172.95" xmlns="http://www.w3.org/2000/svg"><g id="svgGroup" stroke-linecap="round" fill-rule="evenodd" font-size="9pt" stroke="#000" stroke-width="0.25mm" fill="#000" style="stroke:#000;stroke-width:0.25mm;fill:#000"><path d="M 291.407 31.543 L 286.427 30.469 Q 286.622 29.297 286.768 28.174 Q 286.915 27.051 286.915 25.977 Q 286.915 21.875 285.303 18.116 Q 283.692 14.356 280.616 11.475 Q 277.54 8.594 273.145 6.885 Q 268.751 5.176 263.282 5.176 Q 257.52 5.176 251.075 7.666 Q 244.63 10.157 238.184 16.407 Q 231.934 22.461 225.343 31.983 Q 218.751 41.504 212.257 52.979 Q 205.762 64.453 199.561 77.149 Q 193.36 89.844 187.794 102.149 Q 182.227 114.453 177.54 125.684 Q 172.852 136.914 169.434 145.459 Q 166.016 154.004 164.112 159.18 Q 162.208 164.356 162.11 164.551 L 157.13 163.282 Q 155.958 155.762 155.03 149.707 Q 154.102 143.653 153.468 138.086 Q 152.833 132.52 152.54 127.051 Q 152.247 121.582 152.247 115.332 Q 152.247 110.254 152.686 103.711 Q 153.126 97.168 153.956 89.844 Q 154.786 82.52 155.909 74.805 Q 157.032 67.09 158.35 59.668 Q 159.669 52.246 161.134 45.557 Q 162.598 38.868 164.161 33.496 Q 155.86 45.899 148.975 58.496 Q 142.091 71.094 135.938 83.203 Q 129.786 95.313 124.024 106.69 Q 118.262 118.067 112.208 128.028 Q 106.153 137.989 99.415 146.289 Q 92.677 154.59 84.62 160.498 Q 76.563 166.407 66.798 169.678 Q 57.032 172.95 44.923 172.95 Q 35.743 172.95 27.589 170.411 Q 19.434 167.871 13.282 163.282 Q 7.13 158.692 3.565 152.149 Q 0.001 145.606 0.001 137.696 Q 0.001 128.711 3.858 121.631 Q 7.716 114.551 14.063 109.717 Q 20.411 104.883 28.712 102.344 Q 37.012 99.805 45.899 99.805 Q 50.977 99.805 56.202 100.489 Q 61.427 101.172 66.456 102.735 Q 71.485 104.297 76.173 106.885 Q 80.86 109.473 84.864 113.282 L 81.055 116.7 L 78.956 114.893 Q 76.856 113.086 72.706 110.938 Q 68.555 108.789 62.208 106.983 Q 55.86 105.176 47.364 105.176 Q 40.528 105.176 34.083 107.129 Q 27.637 109.082 22.608 112.891 Q 17.579 116.7 14.552 122.266 Q 11.524 127.832 11.524 135.157 Q 11.524 142.676 14.747 148.584 Q 17.97 154.493 23.341 158.545 Q 28.712 162.598 35.548 164.698 Q 42.384 166.797 49.61 166.797 Q 60.352 166.797 69.093 163.233 Q 77.833 159.668 85.303 153.223 Q 92.774 146.778 99.268 137.793 Q 105.762 128.809 111.915 117.969 Q 118.067 107.129 124.317 94.776 Q 130.567 82.422 137.501 69.239 Q 144.434 56.055 152.442 42.383 Q 160.45 28.711 170.118 15.235 L 174.61 17.578 Q 171.387 27.051 169.434 37.549 Q 167.481 48.047 166.456 59.131 Q 165.43 70.215 165.089 81.543 Q 164.747 92.871 164.649 103.907 Q 164.552 114.942 164.503 125.44 Q 164.454 135.938 163.966 145.313 Q 167.286 136.817 171.973 125.489 Q 176.661 114.161 182.325 101.563 Q 187.989 88.965 194.386 75.928 Q 200.782 62.891 207.471 50.977 Q 214.161 39.063 221.046 29.151 Q 227.93 19.239 234.571 12.793 Q 241.895 5.762 249.268 2.881 Q 256.641 0 263.38 0 Q 270.02 0 275.343 2.198 Q 280.665 4.395 284.376 7.959 Q 288.087 11.524 290.04 16.211 Q 291.993 20.899 291.993 25.879 Q 291.993 28.614 291.407 31.543 Z" id="0" vector-effect="non-scaling-stroke"/></g></svg>