<svg width="145.801" height="162.99" viewBox="0 0 145.801 162.99" xmlns="http://www.w3.org/2000/svg"><g id="svgGroup" stroke-linecap="round" fill-rule="evenodd" font-size="9pt" stroke="#000" stroke-width="0.25mm" fill="#000" style="stroke:#000;stroke-width:0.25mm;fill:#000"><path d="M 136.914 15.137 L 132.325 17.286 Q 132.227 17.09 130.957 15.137 Q 129.688 13.184 126.66 10.938 Q 123.633 8.692 118.555 6.885 Q 113.477 5.079 105.86 5.079 Q 93.75 5.079 81.983 9.815 Q 70.215 14.551 59.571 22.754 Q 48.926 30.957 39.893 41.944 Q 30.86 52.93 24.219 65.381 Q 17.578 77.832 13.868 91.065 Q 10.157 104.297 10.157 116.993 Q 10.157 125.879 12.94 133.399 Q 15.723 140.918 20.948 146.338 Q 26.172 151.758 33.692 154.834 Q 41.211 157.911 50.782 157.911 Q 59.18 157.911 67.53 155.469 Q 75.879 153.028 83.789 148.633 Q 91.7 144.239 98.975 138.135 Q 106.25 132.032 112.598 124.854 Q 118.946 117.676 124.121 109.62 Q 129.297 101.563 133.008 93.165 Q 136.719 84.766 138.721 76.27 Q 140.723 67.774 140.723 59.766 Q 140.723 51.368 138.477 44.922 Q 136.231 38.477 132.227 34.131 Q 128.223 29.786 122.705 27.588 Q 117.188 25.391 110.645 25.391 Q 104.297 25.391 97.95 27.686 Q 91.602 29.981 85.791 34.131 Q 79.981 38.282 74.952 43.946 Q 69.922 49.61 66.211 56.299 Q 62.5 62.989 60.401 70.557 Q 58.301 78.125 58.301 85.938 Q 58.301 91.895 59.766 96.924 Q 61.231 101.954 63.672 105.86 Q 66.114 109.766 69.287 112.354 Q 72.461 114.942 75.879 115.918 L 75 120.02 Q 70.118 119.336 65.088 116.797 Q 60.059 114.258 56.006 109.815 Q 51.953 105.372 49.366 98.877 Q 46.778 92.383 46.778 83.887 Q 46.778 75.879 49.121 68.018 Q 51.465 60.157 55.713 53.077 Q 59.961 45.997 65.821 39.991 Q 71.68 33.985 78.76 29.639 Q 85.84 25.293 93.897 22.803 Q 101.953 20.313 110.45 20.313 Q 118.555 20.313 125.098 23.096 Q 131.641 25.879 136.231 31.006 Q 140.821 36.133 143.311 43.457 Q 145.801 50.782 145.801 59.864 Q 145.801 68.457 143.702 77.491 Q 141.602 86.524 137.744 95.362 Q 133.887 104.2 128.418 112.647 Q 122.95 121.094 116.309 128.614 Q 109.668 136.133 102.002 142.432 Q 94.336 148.731 85.938 153.321 Q 77.539 157.911 68.653 160.45 Q 59.766 162.989 50.782 162.989 Q 40.332 162.989 31.055 159.522 Q 21.778 156.055 14.893 149.317 Q 8.008 142.579 4.004 132.764 Q 0 122.95 0 110.254 Q 0 96.094 3.662 82.422 Q 7.325 68.75 14.014 56.495 Q 20.703 44.239 30.078 33.887 Q 39.453 23.536 50.879 16.016 Q 62.305 8.497 75.489 4.249 Q 88.672 0 102.93 0 Q 109.571 0 114.649 1.075 Q 119.727 2.149 123.487 3.76 Q 127.246 5.372 129.785 7.276 Q 132.325 9.18 133.887 10.889 Q 135.45 12.598 136.133 13.77 Q 136.817 14.942 136.914 15.137 Z" id="0" vector-effect="non-scaling-stroke"/></g></svg>