<svg width="145.801" height="195.314" viewBox="0 0 145.801 195.314" xmlns="http://www.w3.org/2000/svg"><g id="svgGroup" stroke-linecap="round" fill-rule="evenodd" font-size="9pt" stroke="#000" stroke-width="0.25mm" fill="#000" style="stroke:#000;stroke-width:0.25mm;fill:#000"><path d="M 141.602 183.399 L 144.141 187.794 Q 136.621 191.895 129.541 193.604 Q 122.461 195.313 116.797 195.313 Q 108.203 195.313 102.197 192.188 Q 96.191 189.063 91.895 184.083 Q 87.598 179.102 84.619 172.852 Q 81.641 166.602 79.199 160.255 Q 72.168 163.575 64.795 165.381 Q 57.422 167.188 49.609 167.188 Q 39.453 167.188 30.42 163.965 Q 21.387 160.743 14.648 154.2 Q 7.91 147.657 3.955 137.745 Q 0 127.833 0 114.551 Q 0 100.294 3.711 86.28 Q 7.422 72.266 14.209 59.522 Q 20.996 46.778 30.518 35.889 Q 40.039 25.001 51.709 17.042 Q 63.379 9.083 76.807 4.542 Q 90.234 0.001 104.883 0.001 Q 113.672 0.001 120.068 2.296 Q 126.465 4.59 131.006 8.106 Q 135.547 11.622 138.428 15.772 Q 141.309 19.922 142.92 23.536 Q 144.531 27.149 145.117 29.688 Q 145.703 32.227 145.801 32.618 L 140.82 33.594 Q 140.723 33.399 140.234 31.202 Q 139.746 29.005 138.477 25.831 Q 137.207 22.657 134.912 18.995 Q 132.617 15.333 128.857 12.208 Q 125.098 9.083 119.678 7.032 Q 114.258 4.981 106.836 4.981 Q 95.605 4.981 84.082 9.571 Q 72.559 14.161 61.865 22.217 Q 51.172 30.274 41.846 41.065 Q 32.52 51.856 25.537 64.307 Q 18.555 76.758 14.551 90.137 Q 10.547 103.516 10.547 116.7 Q 10.547 128.321 13.672 136.866 Q 16.797 145.411 22.119 151.026 Q 27.441 156.641 34.619 159.376 Q 41.797 162.11 49.902 162.11 Q 57.031 162.11 63.916 160.352 Q 70.801 158.594 77.344 155.469 Q 75.488 150.782 73.584 146.534 Q 71.68 142.286 69.287 139.063 Q 66.895 135.84 63.916 133.936 Q 60.938 132.032 56.934 132.032 Q 54.102 132.032 51.611 132.471 Q 49.121 132.911 47.217 133.497 Q 45.313 134.083 44.189 134.522 L 43.066 134.962 L 41.113 130.274 Q 41.309 130.176 42.871 129.639 Q 44.434 129.102 46.875 128.467 Q 49.316 127.833 52.49 127.296 Q 55.664 126.758 59.18 126.758 Q 65.332 126.758 69.824 128.614 Q 74.316 130.469 77.539 133.643 Q 80.762 136.817 83.057 141.016 Q 85.352 145.215 87.305 149.903 Q 94.238 145.313 100.488 139.356 Q 106.738 133.399 112.061 126.563 Q 117.383 119.727 121.631 112.11 Q 125.879 104.493 128.906 96.583 Q 131.934 88.672 133.545 80.714 Q 135.156 72.755 135.156 65.04 Q 135.156 56.641 133.008 49.317 Q 130.859 41.993 126.953 36.573 Q 123.047 31.153 117.529 28.077 Q 112.012 25.001 105.176 25.001 Q 98.145 25.001 91.504 28.126 Q 84.863 31.251 79.736 36.817 Q 74.609 42.383 71.533 50.049 Q 68.457 57.715 68.457 66.7 Q 68.457 75.098 71.973 82.813 Q 75.488 90.528 83.203 95.997 L 80.762 99.317 Q 76.367 97.755 72.266 94.874 Q 68.164 91.993 65.039 87.891 Q 61.914 83.79 60.01 78.516 Q 58.105 73.243 58.105 66.797 Q 58.105 56.153 61.914 47.51 Q 65.723 38.868 72.168 32.715 Q 78.613 26.563 87.012 23.194 Q 95.41 19.825 104.492 19.825 Q 112.891 19.825 119.531 23.292 Q 126.172 26.758 130.762 32.813 Q 135.352 38.868 137.793 47.022 Q 140.234 55.176 140.234 64.649 Q 140.234 72.657 138.525 81.153 Q 136.816 89.649 133.643 98.047 Q 130.469 106.446 125.977 114.503 Q 121.484 122.559 115.771 129.883 Q 110.059 137.208 103.369 143.555 Q 96.68 149.903 89.16 154.688 Q 90.625 158.79 92.188 162.842 Q 93.75 166.895 95.605 170.655 Q 97.461 174.415 99.854 177.637 Q 102.246 180.86 105.42 183.204 Q 108.594 185.547 112.793 186.915 Q 116.992 188.282 122.461 188.282 Q 126.367 188.282 129.883 187.549 Q 133.398 186.817 135.986 185.889 Q 138.574 184.962 140.088 184.18 L 141.602 183.399 Z" id="0" vector-effect="non-scaling-stroke"/></g></svg>