<svg width="212.305" height="159.669" viewBox="0 0 212.305 159.669" xmlns="http://www.w3.org/2000/svg"><g id="svgGroup" stroke-linecap="round" fill-rule="evenodd" font-size="9pt" stroke="#000" stroke-width="0.25mm" fill="#000" style="stroke:#000;stroke-width:0.25mm;fill:#000"><path d="M 172.461 0 L 174.121 2.637 Q 167.774 6.25 162.207 11.523 Q 168.262 14.16 173.389 18.066 Q 178.516 21.973 182.276 27.148 Q 186.035 32.324 188.135 38.818 Q 190.235 45.313 190.235 53.125 Q 190.235 59.766 187.94 65.674 Q 185.645 71.582 181.592 76.318 Q 177.539 81.055 171.924 84.326 Q 166.309 87.598 159.668 88.867 Q 162.891 93.262 164.893 98.584 Q 166.895 103.906 166.895 110.156 Q 166.895 112.695 166.211 116.162 Q 165.528 119.629 164.502 123.438 Q 163.477 127.246 162.256 131.104 Q 161.035 134.961 160.01 138.281 Q 158.985 141.602 158.301 144.141 Q 157.617 146.68 157.617 147.852 Q 157.617 150.684 159.229 152.295 Q 160.84 153.906 163.672 153.906 Q 168.848 153.906 173.438 151.709 Q 178.028 149.512 182.08 145.85 Q 186.133 142.188 189.746 137.354 Q 193.36 132.52 196.631 127.246 Q 199.903 121.973 202.881 116.65 Q 205.86 111.328 208.692 106.543 L 212.305 109.277 Q 206.153 120.215 200.733 129.346 Q 195.313 138.477 189.649 145.068 Q 183.985 151.66 177.637 155.371 Q 171.289 159.082 163.184 159.082 Q 155.664 159.082 151.514 154.932 Q 147.364 150.781 147.364 143.164 Q 147.364 137.891 148.926 133.105 Q 150.489 128.32 152.393 123.73 Q 154.297 119.141 155.86 114.551 Q 157.422 109.961 157.422 104.98 Q 157.422 100.586 156.006 96.777 Q 154.59 92.969 152.051 89.551 Q 149.024 89.551 145.166 89.258 Q 141.309 88.965 137.842 88.086 Q 134.375 87.207 132.032 85.547 Q 129.688 83.887 129.688 81.152 Q 129.688 78.711 131.641 77.197 Q 133.594 75.684 137.403 75.684 Q 141.797 75.684 145.899 77.686 Q 150 79.688 154.004 82.91 Q 159.668 81.641 164.551 78.32 Q 169.434 75 172.998 70.361 Q 176.563 65.723 178.565 60.059 Q 180.567 54.395 180.567 48.438 Q 180.567 42.285 178.907 37.158 Q 177.246 32.031 174.219 27.93 Q 171.192 23.828 167.09 20.752 Q 162.989 17.676 158.106 15.625 Q 150.684 23.73 144.532 34.229 Q 138.379 44.727 132.764 56.396 Q 127.149 68.066 121.875 80.225 Q 116.602 92.383 110.889 103.857 Q 105.176 115.332 98.682 125.488 Q 92.188 135.645 84.326 143.262 Q 76.465 150.879 66.846 155.273 Q 57.227 159.668 45.215 159.668 Q 35.84 159.668 27.637 156.738 Q 19.434 153.809 13.282 148.096 Q 7.129 142.383 3.565 133.984 Q 0 125.586 0 114.648 Q 0 108.008 1.612 99.805 Q 3.223 91.602 6.739 82.666 Q 10.254 73.73 15.772 64.6 Q 21.289 55.469 29.053 46.875 Q 36.817 38.281 47.022 30.762 Q 57.227 23.242 70.069 17.627 Q 82.91 12.012 98.535 8.789 Q 114.16 5.566 132.813 5.566 Q 139.16 5.566 145.41 6.592 Q 151.66 7.617 157.52 9.57 Q 160.938 6.934 164.649 4.541 Q 168.36 2.148 172.461 0 Z M 42.774 154.492 Q 53.321 154.492 61.524 150.293 Q 69.727 146.094 76.367 138.916 Q 83.008 131.738 88.526 122.021 Q 94.043 112.305 99.268 101.318 Q 104.492 90.332 109.815 78.467 Q 115.137 66.602 121.387 55.078 Q 127.637 43.555 135.254 32.91 Q 142.871 22.266 152.735 13.574 Q 143.75 10.938 133.887 10.938 Q 115.723 10.938 99.366 15.82 Q 83.008 20.703 68.994 29.004 Q 54.981 37.305 43.701 48.242 Q 32.422 59.18 24.463 71.24 Q 16.504 83.301 12.207 95.85 Q 7.91 108.398 7.91 119.824 Q 7.91 126.953 10.401 133.301 Q 12.891 139.648 17.481 144.336 Q 22.071 149.023 28.516 151.758 Q 34.961 154.492 42.774 154.492 Z M 147.071 84.18 Q 144.629 82.52 141.895 81.348 Q 139.16 80.176 137.11 80.176 Q 135.742 80.176 135.254 80.566 Q 134.766 80.957 134.766 81.445 Q 134.766 82.324 136.035 82.861 Q 137.305 83.398 139.209 83.74 Q 141.114 84.082 143.213 84.18 Q 145.313 84.277 147.071 84.18 Z" id="0" vector-effect="non-scaling-stroke"/></g></svg>