<svg width="212.11" height="157.813" viewBox="0 0 212.11 157.813" xmlns="http://www.w3.org/2000/svg"><g id="svgGroup" stroke-linecap="round" fill-rule="evenodd" font-size="9pt" stroke="#000" stroke-width="0.25mm" fill="#000" style="stroke:#000;stroke-width:0.25mm;fill:#000"><path d="M 79.883 98.828 L 76.954 101.953 Q 74.61 99.707 71.436 97.656 Q 68.262 95.605 64.161 93.994 Q 60.059 92.383 55.176 91.455 Q 50.294 90.527 44.629 90.527 Q 38.087 90.527 31.934 92.725 Q 25.782 94.922 20.997 99.072 Q 16.212 103.223 13.282 109.229 Q 10.352 115.234 10.352 122.949 Q 10.352 129.199 12.842 134.619 Q 15.333 140.039 19.874 143.994 Q 24.415 147.949 30.616 150.195 Q 36.817 152.441 44.337 152.441 Q 52.93 152.441 60.499 149.756 Q 68.067 147.07 74.659 142.334 Q 81.251 137.598 87.159 131.055 Q 93.067 124.512 98.389 116.748 Q 103.712 108.984 108.594 100.391 Q 113.477 91.797 118.262 82.812 L 115.626 82.812 Q 99.219 82.812 86.085 79.443 Q 72.95 76.074 63.721 70.215 Q 54.493 64.355 49.561 56.494 Q 44.629 48.633 44.629 39.551 Q 44.629 30.469 48.145 23.535 Q 51.661 16.602 57.715 11.914 Q 63.77 7.227 71.778 4.834 Q 79.786 2.441 88.77 2.441 Q 96.485 2.441 102.93 3.662 Q 109.376 4.883 114.503 6.787 Q 119.629 8.691 123.585 10.937 Q 127.54 13.184 130.274 15.234 Q 133.008 17.285 134.571 18.848 L 136.622 20.898 L 133.301 23.828 Q 133.204 23.73 130.469 21.338 Q 127.735 18.945 122.754 16.064 Q 117.774 13.184 110.743 10.791 Q 103.712 8.398 95.118 8.398 Q 86.426 8.398 79.151 10.84 Q 71.876 13.281 66.602 17.627 Q 61.329 21.973 58.35 27.93 Q 55.372 33.887 55.372 40.918 Q 55.372 49.219 59.962 56.006 Q 64.551 62.793 72.706 67.627 Q 80.86 72.461 91.944 75.146 Q 103.028 77.832 116.114 77.832 L 120.801 77.832 Q 125.879 68.164 130.909 58.643 Q 135.938 49.121 141.212 40.479 Q 146.485 31.836 152.149 24.414 Q 157.813 16.992 164.161 11.572 Q 170.508 6.152 177.735 3.076 Q 184.962 0 193.262 0 Q 196.68 0 200.049 0.928 Q 203.419 1.855 206.104 4.053 Q 208.79 6.25 210.45 9.814 Q 212.11 13.379 212.11 18.652 Q 212.11 24.902 209.669 31.641 Q 207.227 38.379 202.54 44.922 Q 197.852 51.465 190.967 57.52 Q 184.083 63.574 175.147 68.506 Q 166.212 73.437 155.372 76.953 Q 144.532 80.469 131.934 81.934 Q 126.758 91.406 121.192 100.732 Q 115.626 110.059 109.376 118.506 Q 103.126 126.953 96.143 134.131 Q 89.161 141.309 81.202 146.582 Q 73.243 151.855 64.112 154.834 Q 54.981 157.812 44.532 157.812 Q 35.938 157.812 27.881 155.322 Q 19.825 152.832 13.624 148.096 Q 7.422 143.359 3.712 136.523 Q 0.001 129.687 0.001 120.898 Q 0.001 111.426 3.467 104.395 Q 6.934 97.363 12.647 92.676 Q 18.36 87.988 25.587 85.693 Q 32.813 83.398 40.333 83.398 Q 46.094 83.398 51.71 84.521 Q 57.325 85.645 62.452 87.695 Q 67.579 89.746 72.022 92.578 Q 76.465 95.41 79.883 98.828 Z M 195.313 5.273 Q 189.161 5.273 183.594 8.008 Q 178.028 10.742 172.95 15.674 Q 167.872 20.605 163.087 27.295 Q 158.301 33.984 153.663 41.943 Q 149.024 49.902 144.337 58.74 Q 139.649 67.578 134.766 76.66 Q 147.462 75 157.813 71.289 Q 168.165 67.578 176.172 62.646 Q 184.18 57.715 190.04 51.953 Q 195.899 46.191 199.708 40.43 Q 203.516 34.668 205.323 29.346 Q 207.129 24.023 207.129 19.824 Q 207.129 16.699 206.495 14.062 Q 205.86 11.426 204.493 9.473 Q 203.126 7.52 200.879 6.396 Q 198.633 5.273 195.313 5.273 Z" id="0" vector-effect="non-scaling-stroke"/></g></svg>