<svg width="226.758" height="156.446" viewBox="0 0 226.758 156.446" xmlns="http://www.w3.org/2000/svg"><g id="svgGroup" stroke-linecap="round" fill-rule="evenodd" font-size="9pt" stroke="#000" stroke-width="0.25mm" fill="#000" style="stroke:#000;stroke-width:0.25mm;fill:#000"><path d="M 224.024 0 L 226.758 4.297 Q 220.41 8.398 213.525 11.182 Q 206.641 13.965 199.316 15.625 Q 191.992 17.285 184.277 17.969 Q 176.563 18.652 168.652 18.652 Q 158.691 18.652 147.656 17.627 Q 136.621 16.602 125.732 15.43 Q 114.844 14.258 104.688 13.232 Q 94.531 12.207 86.328 12.207 Q 74.316 12.207 64.453 15.283 Q 54.59 18.359 47.559 23.975 Q 40.527 29.59 36.67 37.451 Q 32.813 45.313 32.813 54.98 Q 32.813 61.719 35.107 67.139 Q 37.402 72.559 41.65 76.27 Q 45.899 79.98 51.856 81.982 Q 57.813 83.984 65.039 83.984 Q 71.289 83.984 77.93 82.471 Q 84.57 80.957 91.016 77.93 L 93.066 81.934 Q 86.524 85.742 77.979 87.988 Q 69.434 90.234 60.742 90.234 Q 53.223 90.234 46.289 88.086 Q 39.356 85.938 33.936 81.592 Q 28.516 77.246 25.293 70.654 Q 22.07 64.063 22.07 55.176 Q 22.07 46.387 24.707 39.404 Q 27.344 32.422 31.934 27.002 Q 36.524 21.582 42.676 17.773 Q 48.828 13.965 55.908 11.475 Q 62.988 8.984 70.606 7.861 Q 78.223 6.738 85.742 6.738 Q 94.727 6.738 105.029 7.813 Q 115.332 8.887 126.074 10.107 Q 136.816 11.328 147.656 12.402 Q 158.496 13.477 168.652 13.477 Q 176.27 13.477 183.691 12.842 Q 191.113 12.207 198.096 10.645 Q 205.078 9.082 211.572 6.494 Q 218.066 3.906 224.024 0 Z M 155.078 24.609 L 158.203 27.246 Q 149.902 37.207 143.506 48.096 Q 137.109 58.984 131.69 69.922 Q 126.27 80.859 121.387 91.553 Q 116.504 102.246 111.231 111.865 Q 105.957 121.484 99.951 129.639 Q 93.945 137.793 86.279 143.75 Q 78.613 149.707 68.799 153.076 Q 58.984 156.445 46.289 156.445 Q 35.059 156.445 26.416 153.564 Q 17.774 150.684 11.914 145.654 Q 6.055 140.625 3.027 133.838 Q 0 127.051 0 119.141 Q 0 116.113 0.391 113.379 Q 0.781 110.645 1.563 108.398 L 6.445 109.863 Q 5.859 111.816 5.469 114.209 Q 5.078 116.602 5.078 119.141 Q 5.078 127.246 8.496 133.301 Q 11.914 139.355 17.481 143.359 Q 23.047 147.363 30.176 149.365 Q 37.305 151.367 44.727 151.367 Q 55.469 151.367 63.818 147.656 Q 72.168 143.945 79.004 137.549 Q 85.84 131.152 91.455 122.559 Q 97.07 113.965 102.344 104.102 Q 107.617 94.238 112.94 83.594 Q 118.262 72.949 124.463 62.5 Q 130.664 52.051 138.086 42.334 Q 145.508 32.617 155.078 24.609 Z" id="0" vector-effect="non-scaling-stroke"/></g></svg>