<svg width="229.59" height="149.512" viewBox="0 0 229.59 149.512" xmlns="http://www.w3.org/2000/svg"><g id="svgGroup" stroke-linecap="round" fill-rule="evenodd" font-size="9pt" stroke="#000" stroke-width="0.25mm" fill="#000" style="stroke:#000;stroke-width:0.25mm;fill:#000"><path d="M 225.977 97.559 L 229.59 100.293 Q 227.344 104.004 224.316 108.448 Q 221.289 112.891 217.578 117.481 Q 213.867 122.071 209.521 126.368 Q 205.176 130.665 200.293 133.985 Q 195.41 137.305 190.137 139.307 Q 184.863 141.309 179.199 141.309 Q 174.121 141.309 170.41 139.698 Q 166.699 138.086 164.258 135.401 Q 161.816 132.715 160.645 129.2 Q 159.473 125.684 159.473 121.778 Q 159.473 116.211 161.23 109.571 Q 152.637 119.727 144.922 127.247 Q 137.207 134.766 129.639 139.698 Q 122.07 144.629 114.307 147.071 Q 106.543 149.512 97.754 149.512 Q 92.285 149.512 87.549 148.047 Q 82.812 146.583 79.297 143.702 Q 75.781 140.821 73.73 136.524 Q 71.68 132.227 71.68 126.465 Q 71.68 119.239 75.098 111.768 Q 78.516 104.297 83.594 96.827 Q 88.672 89.356 94.678 81.836 Q 100.684 74.317 105.762 66.895 Q 110.84 59.473 114.258 52.149 Q 117.676 44.825 117.676 37.696 Q 117.676 31.446 115.088 25.538 Q 112.5 19.629 106.934 15.137 Q 101.367 10.645 92.676 7.911 Q 83.984 5.176 71.777 5.176 Q 61.523 5.176 53.027 7.129 Q 44.531 9.083 37.793 12.5 Q 31.055 15.918 26.074 20.557 Q 21.094 25.196 17.773 30.469 Q 14.453 35.743 12.842 41.504 Q 11.23 47.266 11.23 52.93 Q 11.23 60.45 13.965 65.625 Q 16.699 70.801 21.045 73.975 Q 25.391 77.149 30.859 78.565 Q 36.328 79.981 41.797 79.981 Q 47.656 79.981 52.93 78.614 Q 58.203 77.247 62.158 75.586 Q 66.113 73.926 68.457 72.559 Q 70.801 71.192 70.898 71.094 L 73.437 74.805 Q 65.723 80.958 56.104 84.375 Q 46.484 87.793 36.914 87.793 Q 29.98 87.793 23.34 85.792 Q 16.699 83.79 11.523 79.59 Q 6.348 75.391 3.174 68.799 Q 0 62.208 0 53.125 Q 0 42.676 5.127 33.057 Q 10.254 23.438 19.629 16.114 Q 29.004 8.79 42.285 4.395 Q 55.566 0 71.875 0 Q 83.301 0 93.115 2.833 Q 102.93 5.665 110.107 10.987 Q 117.285 16.309 121.387 23.829 Q 125.488 31.348 125.586 40.723 Q 125.684 49.219 122.363 57.52 Q 119.043 65.821 114.014 73.829 Q 108.984 81.836 103.125 89.356 Q 97.266 96.875 92.236 103.76 Q 87.207 110.645 83.838 116.749 Q 80.469 122.852 80.469 128.028 Q 80.469 131.055 81.592 133.936 Q 82.715 136.817 85.156 139.014 Q 87.598 141.211 91.26 142.579 Q 94.922 143.946 100.098 143.946 Q 111.426 143.946 121.68 138.086 Q 131.934 132.227 141.699 122.12 Q 151.465 112.012 160.986 98.487 Q 170.508 84.961 180.42 69.581 Q 190.332 54.2 200.977 37.793 Q 211.621 21.387 223.535 5.567 L 227.93 8.008 Q 222.266 18.653 215.576 30.42 Q 208.887 42.188 202.197 53.907 Q 195.508 65.625 189.258 76.807 Q 183.008 87.989 178.174 97.461 Q 173.34 106.934 170.459 114.209 Q 167.578 121.485 167.578 125.391 Q 167.578 130.86 170.947 133.545 Q 174.316 136.231 179.004 136.231 Q 183.887 136.231 188.525 134.375 Q 193.164 132.52 197.559 129.444 Q 201.953 126.368 205.957 122.413 Q 209.961 118.458 213.574 114.161 Q 217.187 109.864 220.312 105.567 Q 223.437 101.27 225.977 97.559 Z" id="0" vector-effect="non-scaling-stroke"/></g></svg>