<svg width="224.219" height="159.282" viewBox="0 0 224.219 159.282" xmlns="http://www.w3.org/2000/svg"><g id="svgGroup" stroke-linecap="round" fill-rule="evenodd" font-size="9pt" stroke="#000" stroke-width="0.25mm" fill="#000" style="stroke:#000;stroke-width:0.25mm;fill:#000"><path d="M 94.239 65.044 L 98.145 67.387 Q 93.653 75.2 87.842 83.012 Q 82.032 90.825 74.854 97.124 Q 67.676 103.423 58.985 107.378 Q 50.294 111.333 40.04 111.333 Q 31.641 111.333 24.317 108.745 Q 16.993 106.157 11.573 101.079 Q 6.153 96.001 3.077 88.628 Q 0.001 81.255 0.001 71.587 Q 0.001 59.77 3.663 49.858 Q 7.325 39.946 13.575 31.987 Q 19.825 24.028 28.126 18.022 Q 36.426 12.016 45.801 7.964 Q 55.176 3.911 65.089 1.909 Q 75.001 -0.093 84.376 0.005 Q 94.532 0.102 104.249 2.934 Q 113.966 5.766 121.534 11.577 Q 129.102 17.387 133.692 26.274 Q 138.282 35.161 138.282 47.27 Q 138.282 55.669 135.352 66.069 Q 132.423 76.469 125.196 89.067 Q 116.798 103.715 110.645 114.018 Q 104.493 124.321 100.44 131.303 Q 96.387 138.286 94.434 142.436 Q 92.481 146.587 92.481 149.028 Q 92.481 151.372 94.581 152.739 Q 96.68 154.106 100.489 154.106 Q 105.665 154.106 112.696 151.372 Q 119.727 148.637 128.223 143.169 Q 135.938 138.286 143.458 131.938 Q 150.977 125.59 158.155 118.413 Q 165.333 111.235 172.022 103.52 Q 178.712 95.805 184.669 88.139 Q 190.626 80.473 195.704 73.149 Q 200.782 65.825 204.786 59.38 Q 202.833 53.325 201.954 47.807 Q 201.075 42.29 201.075 37.407 Q 201.075 31.45 202.149 26.811 Q 203.223 22.173 205.03 18.999 Q 206.837 15.825 209.327 14.165 Q 211.817 12.505 214.649 12.505 Q 217.091 12.505 218.897 13.628 Q 220.704 14.751 221.876 16.508 Q 223.048 18.266 223.634 20.512 Q 224.219 22.758 224.219 25.005 Q 224.219 28.423 223.048 33.305 Q 221.876 38.188 218.751 44.829 Q 216.114 50.493 211.329 58.501 Q 206.544 66.508 200.05 75.835 Q 193.555 85.161 185.694 95.122 Q 177.833 105.083 168.946 114.604 Q 160.059 124.126 150.44 132.622 Q 140.821 141.118 130.958 147.465 Q 120.509 154.204 113.087 156.743 Q 105.665 159.282 100.587 159.282 Q 95.997 159.282 92.921 157.915 Q 89.844 156.548 87.989 154.253 Q 86.134 151.958 85.352 149.126 Q 84.571 146.294 84.571 143.364 Q 84.571 139.848 85.645 135.942 Q 86.719 132.036 88.966 128.325 Q 91.602 123.93 95.606 117.583 Q 99.61 111.235 104.151 103.715 Q 108.692 96.196 113.282 87.846 Q 117.872 79.497 121.534 71.147 Q 125.196 62.798 127.491 54.79 Q 129.786 46.782 129.786 39.946 Q 129.786 33.305 126.807 27.055 Q 123.829 20.805 118.018 15.923 Q 112.208 11.04 103.712 8.061 Q 95.216 5.083 84.083 5.083 Q 74.122 5.083 64.893 7.475 Q 55.665 9.868 47.559 14.165 Q 39.454 18.462 32.764 24.467 Q 26.075 30.473 21.29 37.651 Q 16.505 44.829 13.868 52.983 Q 11.231 61.137 11.231 69.731 Q 11.231 77.934 13.819 84.233 Q 16.407 90.532 20.801 94.731 Q 25.196 98.93 30.958 101.079 Q 36.719 103.227 43.067 103.227 Q 49.903 103.227 56.837 100.59 Q 63.77 97.954 70.362 92.973 Q 76.954 87.993 83.009 80.913 Q 89.063 73.833 94.239 65.044 Z M 208.301 53.423 Q 211.622 47.856 213.721 43.462 Q 215.821 39.067 216.993 35.649 Q 218.165 32.231 218.604 29.643 Q 219.044 27.055 219.044 25.102 Q 219.044 23.93 218.848 22.612 Q 218.653 21.294 218.116 20.171 Q 217.579 19.048 216.651 18.364 Q 215.723 17.68 214.161 17.68 Q 212.403 17.68 210.938 19.292 Q 209.473 20.903 208.399 23.589 Q 207.325 26.274 206.739 29.839 Q 206.153 33.403 206.153 37.505 Q 206.153 41.02 206.641 45.024 Q 207.13 49.028 208.301 53.423 Z" id="0" vector-effect="non-scaling-stroke"/></g></svg>