<svg width="265.528" height="155.469" viewBox="0 0 265.528 155.469" xmlns="http://www.w3.org/2000/svg"><g id="svgGroup" stroke-linecap="round" fill-rule="evenodd" font-size="9pt" stroke="#000" stroke-width="0.25mm" fill="#000" style="stroke:#000;stroke-width:0.25mm;fill:#000"><path d="M 217.188 16.602 L 221.973 18.555 Q 217.091 34.766 211.231 49.317 Q 205.372 63.868 200.098 75.098 Q 194.044 88.184 187.891 99.317 Q 182.911 108.106 179.542 114.649 Q 176.173 121.192 174.122 125.831 Q 172.071 130.469 171.192 133.545 Q 170.313 136.622 170.313 138.575 Q 170.313 140.626 171.192 141.749 Q 172.071 142.872 173.292 143.458 Q 174.512 144.044 175.733 144.19 Q 176.954 144.336 177.735 144.336 Q 181.153 144.336 185.889 142.432 Q 190.626 140.528 196.143 137.061 Q 201.661 133.594 207.716 128.663 Q 213.77 123.731 219.727 117.579 Q 225.684 111.426 231.3 104.249 Q 236.915 97.071 241.602 89.063 Q 249.122 75.977 253.614 64.844 Q 250.782 59.278 249.415 53.37 Q 248.048 47.461 248.048 42.188 Q 248.048 34.571 250.44 29.981 Q 252.833 25.391 257.13 25.391 Q 259.473 25.391 261.085 26.563 Q 262.696 27.735 263.673 29.59 Q 264.649 31.446 265.089 33.643 Q 265.528 35.84 265.528 37.989 Q 265.528 42.579 264.21 48.536 Q 262.891 54.493 260.401 61.378 Q 257.911 68.262 254.298 75.928 Q 250.684 83.594 245.997 91.602 Q 241.309 99.61 235.596 106.983 Q 229.884 114.356 223.682 120.801 Q 217.481 127.247 211.085 132.569 Q 204.688 137.891 198.682 141.651 Q 192.677 145.411 187.257 147.51 Q 181.837 149.61 177.735 149.61 Q 170.02 149.61 165.626 146.094 Q 161.231 142.579 161.231 134.864 Q 161.231 130.665 162.354 126.465 Q 163.477 122.266 165.675 117.383 Q 167.872 112.501 171.094 106.69 Q 174.317 100.879 178.516 93.555 Q 168.751 106.544 157.471 118.702 Q 146.192 130.86 133.399 140.43 Q 127.637 144.727 122.852 147.608 Q 118.067 150.489 114.112 152.247 Q 110.157 154.004 106.934 154.737 Q 103.712 155.469 101.075 155.469 Q 97.266 155.469 94.483 154.395 Q 91.7 153.321 89.893 151.514 Q 88.087 149.708 87.257 147.217 Q 86.427 144.727 86.427 141.797 Q 86.427 136.915 87.891 132.52 Q 89.356 128.126 92.188 123.536 Q 95.411 118.458 99.854 112.305 Q 104.298 106.153 109.132 99.415 Q 113.966 92.676 118.702 85.645 Q 123.438 78.614 127.198 71.68 Q 130.958 64.747 133.253 58.204 Q 135.548 51.661 135.548 45.899 Q 135.548 36.817 131.983 29.297 Q 128.419 21.778 121.778 16.407 Q 115.137 11.036 105.714 8.106 Q 96.29 5.176 84.571 5.176 Q 68.458 5.176 54.981 9.864 Q 41.505 14.551 31.788 22.803 Q 22.071 31.055 16.651 42.237 Q 11.231 53.419 11.231 66.309 Q 11.231 74.219 13.721 80.713 Q 16.212 87.208 20.753 91.895 Q 25.294 96.583 31.788 99.17 Q 38.282 101.758 46.29 101.758 Q 55.567 101.758 63.477 98.487 Q 71.387 95.215 77.882 89.551 Q 84.376 83.887 89.454 76.221 Q 94.532 68.555 98.048 59.766 L 102.442 61.329 Q 92.969 84.864 77.344 96.924 Q 61.719 108.985 40.235 108.985 Q 31.153 108.985 23.731 105.909 Q 16.309 102.833 11.036 97.315 Q 5.762 91.797 2.882 84.131 Q 0.001 76.465 0.001 67.286 Q 0.001 54.883 4.102 45.02 Q 8.204 35.157 14.991 27.686 Q 21.778 20.215 30.421 14.942 Q 39.063 9.669 48.145 6.348 Q 57.227 3.028 65.919 1.514 Q 74.61 0.001 81.544 0.001 Q 94.63 0.001 105.762 3.174 Q 116.895 6.348 125.05 12.647 Q 133.204 18.946 137.794 28.223 Q 142.384 37.501 142.384 49.708 Q 142.384 58.594 139.014 69.385 Q 135.645 80.176 127.344 92.579 Q 119.727 104.004 113.477 112.403 Q 107.227 120.801 102.784 126.905 Q 98.341 133.008 95.899 137.11 Q 93.458 141.211 93.458 143.946 Q 93.458 146.778 95.509 148.536 Q 97.559 150.294 101.173 150.294 Q 106.348 150.294 113.721 146.778 Q 121.094 143.262 130.274 136.426 Q 139.356 129.688 147.608 121.583 Q 155.86 113.477 163.233 104.737 Q 170.606 95.997 177.149 86.915 Q 183.692 77.833 189.259 69.092 Q 194.825 60.352 199.415 52.198 Q 204.005 44.044 207.52 37.159 Q 211.036 30.274 213.477 24.952 Q 215.919 19.629 217.188 16.602 Z M 256.251 58.106 Q 258.497 51.856 259.473 46.778 Q 260.45 41.7 260.45 38.086 Q 260.45 37.403 260.401 36.085 Q 260.352 34.766 260.01 33.545 Q 259.669 32.325 258.985 31.397 Q 258.302 30.469 257.13 30.469 Q 255.469 30.469 254.346 33.79 Q 253.223 37.11 253.223 41.895 Q 253.223 45.508 253.907 49.659 Q 254.591 53.809 256.251 58.106 Z" id="0" vector-effect="non-scaling-stroke"/></g></svg>