<svg width="260.742" height="180.762" viewBox="0 0 260.742 180.762" xmlns="http://www.w3.org/2000/svg"><g id="svgGroup" stroke-linecap="round" fill-rule="evenodd" font-size="9pt" stroke="#000" stroke-width="0.25mm" fill="#000" style="stroke:#000;stroke-width:0.25mm;fill:#000"><path d="M 121.973 68.555 L 124.903 71.875 Q 115.528 81.934 103.467 86.963 Q 91.406 91.992 78.906 91.992 Q 70.215 91.992 62.354 89.551 Q 54.492 87.109 48.438 82.422 Q 42.383 77.734 38.819 70.801 Q 35.254 63.867 35.254 54.785 Q 35.254 45.801 38.037 38.477 Q 40.821 31.152 45.606 25.391 Q 50.391 19.629 56.739 15.43 Q 63.086 11.23 70.166 8.447 Q 77.246 5.664 84.619 4.297 Q 91.992 2.93 98.926 2.93 Q 115.039 2.93 127.002 7.129 Q 138.965 11.328 146.826 18.555 Q 154.688 25.781 158.594 35.498 Q 162.5 45.215 162.5 56.348 Q 162.5 60.449 161.914 64.355 Q 172.266 48.438 183.447 37.5 Q 194.629 26.563 205.42 19.434 Q 216.211 12.305 225.977 8.398 Q 235.742 4.492 243.262 2.637 Q 250.781 0.781 255.469 0.391 Q 260.156 0 260.742 0 L 260.742 5.176 Q 260.449 5.176 257.471 5.371 Q 254.492 5.566 249.463 6.543 Q 244.434 7.52 237.744 9.57 Q 231.055 11.621 223.291 15.332 Q 215.528 19.043 206.983 24.756 Q 198.438 30.469 189.844 38.721 Q 181.25 46.973 172.803 58.105 Q 164.356 69.238 156.739 83.887 Q 152.93 91.211 151.026 98.291 Q 149.121 105.371 149.121 111.914 Q 149.121 118.652 151.074 124.658 Q 153.028 130.664 157.227 135.352 Q 161.426 140.039 168.018 143.018 Q 174.61 145.996 183.789 146.68 Q 186.817 136.621 191.406 127.93 Q 195.996 119.238 201.856 112.793 Q 207.715 106.348 214.649 102.686 Q 221.582 99.023 229.102 99.023 Q 232.422 99.023 234.815 100 Q 237.207 100.977 238.819 102.588 Q 240.43 104.199 241.211 106.348 Q 241.992 108.496 241.992 110.938 Q 241.992 114.453 240.235 118.701 Q 238.477 122.949 235.254 127.344 Q 232.031 131.738 227.442 135.938 Q 222.852 140.137 217.237 143.457 Q 211.621 146.777 205.078 148.975 Q 198.535 151.172 191.309 151.563 Q 188.77 158.398 186.865 165.723 Q 184.961 173.047 183.985 180.762 L 178.906 179.883 Q 178.906 172.559 179.834 165.381 Q 180.762 158.203 182.422 151.367 Q 172.461 150.586 165.186 147.168 Q 157.91 143.75 153.174 138.477 Q 148.438 133.203 146.143 126.416 Q 143.848 119.629 143.848 112.012 Q 143.848 109.863 143.994 107.715 Q 144.141 105.566 144.531 103.32 Q 136.621 113.281 125.928 121.777 Q 115.235 130.273 102.637 136.475 Q 90.039 142.676 75.879 146.143 Q 61.719 149.609 46.875 149.609 Q 36.621 149.609 28.028 148.096 Q 19.434 146.582 13.184 143.457 Q 6.934 140.332 3.467 135.498 Q 0 130.664 0 124.023 Q 0 119.434 1.465 115.918 Q 2.93 112.402 5.322 109.766 Q 7.715 107.129 10.938 105.322 Q 14.16 103.516 17.676 102.393 Q 21.192 101.27 24.805 100.781 Q 28.418 100.293 31.641 100.293 Q 36.426 100.293 40.869 101.318 Q 45.313 102.344 48.535 103.906 L 46.387 107.715 Q 43.946 106.836 40.967 106.104 Q 37.989 105.371 34.082 105.371 Q 28.711 105.371 24.414 106.836 Q 20.117 108.301 17.139 110.84 Q 14.16 113.379 12.549 116.699 Q 10.938 120.02 10.938 123.73 Q 10.938 133.301 20.117 138.867 Q 29.297 144.434 47.559 144.434 Q 59.18 144.434 69.873 141.846 Q 80.567 139.258 90.137 134.766 Q 99.707 130.273 108.008 124.219 Q 116.309 118.164 123.242 111.279 Q 130.176 104.395 135.547 97.07 Q 140.918 89.746 144.629 82.617 Q 148.34 75.488 150.293 68.994 Q 152.246 62.5 152.246 57.227 Q 152.246 51.172 151.221 45.117 Q 150.196 39.063 147.803 33.594 Q 145.41 28.125 141.504 23.389 Q 137.598 18.652 131.739 15.186 Q 125.879 11.719 117.92 9.717 Q 109.961 7.715 99.61 7.715 Q 86.231 7.715 76.27 11.719 Q 66.309 15.723 59.766 22.07 Q 53.223 28.418 50 36.377 Q 46.778 44.336 46.778 52.344 Q 46.778 60.449 49.658 66.602 Q 52.539 72.754 57.52 76.855 Q 62.5 80.957 69.239 83.057 Q 75.977 85.156 83.594 85.156 Q 89.551 85.156 94.678 83.936 Q 99.805 82.715 104.053 80.908 Q 108.301 79.102 111.621 76.953 Q 114.942 74.805 117.237 72.949 Q 119.531 71.094 120.703 69.873 Q 121.875 68.652 121.973 68.555 Z M 230.469 104.199 Q 226.465 104.199 221.631 107.324 Q 216.797 110.449 211.817 116.113 Q 206.836 121.777 202.002 129.541 Q 197.168 137.305 193.262 146.582 Q 199.121 145.996 204.688 143.994 Q 210.254 141.992 215.088 139.111 Q 219.922 136.23 223.926 132.666 Q 227.93 129.102 230.811 125.342 Q 233.692 121.582 235.303 117.822 Q 236.914 114.063 236.914 110.742 Q 236.914 107.813 235.01 106.006 Q 233.106 104.199 230.469 104.199 Z" id="0" vector-effect="non-scaling-stroke"/></g></svg>