<svg width="240.528" height="215.724" viewBox="0 0 240.528 215.724" xmlns="http://www.w3.org/2000/svg"><g id="svgGroup" stroke-linecap="round" fill-rule="evenodd" font-size="9pt" stroke="#000" stroke-width="0.25mm" fill="#000" style="stroke:#000;stroke-width:0.25mm;fill:#000"><path d="M 77.832 124.903 L 76.172 129.688 Q 73.243 128.809 70.801 128.272 Q 68.36 127.735 65.967 127.442 Q 63.575 127.149 61.133 127.002 Q 58.692 126.856 55.86 126.856 Q 46.582 126.856 38.379 129.981 Q 30.176 133.106 24.073 138.77 Q 17.969 144.434 14.405 152.295 Q 10.84 160.157 10.84 169.532 Q 10.84 179.297 14.698 186.866 Q 18.555 194.434 25.293 199.61 Q 32.032 204.786 41.211 207.471 Q 50.391 210.157 61.133 210.157 Q 74.61 210.157 85.938 206.592 Q 97.266 203.028 106.983 196.582 Q 116.7 190.137 125.098 181.25 Q 133.497 172.364 141.163 161.719 Q 148.829 151.075 155.957 138.965 Q 163.086 126.856 170.313 114.063 Q 164.161 120.606 158.301 125.733 Q 152.442 130.86 146.68 134.424 Q 140.918 137.989 135.205 139.844 Q 129.493 141.7 123.536 141.7 Q 120.02 141.7 116.26 140.723 Q 112.5 139.747 109.473 137.452 Q 106.446 135.157 104.493 131.495 Q 102.539 127.832 102.539 122.559 Q 102.539 119.141 103.858 115.381 Q 105.176 111.622 107.911 107.227 Q 110.645 102.832 114.698 97.706 Q 118.75 92.579 124.219 86.329 Q 130.762 78.907 135.157 72.168 Q 139.551 65.43 142.286 59.473 Q 145.02 53.516 146.192 48.291 Q 147.364 43.067 147.364 38.575 Q 147.364 29.688 144.092 23.34 Q 140.821 16.993 135.254 12.989 Q 129.688 8.985 122.364 7.081 Q 115.039 5.176 106.934 5.176 Q 98.438 5.176 89.844 6.788 Q 81.25 8.399 73.243 11.524 Q 65.235 14.649 58.252 19.239 Q 51.27 23.829 46.094 29.737 Q 40.918 35.645 37.94 42.823 Q 34.961 50 34.961 58.399 Q 34.961 65.04 37.207 70.508 Q 39.454 75.977 43.604 79.932 Q 47.754 83.887 53.711 86.036 Q 59.668 88.184 67.188 88.184 Q 72.168 88.184 77.442 87.012 Q 82.715 85.84 87.842 83.643 Q 92.969 81.446 97.901 78.223 Q 102.832 75 107.227 70.801 L 110.254 74.024 Q 105.079 79.688 99.219 83.838 Q 93.36 87.989 87.207 90.723 Q 81.055 93.457 74.805 94.776 Q 68.555 96.094 62.598 96.094 Q 54.493 96.094 47.413 93.897 Q 40.332 91.7 35.01 87.256 Q 29.688 82.813 26.612 76.172 Q 23.536 69.532 23.536 60.645 Q 23.536 50.684 27.295 42.286 Q 31.055 33.887 37.403 27.149 Q 43.75 20.411 52.149 15.332 Q 60.547 10.254 69.825 6.836 Q 79.102 3.418 88.672 1.709 Q 98.243 0 107.032 0 Q 117.676 0 126.319 2.735 Q 134.961 5.469 141.065 10.84 Q 147.168 16.211 150.489 24.024 Q 153.809 31.836 153.809 42.09 Q 153.809 52.54 150.879 61.67 Q 147.95 70.801 143.506 78.663 Q 139.063 86.524 133.936 93.262 Q 128.809 100 124.366 105.665 Q 119.922 111.329 116.993 116.065 Q 114.063 120.801 114.063 124.707 Q 114.063 127.051 114.795 129.2 Q 115.528 131.348 117.041 132.959 Q 118.555 134.571 120.801 135.547 Q 123.047 136.524 126.075 136.524 Q 131.641 136.524 138.477 133.057 Q 145.313 129.59 152.686 123.584 Q 160.059 117.579 167.725 109.473 Q 175.391 101.368 182.715 92.09 Q 188.379 82.129 194.483 72.266 Q 200.586 62.403 207.276 52.881 Q 213.965 43.36 221.436 34.278 Q 228.907 25.196 237.305 16.993 L 240.528 20.118 Q 227.735 35.547 217.432 52.1 Q 207.129 68.653 198.047 85.303 Q 188.965 101.954 180.616 118.116 Q 172.266 134.278 163.379 148.731 Q 154.493 163.184 144.483 175.489 Q 134.473 187.793 122.12 196.729 Q 109.766 205.665 94.532 210.694 Q 79.297 215.723 59.864 215.723 Q 48.536 215.723 37.745 212.989 Q 26.954 210.254 18.555 204.59 Q 10.157 198.926 5.079 190.43 Q 0 181.934 0 170.313 Q 0 161.622 2.491 154.688 Q 4.981 147.754 9.131 142.383 Q 13.282 137.012 18.75 133.106 Q 24.219 129.2 30.176 126.709 Q 36.133 124.219 42.237 123.047 Q 48.34 121.875 53.809 121.875 Q 57.911 121.875 61.133 122.022 Q 64.356 122.168 67.139 122.559 Q 69.922 122.95 72.461 123.487 Q 75 124.024 77.832 124.903 Z" id="0" vector-effect="non-scaling-stroke"/></g></svg>