<svg width="179.981" height="226.856" viewBox="0 0 179.981 226.856" xmlns="http://www.w3.org/2000/svg"><g id="svgGroup" stroke-linecap="round" fill-rule="evenodd" font-size="9pt" stroke="#000" stroke-width="0.25mm" fill="#000" style="stroke:#000;stroke-width:0.25mm;fill:#000"><path d="M 142.286 101.074 L 145.899 103.809 Q 140.04 111.719 133.253 118.018 Q 126.466 124.316 118.165 130.078 Q 109.864 135.84 99.806 141.504 Q 89.747 147.168 77.149 153.809 Q 77.149 154.59 77.198 155.322 Q 77.247 156.055 77.247 156.836 Q 77.247 163.867 74.708 171.826 Q 72.169 179.785 67.823 187.549 Q 63.477 195.313 57.813 202.441 Q 52.149 209.57 45.899 214.99 Q 39.649 220.41 33.204 223.633 Q 26.759 226.856 20.997 226.856 Q 17.97 226.856 15.431 225.781 Q 12.891 224.707 11.036 222.803 Q 9.181 220.899 8.155 218.408 Q 7.13 215.918 7.13 212.988 Q 7.13 208.008 9.522 202.734 Q 11.915 197.461 16.212 192.041 Q 20.509 186.621 26.319 181.25 Q 32.13 175.879 38.966 170.85 Q 45.802 165.82 53.37 161.133 Q 60.938 156.445 68.751 152.441 Q 68.751 147.168 67.335 142.676 Q 65.919 138.184 63.868 135.547 Q 54.298 140.039 44.532 140.039 Q 38.087 140.039 34.083 137.793 Q 30.079 135.547 30.079 131.543 Q 30.079 127.149 34.132 124.609 Q 38.184 122.07 44.63 122.07 Q 49.22 122.07 54.151 123.682 Q 59.083 125.293 63.184 128.223 Q 70.899 123.828 77.296 116.26 Q 83.692 108.691 90.04 98.975 Q 96.388 89.258 103.272 78.076 Q 110.157 66.895 118.8 55.322 Q 127.442 43.75 138.575 32.373 Q 149.708 20.996 164.454 10.938 Q 156.837 12.598 149.513 13.33 Q 142.188 14.063 135.059 14.063 Q 124.22 14.063 113.819 12.695 Q 103.419 11.328 93.556 9.717 Q 83.692 8.106 74.561 6.738 Q 65.431 5.371 57.13 5.371 Q 46.192 5.371 37.696 8.984 Q 29.2 12.598 23.341 18.311 Q 17.481 24.024 14.405 31.152 Q 11.329 38.281 11.329 45.313 Q 11.329 52.93 13.917 58.936 Q 16.505 64.941 21.046 69.092 Q 25.587 73.242 31.886 75.44 Q 38.184 77.637 45.606 77.637 Q 53.126 77.637 59.278 76.123 Q 65.431 74.609 69.923 72.803 Q 74.415 70.996 77.003 69.385 Q 79.591 67.774 79.884 67.481 L 82.813 71.68 Q 79.2 74.121 74.806 76.318 Q 70.411 78.516 65.333 80.225 Q 60.255 81.934 54.542 82.91 Q 48.829 83.887 42.579 83.887 Q 32.325 83.887 24.366 80.957 Q 16.407 78.027 10.987 72.998 Q 5.567 67.969 2.784 61.279 Q 0.001 54.59 0.001 46.973 Q 0.001 36.328 4.249 27.637 Q 8.497 18.945 16.212 12.793 Q 23.927 6.641 34.669 3.32 Q 45.411 0 58.302 0 Q 66.309 0 75.343 1.367 Q 84.376 2.734 94.141 4.443 Q 103.907 6.152 114.308 7.52 Q 124.708 8.887 135.352 8.887 Q 145.509 8.887 155.909 7.324 Q 166.309 5.762 177.735 1.758 L 179.981 6.25 Q 167.481 15.039 158.155 24.024 Q 148.829 33.008 141.163 42.481 Q 133.497 51.953 126.856 62.158 Q 120.216 72.363 113.184 83.691 Q 101.563 102.539 90.479 114.697 Q 79.395 126.856 68.556 133.106 Q 70.411 135.156 72.755 138.818 Q 75.099 142.481 76.368 148.34 Q 86.524 142.969 95.753 137.988 Q 104.981 133.008 113.233 127.539 Q 121.485 122.07 128.761 115.674 Q 136.036 109.277 142.286 101.074 Z M 68.165 158.496 Q 56.446 164.649 46.241 171.826 Q 36.036 179.004 28.468 186.231 Q 20.899 193.457 16.554 200.342 Q 12.208 207.227 12.208 212.891 Q 12.208 214.063 12.55 215.332 Q 12.891 216.602 13.624 217.627 Q 14.356 218.652 15.431 219.336 Q 16.505 220.02 17.97 220.02 Q 20.899 220.02 25.391 217.334 Q 29.884 214.649 35.059 210.107 Q 40.235 205.566 45.606 199.463 Q 50.977 193.359 55.567 186.524 Q 60.157 179.688 63.526 172.51 Q 66.895 165.332 68.165 158.496 Z M 58.888 131.152 Q 56.056 129.492 52.491 128.223 Q 48.927 126.953 44.337 126.953 Q 40.724 126.953 37.989 128.174 Q 35.255 129.395 35.255 131.348 Q 35.255 133.008 37.257 134.18 Q 39.259 135.352 43.653 135.352 Q 48.048 135.352 51.808 134.18 Q 55.567 133.008 58.888 131.152 Z" id="0" vector-effect="non-scaling-stroke"/></g></svg>